<svg id="Capa_1" fill="hsla(9, 100%, 70%, 1)" enable-background="new 0 0 512 512" viewBox="0 0 512 512" xmlns="http://www.w3.org/2000/svg"><g><g><path d="m151 221h-25c-2.757 0-5 2.243-5 5v60c0 2.757 2.243 5 5 5h25z"/><path d="m181 298.5 90 67.5v-220l-90 67.5z"/><path d="m256 0c-141.159 0-256 114.841-256 256s114.841 256 256 256 256-114.841 256-256-114.841-256-256-256zm45 396c0 5.682-3.21 10.875-8.292 13.417-2.122 1.061-4.42 1.583-6.706 1.583-3.188 0-6.355-1.015-9.002-3l-116-87h-35c-19.299 0-35-15.701-35-35v-60c0-19.299 15.701-35 35-35h35l116-87c4.545-3.409 10.626-3.958 15.708-1.417 5.082 2.542 8.292 7.735 8.292 13.417zm123.891-122.322c5.858 5.858 5.858 15.355 0 21.213-2.929 2.929-6.768 4.394-10.606 4.394s-7.678-1.464-10.606-4.394l-17.679-17.678-17.678 17.678c-2.929 2.929-6.768 4.394-10.606 4.394s-7.678-1.464-10.606-4.394c-5.858-5.858-5.858-15.355 0-21.213l17.677-17.678-17.678-17.678c-5.858-5.858-5.858-15.355 0-21.213 5.857-5.858 15.355-5.858 21.213 0l17.678 17.678 17.678-17.678c5.857-5.858 15.355-5.858 21.213 0s5.858 15.355 0 21.213l-17.678 17.678z"/></g></g></svg>