<?xml version="1.0" standalone="no"?>
<!DOCTYPE svg PUBLIC "-//W3C//DTD SVG 1.1//EN" "http://www.w3.org/Graphics/SVG/1.1/DTD/svg11.dtd" >
<svg xmlns="http://www.w3.org/2000/svg" xmlns:xlink="http://www.w3.org/1999/xlink" version="1.1">
<metadata>
Created by FontForge 20170731 at Wed Jul 17 00:44:43 2019
 By Aleksey,,,
Copyright (c) 2018, The Unna Project Authors (https://github.com/Omnibus-Type/Unna)
</metadata>
<defs>
<font id="Unna-Regular" horiz-adv-x="0" >
  <font-face 
    font-family="Unna"
    font-weight="400"
    font-stretch="normal"
    units-per-em="1000"
    panose-1="0 0 5 0 0 0 0 0 0 0"
    ascent="800"
    descent="-200"
    x-height="420"
    cap-height="597"
    bbox="-668 -269 1115 1016"
    underline-thickness="35"
    underline-position="-308"
    unicode-range="U+0020-FEFF"
  />
<missing-glyph horiz-adv-x="472" 
d="M20 0l1 604h431l-1 -604h-431zM236 341l146 220h-293zM62 82l148 220l-148 220v-440zM408 82v440l-146 -220zM89 43h293l-147 220z" />
    <glyph glyph-name="fi" unicode="fi" horiz-adv-x="531" 
d="M35 0v26l37 -2q13 0 13 19v352h-39v25h39v66q0 250 212 250q68 0 105 -34t37 -90q0 -22 -12.5 -35.5t-35.5 -13.5q-35 0 -35 29q0 8 5 20q4 9 4 24q0 36 -16.5 52t-58.5 16q-126 -4 -126 -120q0 -34 3 -66q3 -57 3 -74v-24h107v-25h-106v-352q0 -19 13 -19l66 2v-26h-215
zM311 0v26l37 -2q13 0 13 19v333q0 17 -12 20l-37 -2v26h135v-377q0 -10 3 -15t10 -4l36 2v-26h-185z" />
    <glyph glyph-name="fl" unicode="fl" horiz-adv-x="531" 
d="M35 0v26l37 -2q13 0 13 19v352h-39v25h39v66q0 250 171 250q62 0 114 -33v-39q-50 39 -110 39q-48 0 -72 -27t-24 -93q0 -35 3 -66q3 -59 3 -74v-23h107v-25h-106v-352q0 -19 13 -19l66 2v-26h-215zM311 0v26l37 -2q13 3 13 19v660l86 27v-687q0 -19 13 -19l36 2v-26
h-185z" />
    <glyph glyph-name="f_f" unicode="ff" horiz-adv-x="538" 
d="M35 0v26l37 -2q13 0 13 19v352h-39v25h39v66q4 250 179 250q68 0 126 -52l-17 -29q-40 48 -106 51q-103 5 -103 -120q0 -32 3 -66q3 -56 3 -74v-26h192v-25h-191v-352q0 -19 13 -19l66 2v-26h-215zM277 0v26l37 -2q13 0 13 19v443q0 250 174 250q48 0 83 -30.5t35 -72.5
q0 -22 -12.5 -35.5t-35.5 -13.5q-35 0 -35 29q0 9 4 20q5 13 5 24q0 23 -13.5 37.5t-37.5 14.5q-40 0 -65 -28.5t-23 -91.5q2 -29 3 -66q3 -52 3 -74v-29h107v-25h-106v-352q0 -19 13 -19l66 2v-26h-215z" />
    <glyph glyph-name="f_f_i" unicode="ffi" horiz-adv-x="773" 
d="M277 0v26l37 -2q13 0 13 19v443q0 250 212 250q68 0 105 -34t37 -90q0 -22 -12.5 -35.5t-35.5 -13.5q-35 0 -35 29q0 8 5 20q4 9 4 24q0 36 -16.5 53t-58.5 15q-129 -6 -126 -120q2 -34 3 -66q3 -57 3 -74v-24h107v-25h-106v-352q0 -19 13 -19l66 2v-26h-215zM35 0v26
l37 -2q13 0 13 19v352h-39v25h39v66q0 250 179 250q74 0 132 -52l-17 -29q-40 48 -112 51q-48 2 -76.5 -27t-26.5 -93q2 -32 3 -66q3 -56 3 -74v-26h192v-25h-191v-352q0 -19 13 -19l66 2v-26h-215zM553 0v26l37 -2q13 0 13 19v333q0 17 -12 20l-37 -2v26h135v-377
q0 -10 3 -15t10 -4l36 2v-26h-185z" />
    <glyph glyph-name="f_f_l" unicode="ffl" horiz-adv-x="782" 
d="M35 0v26l37 -2q13 0 13 19v352h-39v25h39v58q0 250 179 250q71 0 129 -52l-17 -29q-40 48 -109 51q-48 2 -76.5 -27t-26.5 -93q0 -5 1.5 -36t2.5 -54q2 -58 2 -68h192v-25h-191v-352q0 -19 13 -19l66 2v-26h-215zM286 0v26l37 -2q13 0 13 19v430q0 263 171 263
q61 0 114 -33v-39q-49 39 -110 39q-49 0 -73.5 -27.5t-22.5 -92.5q1 -35 3 -66q4 -58 3 -74v-23h107v-25h-106v-352q0 -19 13 -19l66 2v-26h-215zM562 0v26l37 -2q13 3 13 19v660l86 27v-687q0 -19 13 -19l36 2v-26h-185z" />
    <glyph glyph-name=".notdef" horiz-adv-x="472" 
d="M20 0l1 604h431l-1 -604h-431zM236 341l146 220h-293zM62 82l148 220l-148 220v-440zM408 82v440l-146 -220zM89 43h293l-147 220z" />
    <glyph glyph-name=".null" 
 />
    <glyph glyph-name="nonmarkingreturn" horiz-adv-x="333" 
 />
    <glyph glyph-name="space" unicode=" " horiz-adv-x="220" 
 />
    <glyph glyph-name="exclam" unicode="!" horiz-adv-x="269" 
d="M155 201q-12 0 -12 16q0 57 -17 163l-20 140q-6 40 -6 63q0 25 14 39.5t40 14.5t40.5 -14.5t14.5 -39.5q0 -23 -6 -63l-20 -140q-17 -106 -17 -163q0 -16 -11 -16zM154 -10q-25 0 -44.5 17t-19.5 41t19 40.5t46 16.5t45.5 -17t18.5 -41q0 -23 -19.5 -40t-45.5 -17z" />
    <glyph glyph-name="quotedbl" unicode="&#x22;" horiz-adv-x="252" 
d="M185 409q-13 0 -13 17q0 8 -7 54q-1 7 -3.5 29t-3.5 35q-6 44 -6 56q0 40 33 40t33 -40q0 -8 -5 -56q-7 -50 -8 -64q-7 -46 -7 -54q0 -17 -13 -17zM67 409q-13 0 -13 17q0 8 -7 54q-1 7 -3.5 29t-3.5 35q-6 44 -6 56q0 40 33 40t33 -40q0 -8 -5 -56q-7 -50 -8 -64
q-7 -46 -7 -54q0 -17 -13 -17z" />
    <glyph glyph-name="numbersign" unicode="#" horiz-adv-x="505" 
d="M56 -9l61 203h-99l11 40h99l52 171h-100l11 40h100l59 194h40l-59 -194h114l59 194h40l-58 -194h101l-11 -40h-102l-51 -171h101l-12 -40h-101l-61 -203h-40l61 203h-114l-61 -203h-40zM168 234h115l51 171h-114z" />
    <glyph glyph-name="dollar" unicode="$" horiz-adv-x="447" 
d="M206 -95v215q-19 1 -76 17q-15 3 -23 3q-16 0 -24 -5l4 106l24 1q0 -42 35 -70.5t84 -28.5q30 0 47.5 15t17.5 40q0 41 -56 53l-70 19q-80 20 -80 96q0 45 31.5 73.5t85.5 31.5v176h37v-178q21 -3 39 -9q22 -7 38 -7q13 0 24 7l-5 -91h-21q0 32 -26.5 55t-69.5 23
q-29 0 -45.5 -14t-16.5 -36q0 -36 49 -48l69 -18q47 -12 66.5 -36t19.5 -63q0 -48 -32.5 -77.5t-88.5 -34.5v-215h-37z" />
    <glyph glyph-name="percent" unicode="%" horiz-adv-x="572" 
d="M420 -10q-61 0 -94 38.5t-33 100.5q0 63 34 101.5t93 38.5t92.5 -39t33.5 -101t-33.5 -100.5t-92.5 -38.5zM420 8q29 0 41 29t12 93t-12 93q-12 28 -41 28t-41 -29t-12 -92q0 -66 12 -94t41 -28zM153 328q-61 0 -94 38.5t-33 100.5q0 63 34 101.5t93 38.5t92.5 -39
t33.5 -101t-33.5 -100.5t-92.5 -38.5zM153 346q29 0 41 29t12 93t-12 93q-12 28 -41 28t-41 -29q-12 -28 -12 -92q0 -66 12 -94t41 -28zM84 -18l-33 23l428 600l34 -20z" />
    <glyph glyph-name="ampersand" unicode="&#x26;" horiz-adv-x="610" 
d="M569 26l56 2l-1 -27h-167l-46 60q-67 -70 -180 -70q-61 0 -103.5 15.5t-61.5 40.5t-26.5 47t-7.5 44q0 64 39.5 113t129.5 86q-64 84 -64 150q0 51 36.5 85t100.5 34q61 0 92.5 -29.5t31.5 -74.5q0 -41 -26 -82t-73 -67l142 -187q20 54 20 119q0 14 -3 20t-5 6.5t-9 0.5
l-43 -2v30h150v-29l-40 1q-5 0 -8 -0.5t-6.5 -5t-3.5 -13.5q-4 -85 -32 -152l75 -99q14 -17 33 -16zM285 575q-32 0 -50.5 -19.5t-18.5 -54.5q0 -8 1.5 -16t4.5 -16.5t6 -15.5t8.5 -15.5t9 -14t10.5 -14.5t9.5 -13t10 -12.5t8.5 -10.5q37 17 60.5 54t23.5 74q0 32 -20.5 53
t-62.5 21zM253 21q82 0 140 64l-177 232q-45 -25 -70 -62.5t-25 -102.5q0 -61 36.5 -96t95.5 -35z" />
    <glyph glyph-name="quotesingle" unicode="'" horiz-adv-x="133" 
d="M67 409q-13 0 -13 17q0 8 -7 54q-1 7 -3.5 29t-3.5 35q-6 44 -6 56q0 40 33 40t33 -40q0 -8 -5 -56q-7 -50 -8 -64q-7 -46 -7 -54q0 -17 -13 -17z" />
    <glyph glyph-name="parenleft" unicode="(" horiz-adv-x="254" 
d="M211 -231q-193 227 -193 471t193 471h43q-52 -67 -97 -196.5t-45 -274.5q0 -155 44 -278t98 -193h-43z" />
    <glyph glyph-name="parenright" unicode=")" horiz-adv-x="254" 
d="M0 -231q52 67 97 196.5t45 274.5q0 155 -44 278t-98 193h43q193 -227 193 -471t-193 -471h-43z" />
    <glyph glyph-name="asterisk" unicode="*" horiz-adv-x="338" 
d="M120 354q-10 0 -25 9q-24 13 -24 27q0 8 7 21q4 8 21.5 14t26.5 21q8 12 9 27q-13 5 -27 5q-17 0 -31 -12t-24 -12q-19 0 -26 8t-7 30q0 20 8.5 29.5t24.5 8.5q10 0 23.5 -12t31.5 -12q14 0 28 6q-2 14 -10 26q-8 13 -26 20t-22 15q-7 13 -7 21q0 14 24 27q15 9 25 9
q12 0 24 -19q3 -6 3 -10q0 -3 -3 -10t-3 -12q0 -11 10 -27q5 -10 18 -21q13 11 18 21q9 16 9 27q0 2 -2 12q-3 7 -3 10q0 4 3 10q12 19 24 19q10 0 25 -9q24 -13 24 -27q0 -8 -7 -21q-4 -8 -21.5 -14t-26.5 -21q-8 -12 -9 -27q13 -5 27 -5q17 0 31 12t24 12q19 0 26 -8
t7 -30t-7 -30t-26 -8q-10 0 -23.5 12t-31.5 12q-14 0 -28 -6q2 -14 10 -26q8 -13 26 -20t22 -15q7 -13 7 -21q0 -13 -23 -27q-16 -9 -26 -9q-12 0 -24 19q-3 6 -3 10q0 3 3 10t3 12q0 11 -10 27q-5 10 -18 21q-13 -11 -18 -21q-9 -16 -9 -27q0 -5 3 -12l2 -10q0 -4 -3 -10
q-12 -19 -24 -19z" />
    <glyph glyph-name="plus" unicode="+" horiz-adv-x="460" 
d="M206 73v186h-186v44h186v185h49v-185h185v-44h-185v-186h-49z" />
    <glyph glyph-name="comma" unicode="," horiz-adv-x="250" 
d="M79 -160l-19 11q27 25 48 59t21 56q0 29 -36 29q-32 0 -32 43q0 21 17.5 37t40.5 16q70 0 70 -83q0 -47 -31.5 -91t-78.5 -77z" />
    <glyph glyph-name="hyphen" unicode="-" horiz-adv-x="250" 
d="M22 189v55h206v-55h-206z" />
    <glyph glyph-name="period" unicode="." horiz-adv-x="250" 
d="M125 -10q-28 0 -46.5 15.5t-18.5 41.5t18.5 42t46.5 16t46.5 -16t18.5 -42t-18.5 -41.5t-46.5 -15.5z" />
    <glyph glyph-name="slash" unicode="/" horiz-adv-x="247" 
d="M34 -5l-39 11l219 629l38 -9z" />
    <glyph glyph-name="zero" unicode="0" horiz-adv-x="518" 
d="M256 -10q-111 0 -168.5 78.5t-57.5 228.5q0 151 60.5 230.5t169.5 79.5q112 0 170 -78.5t58 -231.5q0 -149 -60.5 -228t-171.5 -79zM258 20q50 0 85 26q32 25 45 84.5t13 167.5q0 109 -12 170q-23 112 -131 112q-76 0 -107 -64q-32 -66 -32 -218q0 -106 12 -168
q12 -59 43.5 -84.5t83.5 -25.5z" />
    <glyph glyph-name="one" unicode="1" horiz-adv-x="387" 
d="M78 0v24l66 -1q21 0 21 20v484q0 15 -21 15h-82v26q68 19 163 49h17v-574q0 -20 19 -20l65 1v-24h-248z" />
    <glyph glyph-name="two" unicode="2" horiz-adv-x="506" 
d="M430 -3q-9 3 -54 3h-327l-2 45q184 142 238 229q53 86 53 175q0 62 -27 96.5t-73 34.5t-73.5 -20.5t-27.5 -56.5q0 -12 6 -27q5 -17 5 -27q0 -37 -46 -37q-23 0 -36.5 15t-13.5 42q0 35 21 67q47 71 173 71q85 0 133.5 -39.5t48.5 -122.5q0 -81 -63 -168
q-64 -87 -238 -209v-2h176q57 0 83.5 22t32.5 77h36q-24 -140 -25 -168z" />
    <glyph glyph-name="three" unicode="3" horiz-adv-x="498" 
d="M233 -10q-57 0 -103 17q-45 17 -70 45.5t-25 62.5q0 50 49 50q22 0 34.5 -11t12.5 -28q0 -11 -5 -26q-5 -17 -5 -23q0 -27 29.5 -43.5t74.5 -16.5q70 0 109 39.5t39 104.5q0 133 -188 138v28q150 16 150 154q0 99 -103 99q-42 0 -70 -17t-28 -44q0 -7 6 -23q5 -18 5 -25
q0 -18 -14 -28.5t-34 -10.5q-49 0 -49 52t57.5 87.5t139.5 35.5q78 0 128.5 -34.5t50.5 -94.5q0 -64 -41 -102.5t-130 -55.5v-2q209 -11 209 -153q0 -60 -31 -97q-61 -78 -198 -78z" />
    <glyph glyph-name="four" unicode="4" horiz-adv-x="470" 
d="M201 0v24l67 -1q18 0 18 20v112h-269v60q19 17 30 30l29 31l226 278l16 22l21 28h25v-388h80v-61h-80v-112q0 -20 19 -20l46 1v-24h-228zM65 216h221v272z" />
    <glyph glyph-name="five" unicode="5" horiz-adv-x="492" 
d="M234 -10q-84 0 -140 36.5t-56 96.5q0 52 51 52q19 0 32 -10.5t13 -28.5q0 -11 -5 -26q-6 -15 -6 -22q0 -34 32 -52.5t80 -18.5q59 0 93 47t34 127q0 140 -146 140q-71 0 -119 -53l-26 16l20 303h258q41 0 83 3q-8 -32 -14 -70h-296l-17 -208q28 22 68.5 36t77.5 14
q91 0 146 -50.5t55 -134.5q0 -60 -29 -104q-30 -45 -79.5 -69t-109.5 -24z" />
    <glyph glyph-name="six" unicode="6" horiz-adv-x="485" 
d="M248 -11q-203 0 -203 281q0 97 22.5 170t77 120t137.5 47q47 0 81 -14q63 -29 63 -82q0 -23 -14 -38.5t-38 -15.5q-19 0 -32 9.5t-13 26.5q0 9 4 18t4 19q0 21 -18.5 35t-47.5 14q-66 0 -102.5 -74t-37.5 -209q48 83 141 83q86 0 134.5 -49.5t48.5 -132.5
q0 -96 -56.5 -152t-150.5 -56zM256 14q112 0 113 163q0 175 -113 175q-58 0 -92 -48.5t-34 -120.5q0 -74 33 -121.5t93 -47.5z" />
    <glyph glyph-name="seven" unicode="7" horiz-adv-x="427" 
d="M140 0q1 80 19 165q38 180 202 365h-206q-44 0 -64.5 -13.5t-24.5 -44.5h-36l3 20q12 94 12 108q13 -3 119 -3h253l4 -42q-191 -212 -191 -480q0 -36 4 -75h-94z" />
    <glyph glyph-name="eight" unicode="8" horiz-adv-x="493" 
d="M234 -10q-85 0 -141 37t-56 103q0 56 40.5 103t105.5 72q-62 35 -91 70t-29 81q0 66 57.5 108.5t145.5 42.5q81 0 131.5 -34.5t50.5 -96.5q0 -55 -40 -95t-96 -54q63 -27 107 -72t44 -100q0 -48 -32 -86q-67 -79 -197 -79zM240 17q58 0 93.5 28t35.5 76q0 38 -23 70
q-22 29 -51.5 49.5t-86.5 50.5q-45 -22 -75 -66t-30 -91q0 -52 37 -84.5t100 -32.5zM288 340q97 43 97 135q0 51 -29.5 78t-83.5 27q-53 0 -85 -26t-32 -70q0 -43 30.5 -73.5t102.5 -70.5z" />
    <glyph glyph-name="nine" unicode="9" horiz-adv-x="485" 
d="M220 -11q-48 0 -80 15q-64 28 -64 81q0 23 14 38.5t38 15.5q19 0 32 -9.5t13 -26.5q0 -9 -4 -18t-4 -19q0 -21 18.5 -35t47.5 -14q66 0 102.5 74t37.5 209q-48 -83 -141 -83q-86 0 -134.5 49.5t-48.5 132.5q0 96 56.5 152t150.5 56q203 0 203 -281q0 -97 -22.5 -170
t-77 -120t-137.5 -47zM246 244q58 0 92 48.5t34 120.5q0 74 -33 121.5t-93 47.5q-113 0 -113 -163q0 -175 113 -175z" />
    <glyph glyph-name="colon" unicode=":" horiz-adv-x="250" 
d="M125 288q-28 0 -46.5 15.5t-18.5 41.5t18.5 42t46.5 16t46.5 -16t18.5 -42t-18.5 -41.5t-46.5 -15.5zM125 -10q-28 0 -46.5 15.5t-18.5 41.5t18.5 42t46.5 16t46.5 -16t18.5 -42t-18.5 -41.5t-46.5 -15.5z" />
    <glyph glyph-name="semicolon" unicode=";" horiz-adv-x="250" 
d="M81 -160l-19 11q27 25 48 59t21 56q0 29 -36 29q-32 0 -32 43q0 21 17.5 37t40.5 16q70 0 70 -83q0 -47 -31.5 -91t-78.5 -77zM119 288q-28 0 -46.5 15.5t-18.5 41.5t18.5 42t46.5 16t46.5 -16t18.5 -42t-18.5 -41.5t-46.5 -15.5z" />
    <glyph glyph-name="less" unicode="&#x3c;" horiz-adv-x="460" 
d="M406 -6l-352 211v24l352 212v-48l-256 -155l-43 -20l43 -21l256 -154v-49z" />
    <glyph glyph-name="equal" unicode="=" horiz-adv-x="460" 
d="M35 302v43h390v-43h-390zM35 103v43h390v-43h-390z" />
    <glyph glyph-name="greater" unicode="&#x3e;" horiz-adv-x="460" 
d="M54 -5v48l256 155l43 20l-43 21l-256 154v49l352 -211v-24z" />
    <glyph glyph-name="question" unicode="?" horiz-adv-x="400" 
d="M159 207q-16 98 -16 140q0 16 11.5 32.5t24.5 28t43 36.5q43 35 56.5 64.5t13.5 64.5q0 31 -25 50.5t-71 19.5q-35 0 -59 -11t-24 -31q0 -5 5 -17q4 -9 4 -18q0 -28 -36 -28q-23 0 -35 13.5t-12 33.5q0 39 50.5 62t122.5 23q78 0 124.5 -29t46.5 -80q0 -79 -81 -134
q-5 -3 -21 -14t-19.5 -14t-15 -11.5t-15 -13.5t-9.5 -13t-9 -16t-4 -17q-8 -53 -9 -121h-41zM181 -10q-28 0 -47 15t-19 40t18.5 42.5t46.5 17.5q27 0 46 -15.5t19 -41.5t-18.5 -42t-45.5 -16z" />
    <glyph glyph-name="at" unicode="@" horiz-adv-x="741" 
d="M376 -145q-104 0 -184 39q-80 40 -123 113t-43 171q0 107 52 204q53 98 144 156t199 58q82 0 150 -38q67 -39 105 -105.5t38 -146.5q0 -74 -40.5 -144.5t-112.5 -125.5q-61 -46 -102 -46q-14 0 -19 10.5t-5 35.5q0 49 24 151q-58 -109 -102 -152q-45 -45 -93 -45
q-44 0 -68 32.5t-24 89.5q0 69 38 145q39 76 100.5 124.5t128.5 48.5q39 0 57 -39l5 20l92 17l-23 -98q-42 -190 -42 -238q0 -17 13 -17q26 0 61 35q35 36 58 89.5t23 105.5q0 72 -34 131q-35 61 -95.5 96t-132.5 35q-107 0 -183 -58q-75 -56 -115.5 -146.5t-40.5 -189.5
q0 -87 37 -151q37 -66 105.5 -102t160.5 -36q89 0 157.5 29.5t133.5 95.5l18 -22q-68 -71 -143 -101.5t-175 -30.5zM311 45q19 0 63 53q45 56 77.5 127t32.5 123q0 21 -12.5 36.5t-30.5 15.5q-47 0 -88.5 -42.5t-68.5 -116.5q-23 -66 -23 -118q0 -78 50 -78z" />
    <glyph glyph-name="A" unicode="A" horiz-adv-x="601" 
d="M-20 0v29l26 -2h4q20 0 33 19q16 23 30 58l209 503h26l211 -505q13 -35 29 -57q14 -18 35 -18h5l33 2v-29h-265v29l49 -2q30 -3 30 24q0 18 -10 39l-49 118h-233l-46 -112q-14 -33 -14 -50q0 -21 22 -20l48 3v-29h-173zM155 236h209l-105 252z" />
    <glyph glyph-name="B" unicode="B" horiz-adv-x="573" 
d="M50 0v29l50 -2q18 0 18 22v500q0 7 -4.5 13.5t-12.5 6.5l-51 -2v30h277q173 0 173 -143q0 -53 -37 -89.5t-101 -47.5q46 0 86 -20q40 -21 62.5 -56t22.5 -79q0 -162 -221 -162h-262zM225 28h70q64 0 102.5 36t38.5 98q0 137 -122 137h-103v-258q0 -13 14 -13zM211 327h76
q121 0 118 126q-3 116 -124 116h-58q-11 0 -12 -12v-230z" />
    <glyph glyph-name="C" unicode="C" horiz-adv-x="607" 
d="M340 -10q-91 0 -156 37q-139 77 -139 268q0 147 79.5 229.5t220.5 82.5q50 0 122 -24q52 -19 86 -19q-4 -28 -4 -75q0 -26 1 -37q2 -18 3 -19h-24q-9 57 -64.5 103t-124.5 46q-89 0 -141 -78.5t-52 -208.5q0 -121 54.5 -199.5t143.5 -78.5q69 0 122 42.5t67 107.5h28
q-6 -47 -6 -85q0 -29 3 -47h-6q-25 0 -80 -18q-81 -27 -133 -27z" />
    <glyph glyph-name="D" unicode="D" horiz-adv-x="623" 
d="M50 0v29l43 -2q15 0 15 22v499q0 21 -19 21l-39 -2v30h225q162 0 237.5 -70.5t75.5 -227.5q0 -299 -301 -299h-237zM213 28h45q84 0 134 27q49 26 71.5 84.5t22.5 158.5q0 101 -22 158q-22 59 -72 86t-134 27h-45q-12 0 -12 -13v-515q0 -13 12 -13z" />
    <glyph glyph-name="E" unicode="E" horiz-adv-x="563" 
d="M519 -3q-23 3 -88 3h-381v30l40 -3q18 0 18 22v499q0 9 -5.5 15.5t-14.5 5.5l-38 -2v30h422q15 0 17 1v-155h-27q0 67 -33.5 96.5t-108.5 29.5h-107q-12 0 -12 -14v-230h94q34 0 55 27t21 74h27v-231h-27q0 44 -22.5 73t-53.5 29h-94v-256q0 -13 12 -13h140
q68 0 103.5 39t35.5 112h27v-182z" />
    <glyph glyph-name="F" unicode="F" horiz-adv-x="529" 
d="M50 0v30l40 -3q18 0 18 22v499q0 21 -17 21h-2l-39 -2v30h434q13 0 15 1v-155h-27q0 66 -34 96t-108 30h-117q-12 0 -12 -13v-241h75q36 0 57.5 27.5t21.5 74.5h27v-230h-27q0 45 -22 72.5t-57 27.5h-75v-239q0 -21 19 -21l52 3v-30h-222z" />
    <glyph glyph-name="G" unicode="G" horiz-adv-x="646" 
d="M335 -10q-135 0 -212.5 78.5t-77.5 226.5q0 153 77 232.5t221 79.5q75 0 153 -29q41 -16 57 -14q-4 -17 -4 -69q0 -19 4 -62h-40q1 3 1 15q0 63 -44.5 98.5t-129.5 35.5q-89 0 -141 -74.5t-52 -212.5q2 -278 198 -278q46 0 73.5 9.5t54.5 36.5v160q0 11 -4.5 17t-14.5 5
l-59 -2v29h231v-29l-41 2q-19 0 -19 -21v-189q-3 1 -13 1q-21 0 -63 -16q-86 -30 -155 -30z" />
    <glyph glyph-name="H" unicode="H" horiz-adv-x="696" 
d="M50 0v29l39 -2q19 0 19 22v499q0 11 -4.5 16.5t-14.5 4.5l-39 -2v30h220v-30l-49 2h-2q-18 0 -18 -21v-226h294v226q0 11 -4.5 16.5t-14.5 4.5l-49 -2v30h219v-30l-39 2h-2q-17 0 -17 -21v-499q0 -22 19 -22l39 2v-29h-219v29l49 -2q19 0 19 22v245h-294v-245
q0 -22 20 -22l49 2v-29h-220z" />
    <glyph glyph-name="I" unicode="I" horiz-adv-x="310" 
d="M50 0v29l39 -2q19 0 19 22v499q0 9 -5 15.5t-14 5.5l-39 -2v30h210v-30l-39 2h-2q-18 0 -18 -21v-499q0 -22 20 -22l39 2v-29h-210z" />
    <glyph glyph-name="J" unicode="J" horiz-adv-x="451" 
d="M181 -10q-31 0 -81 9q-32 6 -41 6h-8q-21 0 -27 -6v173h36q0 -64 26.5 -110t78.5 -46q48 0 69 37t21 126v369q0 9 -5.5 15.5t-13.5 5.5l-69 -2v30h239v-30l-38 2h-2q-18 0 -18 -20v-370q0 -189 -167 -189z" />
    <glyph glyph-name="K" unicode="K" horiz-adv-x="617" 
d="M50 0v29l39 -2q19 0 19 22v499q0 10 -5 16t-14 5l-39 -2v30h220v-30l-49 2q-20 0 -20 -22v-269l215 255q17 20 17 27q0 9 -10 9l-42 -2v30h178v-30l-34 2q-31 1 -58 -29l-153 -175l239 -324q11 -14 24 -14q16 0 34 3v-30h-237v30l54 -3q17 0 17 11q0 6 -5 14l-183 247
l-56 -65v-185q0 -22 20 -22l49 2v-29h-220z" />
    <glyph glyph-name="L" unicode="L" horiz-adv-x="514" 
d="M492 -3q-18 3 -124 3h-318v30l43 -3q15 0 15 22v499q0 9 -5.5 15.5t-13.5 5.5l-39 -2v30h220v-30l-49 2h-2q-18 0 -18 -21v-507q0 -13 12 -13h113q69 0 104.5 36.5t35.5 106.5h26v-174z" />
    <glyph glyph-name="M" unicode="M" horiz-adv-x="858" 
d="M395 -10l-257 537v-478q0 -22 19 -22l49 2v-29h-161v29l39 -2q20 0 20 22v514q0 7 -10 6l-42 -2v30h154l233 -484l219 484h145v-30l-34 2h-2q-18 0 -18 -20v-500q0 -22 20 -22l39 2v-29h-220v29l49 -2q20 0 20 22v470l-238 -529h-24z" />
    <glyph glyph-name="N" unicode="N" horiz-adv-x="662" 
d="M529 -6l-391 531v-476q0 -22 19 -22l49 2v-29h-161v29l39 -2q20 0 20 22v499q0 9 -5.5 15.5t-14.5 5.5l-39 -2v30h155l325 -442v394q0 20 -17 20h-3l-49 -2v30h161v-30l-39 2h-2q-17 0 -17 -21v-554h-30z" />
    <glyph glyph-name="O" unicode="O" horiz-adv-x="670" 
d="M335 -10q-137 0 -213.5 81t-76.5 228q0 148 76 228t214 80t214 -80.5t76 -227.5t-76.5 -228t-213.5 -81zM335 17q98 0 143 66.5t45 215.5q0 148 -45 214.5t-143 66.5t-143 -66.5t-45 -214.5q0 -149 45 -215.5t143 -66.5z" />
    <glyph glyph-name="P" unicode="P" horiz-adv-x="523" 
d="M50 0v29l39 -2q19 0 19 22v498q0 23 -23 22l-35 -2v30h235q104 0 153.5 -39.5t49.5 -121.5q0 -79 -49 -126t-133 -47h-105v-214q0 -22 20 -22l49 2v-29h-220zM201 291h84q46 0 76.5 41t30.5 104q0 60 -33.5 96.5t-89.5 36.5h-56q-4 0 -8 -3.5t-4 -8.5v-266z" />
    <glyph glyph-name="Q" unicode="Q" horiz-adv-x="670" 
d="M335 -10q-137 0 -213.5 81t-76.5 228q0 148 76 228t214 80t214 -80.5t76 -227.5t-76.5 -228t-213.5 -81zM335 17q98 0 143 66.5t45 215.5q0 148 -45 214.5t-143 66.5t-143 -66.5t-45 -214.5q0 -149 45 -215.5t143 -66.5zM478 -194q-22 0 -45.5 17t-41.5 37.5t-54.5 65
t-63.5 74.5l62 -10q31 -7 58 -27t43 -40.5t38 -40t43 -25.5t58 3l9 -26q-47 -28 -106 -28z" />
    <glyph glyph-name="R" unicode="R" horiz-adv-x="581" 
d="M50 0v29l39 -2q19 0 19 22v499q0 22 -22 21l-36 -2v30h225q111 0 161 -37.5t50 -121.5q0 -50 -33 -88t-89 -53q32 0 63 -21q73 -49 73 -154q0 -33 8 -62.5t21 -31.5q8 -2 14 -2q12 0 19 4v-30h-136q-13 27 -14 66q-2 34 -2 38v33q0 72 -47 110.5t-120 38.5h-42v-237
q0 -22 20 -22l49 2v-29h-220zM201 313h93q46 0 72 33t26 92q0 69 -28.5 100t-88.5 31h-62q-12 0 -12 -10v-246z" />
    <glyph glyph-name="S" unicode="S" horiz-adv-x="494" 
d="M268 -10q-61 0 -103 13q-53 15 -79 15q-5 0 -12 -1t-13.5 -2.5t-8.5 -1.5q4 19 4 83q0 80 -8 107h25q23 -185 184 -185q50 0 80 33t30 87q0 76 -99 116l-102 41q-108 43 -110 146q0 44 21 83q46 83 164 83q54 0 129 -29q16 -6 27 -6q20 0 29 4q-3 -24 -3 -75q0 -34 1 -43
q2 -17 5 -24h-26q0 65 -42.5 105.5t-106.5 40.5q-52 0 -84 -29t-32 -79q0 -33 23 -59.5t63 -42.5l92 -37q76 -31 108.5 -68.5t32.5 -96.5q0 -52 -25 -92t-69 -63t-95 -23z" />
    <glyph glyph-name="T" unicode="T" horiz-adv-x="529" 
d="M145 0v29l54 -2q19 0 19 25v506q0 12 -12 12h-41q-66 0 -95 -30t-29 -96h-26v156q18 -2 40 -2h419q30 0 40 2v-156h-26q0 66 -29 96t-94 30h-42q-10 0 -12 -11v-510q0 -22 20 -22l53 2v-29h-239z" />
    <glyph glyph-name="U" unicode="U" horiz-adv-x="651" 
d="M344 -10q-252 0 -252 212v346q0 9 -5.5 15.5t-13.5 5.5l-38 -2v30h219v-30l-49 2h-2q-18 0 -18 -20v-350q0 -84 46.5 -131t130.5 -47q74 0 122 50.5t48 126.5v350q0 10 -5 16t-13 5l-49 -2v30h161v-30l-39 2h-2q-18 0 -18 -20v-360q0 -84 -62.5 -141.5t-160.5 -57.5z" />
    <glyph glyph-name="V" unicode="V" horiz-adv-x="584" 
d="M283 -4l-237 550q-11 23 -23 23l-28 -2v30h215v-30l-53 2q-11 0 -11 -15q0 -1 2 -9l181 -416l174 405q7 17 7 24q0 11 -12 11l-51 -2v30h157v-30l-36 2q-7 1 -11 -4q-3 -3 -10 -19l-238 -550h-26z" />
    <glyph glyph-name="W" unicode="W" horiz-adv-x="884" 
d="M257 -10l-211 557q-7 22 -21 22l-30 -2v30h216v-30l-53 2q-13 0 -13 -11l3 -11l149 -392l143 442h61l183 -454l130 406l2 8q0 14 -13 12l-52 -2v30h153v-30l-30 2q-18 2 -25 -21l-181 -558h-16l-206 519l-170 -519h-19z" />
    <glyph glyph-name="X" unicode="X" horiz-adv-x="566" 
d="M30 0v30l36 -2q21 0 34 22l154 246l-151 254q-10 19 -32 19l-32 -2v30h228v-30l-42 2h-2q-15 0 -15 -12q0 -5 3 -9l109 -187l119 188q5 8 5 12q0 9 -13 8l-43 -2v30h152v-30l-31 2q-17 0 -31 -20l-138 -221l169 -284q11 -18 30 -17l39 3v-30h-235v30l49 -3h2q10 0 10 9
q0 7 -5 14l-126 212l-135 -215q-3 -6 -3 -11q0 -4 2.5 -7t6.5 -2l45 3v-30h-159z" />
    <glyph glyph-name="Y" unicode="Y" horiz-adv-x="507" 
d="M152 0v29l49 -2q19 0 19 22v214l-173 287q-10 19 -24 19l-28 -2v30h221v-30l-53 2h-1q-11 0 -11 -10q0 -6 5 -14l137 -228l131 232q3 5 3 10q0 10 -10 10l-52 -2v30h152v-30l-30 2q-16 0 -28 -21l-146 -261v-239q0 -21 20 -21l48 2v-29h-229z" />
    <glyph glyph-name="Z" unicode="Z" horiz-adv-x="512" 
d="M484 -4q-11 4 -113 4h-337v27l321 542h-152q-72 0 -106.5 -30.5t-34.5 -95.5h-27v157l51 -1q48 -2 58 -2h320v-24l-323 -546h174q69 0 109.5 37.5t40.5 102.5h27z" />
    <glyph glyph-name="bracketleft" unicode="[" horiz-adv-x="256" 
d="M46 -147v822h177v-27h-104v-768h104v-27h-177z" />
    <glyph glyph-name="backslash" unicode="\" horiz-adv-x="248" 
d="M210 -5l-218 631l39 9l219 -629z" />
    <glyph glyph-name="bracketright" unicode="]" horiz-adv-x="256" 
d="M34 -147v27h104v768h-104v27h177v-822h-177z" />
    <glyph glyph-name="asciicircum" unicode="^" horiz-adv-x="460" 
d="M18 321l201 336h23l200 -336h-47l-145 245l-20 42l-19 -42l-147 -245h-46z" />
    <glyph glyph-name="underscore" unicode="_" horiz-adv-x="493" 
d="M0 -183v40h493v-40h-493z" />
    <glyph glyph-name="grave" unicode="`" horiz-adv-x="276" 
d="M228 493q-8 0 -20 9l-163 112q-10 7 -10 13t20.5 16t36.5 10q11 0 16 -4q10 -10 20 -21l95 -104q18 -20 18 -23q0 -8 -13 -8z" />
    <glyph glyph-name="a" unicode="a" horiz-adv-x="450" 
d="M155 -10q-128 0 -128 113q0 77 64.5 113.5t202.5 36.5v63q0 47 -22 67t-71 20q-76 0 -76 -42q0 -6 5 -18q4 -9 4 -20q0 -34 -39 -34q-21 0 -32.5 13t-11.5 34q0 42 44 68t118 26q167 0 167 -141v-246q0 -19 13 -19l37 2v-26h-142q4 17 4 37l2 39q-41 -86 -139 -86z
M185 26q44 0 75 39t34 97v64q-94 0 -135 -27t-41 -88q0 -45 16.5 -66t50.5 -19z" />
    <glyph glyph-name="b" unicode="b" horiz-adv-x="481" 
d="M271 -10q-46 0 -71 14.5t-51 47.5q-5 9 -18 9t-21 -18q-7 -17 -7 -48h-33v692q0 20 -13 20l-36 -2v25h136v-388q37 88 131 88q173 0 173 -221q0 -219 -190 -219zM271 17q39 0 60 18q39 31 39 174q0 109 -17 152q-18 42 -76 42q-56 0 -87 -47.5t-31 -129.5v-42
q0 -167 112 -167z" />
    <glyph glyph-name="c" unicode="c" horiz-adv-x="425" 
d="M237 -10q-94 0 -147.5 57.5t-53.5 158.5q0 100 53.5 162t142.5 62q42 0 77 -13q36 -14 57 -37.5t21 -51.5q0 -22 -12 -36t-36 -14q-35 0 -35 30q0 9 4 20q5 13 5 23q0 24 -22.5 38t-55.5 14q-53 0 -79.5 -43.5t-26.5 -142.5q0 -200 113 -200q51 0 87.5 26.5t52.5 74.5
l25 -12q-42 -116 -170 -116z" />
    <glyph glyph-name="d" unicode="d" horiz-adv-x="496" 
d="M225 -10q-101 0 -145.5 53t-44.5 166q0 221 189 221q45 0 75 -22.5t40 -59.5v339q0 20 -13 20l-46 -2v25h146v-687q0 -19 13 -19l37 2v-26h-144q2 10 2 16v22q0 15 1 20t1 9q-25 -77 -111 -77zM225 17q60 0 86 39.5t26 127.5v42q0 177 -113 177q-52 0 -74.5 -48
t-22.5 -146q0 -73 9 -114q8 -41 29 -59.5t60 -18.5z" />
    <glyph glyph-name="e" unicode="e" horiz-adv-x="449" 
d="M238 -10q-203 0 -203 219q0 109 51 165t150 56q79 0 127.5 -51t50.5 -138v-29h-288q0 -188 126 -189q48 0 83 24t52 63l23 -17q-20 -47 -67 -75t-105 -28zM127 237h182q20 0 20 33q0 69 -21.5 101t-71.5 32q-54 0 -81.5 -44.5t-27.5 -121.5z" />
    <glyph glyph-name="f" unicode="f" horiz-adv-x="296" 
d="M35 0v26l37 -2q13 0 13 19v352h-39v25h39v66q0 250 174 250q48 0 83 -30.5t35 -72.5q0 -22 -12.5 -35.5t-35.5 -13.5q-35 0 -35 29q0 9 4 20q5 13 5 24q0 23 -13.5 37.5t-37.5 14.5q-88 0 -88 -120q0 -29 3 -66q3 -52 3 -74v-29h107v-25h-106v-352q0 -19 13 -19l66 2v-26
h-215z" />
    <glyph glyph-name="g" unicode="g" horiz-adv-x="460" 
d="M215 -245q-88 0 -135.5 34t-47.5 99q0 76 90 117q-74 14 -74 66q0 18 10 31.5t37 35.5l27 22q-65 44 -65 120q0 67 47.5 108.5t122.5 41.5q82 0 126.5 -40.5t44.5 -109.5q0 -66 -47 -107.5t-124 -41.5q-42 0 -78 15q-34 -21 -34 -44q0 -37 56 -37h133q76 0 112.5 -32.5
t36.5 -106.5q0 -77 -65.5 -124t-172.5 -47zM214 -219q82 0 127.5 37.5t45.5 100.5q0 81 -98 81h-100q-42 0 -75 -34t-33 -76q0 -50 34.5 -79.5t98.5 -29.5zM227 154q47 0 64.5 28t17.5 98q0 67 -18.5 95t-63.5 28q-46 0 -63.5 -26.5t-17.5 -96.5q0 -69 15.5 -97.5
t65.5 -28.5zM345 388l-37 29q31 -12 53 -3.5t22 34.5q0 11 -14 20q-15 9 -15 25q0 39 41 39q45 0 45 -51q0 -82 -95 -93z" />
    <glyph glyph-name="h" unicode="h" horiz-adv-x="525" 
d="M35 0v26l37 -2q13 3 13 19v643q0 21 -13 21l-37 -2v25h136v-400q21 48 60 74t90 26q71 0 102.5 -33.5t31.5 -108.5v-245q0 -19 13 -19l37 2v-26h-195v26l46 -2q13 3 13 19v227q0 78 -14 104q-15 24 -53 24q-57 0 -92.5 -48.5t-38.5 -130.5v-176q0 -19 13 -19l46 2v-26
h-195z" />
    <glyph glyph-name="i" unicode="i" horiz-adv-x="255" 
d="M35 0v26l37 -2q13 0 13 19v333q0 17 -12 20l-37 -2v26h135v-377q0 -10 3 -15t10 -4l36 2v-26h-185zM121 548q-25 0 -39.5 12.5t-14.5 35.5q0 21 15 34t39 13t39.5 -13t15.5 -34q0 -23 -15 -35.5t-40 -12.5z" />
    <glyph glyph-name="j" unicode="j" horiz-adv-x="251" 
d="M28 -243q-45 0 -73 19.5t-28 47.5q0 20 13 32t34 12q35 0 35 -28q0 -6 -3 -16t-3 -15q0 -25 31 -25q58 0 53 83q-2 58 -2 74v435q0 20 -13 20l-41 -2v26h140v-424q0 -239 -143 -239zM123 548q-25 0 -39.5 12.5t-14.5 35.5q0 22 15 34.5t39 12.5t39.5 -13t15.5 -34
q0 -23 -15 -35.5t-40 -12.5z" />
    <glyph glyph-name="k" unicode="k" horiz-adv-x="511" 
d="M35 0v26l37 -2q13 3 13 19v643q0 21 -12 21l-37 -2v25h135v-493l163 140q6 6 6 13q0 9 -9 7l-43 -2v25h162v-25l-36 2q-14 0 -31 -14l-117 -100l175 -241q13 -18 27 -18l36 2v-26h-215v26l45 -2h2q7 0 9 4.5t-2 9.5l-139 192l-33 -28v-159q0 -19 13 -19l46 2v-26h-195z
" />
    <glyph glyph-name="l" unicode="l" horiz-adv-x="255" 
d="M35 0v26l37 -2q13 3 13 19v644q0 17 -12 21l-37 -2v25h135v-688q0 -19 13 -19l36 2v-26h-185z" />
    <glyph glyph-name="m" unicode="m" horiz-adv-x="801" 
d="M35 0v26l37 -2q13 3 13 19v333q0 19 -13 20l-37 -2v26h142q-5 -17 -5 -34v-55q15 45 53.5 72t91.5 27q60 0 91 -25t40 -88q17 54 56 83.5t93 29.5q71 0 102.5 -33.5t31.5 -108.5v-245q0 -19 13 -19l37 2v-26h-195v26l46 -2q13 3 13 19v227q0 82 -15 105t-52 23
q-53 0 -88.5 -48.5t-38.5 -126.5v-180q0 -19 13 -19l47 2v-26h-205v26l46 -2q13 3 13 19v229q0 74 -13.5 99.5t-57.5 25.5q-51 0 -84 -45.5t-38 -120.5l-1 -188q0 -19 13 -19l46 2v-26h-195z" />
    <glyph glyph-name="n" unicode="n" horiz-adv-x="525" 
d="M35 0v26l37 -2q13 3 13 19v333q0 17 -13 20l-37 -2v26h141q-5 -17 -5 -35v-55q21 48 60 74t90 26q71 0 102.5 -33.5t31.5 -108.5v-245q0 -19 13 -19l37 2v-26h-195v26l46 -2q13 3 13 19v227q0 72 -13.5 100t-53.5 28q-57 0 -92.5 -48.5t-38.5 -130.5v-176q0 -19 13 -19
l46 2v-26h-195z" />
    <glyph glyph-name="o" unicode="o" horiz-adv-x="472" 
d="M233 -10q-95 0 -146.5 58t-51.5 163q0 103 51.5 161t149.5 58q97 0 149 -57t52 -157q-3 -226 -204 -226zM236 17q59 0 84.5 45t25.5 147q0 103 -25.5 148.5t-84.5 45.5t-84.5 -45.5t-25.5 -148.5q0 -102 25.5 -147t84.5 -45z" />
    <glyph glyph-name="p" unicode="p" horiz-adv-x="494" 
d="M24 -239v26l32 -2q13 1 13 20v571q0 20 -13 20l-36 -2v26h139q-4 -23 -4 -51v-29q30 90 132 90q172 0 172 -221q0 -219 -190 -219q-85 0 -114 53v-238q0 -20 13 -20l62 2v-26h-206zM269 17q37 0 60 18q39 31 39 174q0 78 -7 116q-7 41 -27.5 59.5t-57.5 18.5
q-56 0 -87.5 -48t-31.5 -129v-42q0 -167 112 -167z" />
    <glyph glyph-name="q" unicode="q" horiz-adv-x="490" 
d="M270 -239v26l56 -1q13 1 13 19v257q-12 -31 -43 -51.5t-74 -20.5q-101 0 -144 51.5t-43 167.5q0 221 189 221q42 0 68.5 -12.5t48.5 -42.5q11 -14 20 -14q31 0 31 59h33v-615q0 -10 3 -15t10 -4l32 1v-26h-200zM227 17q49 0 79.5 48.5t30.5 119.5v41q0 77 -26 127t-80 50
q-55 0 -79.5 -45t-24.5 -149q0 -110 21.5 -151t78.5 -41z" />
    <glyph glyph-name="r" unicode="r" horiz-adv-x="383" 
d="M39 0v26l32 -2q13 0 13 19v333q0 20 -13 20l-36 -2v26h141q-6 -16 -6 -46v-49q40 105 117 105q38 0 60 -21.5t22 -56.5q0 -47 -42 -47q-15 0 -26 8t-11 23q0 11 4 23t4 21q0 20 -23 22q-31 0 -54 -29q-45 -59 -51 -157v-173q0 -19 13 -19l61 2v-26h-205z" />
    <glyph glyph-name="s" unicode="s" horiz-adv-x="411" 
d="M212 -10q-33 0 -112 22q-13 4 -27 4q-20 0 -29 -6l5 132l26 2q0 -54 42 -90.5t103 -36.5q40 0 62 20.5t22 55.5q0 28 -16 46t-54 29l-96 27q-86 26 -86 111q0 55 41.5 89.5t111.5 34.5q29 0 74 -13q32 -9 46 -9t28 8l-6 -114h-22q0 41 -32.5 71t-84.5 30q-38 0 -59.5 -20
t-21.5 -51q0 -49 62 -66l96 -27q50 -14 71.5 -41t21.5 -72q0 -64 -45 -100t-121 -36z" />
    <glyph glyph-name="t" unicode="t" horiz-adv-x="313" 
d="M179 -6q-51 0 -72.5 24t-21.5 78v299h-60v25q59 0 80.5 19t37.5 83h28v-102h110v-25h-110v-307q0 -38 9 -51.5t32 -13.5q16 0 31.5 11.5t20.5 28.5l21 -13q-20 -56 -106 -56z" />
    <glyph glyph-name="u" unicode="u" horiz-adv-x="524" 
d="M195 -10q-67 0 -96.5 37t-29.5 121v228q0 20 -13 20l-36 -2v26h135v-272q0 -70 12.5 -97.5t48.5 -27.5q57 0 94 44t42 119l1 189q0 21 -12 21l-47 -2v26h146v-377q0 -19 13 -19l36 2v-26h-142q5 13 5 72v13q-44 -95 -157 -95z" />
    <glyph glyph-name="v" unicode="v" horiz-adv-x="444" 
d="M194 -5l-154 388q-6 13 -20 13l-33 -2v26h203v-26l-44 2q-7 0 -12.5 -6t-2.5 -14l109 -264l106 268q2 6 2 8q0 9 -10 8l-44 -2v26h141v-26l-33 2q-18 0 -23 -15l-158 -386h-27z" />
    <glyph glyph-name="w" unicode="w" horiz-adv-x="725" 
d="M191 -10l-141 393q-6 13 -17 13l-46 -2v26h213v-26l-44 2h-2q-9 0 -12.5 -6t-0.5 -14l94 -265l137 314h21l133 -308l95 262l2 8q0 10 -13 9l-53 -2v26h159v-26l-41 2q-15 0 -21 -17l-149 -389h-22l-134 312l-138 -312h-20z" />
    <glyph glyph-name="x" unicode="x" horiz-adv-x="486" 
d="M5 0v26l43 -2q11 0 21 13l125 169l-125 177q-7 13 -19 13l-39 -2v26h215v-26l-46 2q-7 0 -10.5 -3.5t1.5 -9.5l86 -122l89 118q3 5 3 9q0 8 -9 8l-43 -2v26h149v-26l-42 2q-13 0 -25 -15l-105 -144l141 -200q9 -13 19 -13l44 2v-26h-221v26l49 -3h1q6 0 7.5 5t-1.5 9
l-102 145l-108 -144l-2 -4q0 -10 13 -10l43 2v-26h-152z" />
    <glyph glyph-name="y" unicode="y" horiz-adv-x="485" 
d="M85 -239q-28 0 -46 13t-20 36q0 24 11 37.5t28 13.5q24 0 38 -24q8 -12 14 -16q6 -2 11 -2q28 0 46 46l58 139l-173 379q-6 13 -16 13l-49 -2v26h219v-26l-45 2q-7 0 -11 -5.5t-1 -11.5l122 -268l113 270q1 1 1 6q0 9 -11 9l-47 -2v26h155v-26l-43 2q-16 0 -25 -19
l-211 -509q-24 -59 -51 -83t-67 -24z" />
    <glyph glyph-name="z" unicode="z" horiz-adv-x="441" 
d="M34 -2v20l249 377h-98q-50 0 -80.5 -30t-38.5 -85h-21l9 142q12 0 30 -1q17 -1 66 -1h238v-19l-246 -376h106q129 0 129 114h21v-139h-260l-84 -1q-6 -1 -20 -1z" />
    <glyph glyph-name="braceleft" unicode="{" horiz-adv-x="280" 
d="M201 -146q-58 0 -78.5 19t-20.5 74v229q0 44 -13 57.5t-59 23.5v20q40 6 56 24t16 57v224q0 54 21 73.5t78 19.5h34v-30h-27q-39 0 -39 -56v-231q0 -46 -19.5 -63.5t-76.5 -27.5q57 -13 76.5 -29.5t19.5 -61.5v-236q0 -56 39 -56h27v-30h-34z" />
    <glyph glyph-name="bar" unicode="|" horiz-adv-x="232" 
d="M98 -239v969h36v-969h-36z" />
    <glyph glyph-name="braceright" unicode="}" horiz-adv-x="290" 
d="M55 -146v30h27q39 0 39 56v236q0 45 19.5 61.5t76.5 29.5q-57 10 -76.5 27.5t-19.5 63.5v231q0 56 -39 56h-27v30h34q57 0 78 -19.5t21 -73.5v-224q0 -39 16 -57t56 -24v-20q-46 -10 -59 -23.5t-13 -57.5v-229q0 -55 -20.5 -74t-78.5 -19h-34z" />
    <glyph glyph-name="asciitilde" unicode="~" horiz-adv-x="460" 
d="M325 215q-29 0 -99 33q-62 32 -95 32q-26 0 -42.5 -10.5t-39.5 -43.5l-27 29q43 73 109 73q35 0 100 -33q66 -32 94 -32q25 0 44 13t42 46l28 -29q-46 -78 -114 -78z" />
    <glyph glyph-name="uni00A0" unicode="&#xa0;" horiz-adv-x="220" 
 />
    <glyph glyph-name="exclamdown" unicode="&#xa1;" horiz-adv-x="269" 
d="M114 -242q-49 0 -49 49q0 25 12 111q26 203 26 300q0 16 12 16q11 0 11 -16q0 -96 26 -297q12 -87 12 -114q0 -49 -50 -49zM115 330q-27 0 -46 16.5t-19 40.5t19.5 41t44.5 17q26 0 45.5 -17t19.5 -40q0 -24 -18.5 -41t-45.5 -17z" />
    <glyph glyph-name="cent" unicode="&#xa2;" horiz-adv-x="394" 
d="M206 -95v210q-76 2 -120 47t-44 126q0 82 44.5 129.5t119.5 49.5v180h37v-182q45 -6 74 -28.5t29 -52.5q0 -19 -11.5 -31.5t-32.5 -12.5q-36 0 -36 29q0 8 4 17t4 18q0 18 -16.5 28.5t-41.5 10.5q-82 0 -82 -145q0 -158 92 -158q77 0 110 82l22 -13q-27 -82 -115 -92
v-212h-37z" />
    <glyph glyph-name="sterling" unicode="&#xa3;" horiz-adv-x="507" 
d="M30 -3l-2 4q40 25 64 67t24 88v150h-80v23h80v81q0 103 41.5 150t134.5 47q53 0 89 -25t36 -62q0 -16 -12.5 -28t-28.5 -12t-28.5 10t-12.5 24q0 9 4 18t4 15q0 37 -57 37q-40 0 -65.5 -26.5t-25.5 -70.5q0 -6 6 -54q3 -21 6 -44q3 -21 5 -60h119v-23h-119v-80
q0 -84 -62 -153h158q52 0 81 9q28 8 39 27.5t11 58.5h25l-10 -171l-33 1q-34 2 -45 2h-256q-30 0 -90 -3z" />
    <glyph glyph-name="currency" unicode="&#xa4;" horiz-adv-x="443" 
d="M378 83l-48 49q-47 -38 -108 -38q-62 0 -108 39l-49 -49l-23 23l49 49q-39 50 -39 109t38 108l-47 47l23 23l47 -47q51 39 109 39q64 0 110 -40l47 47l23 -23l-48 -47q39 -45 39 -107q0 -66 -40 -110l48 -49zM222 126q58 0 98.5 40.5t40.5 98.5q0 57 -40.5 97.5
t-98.5 40.5t-98.5 -40.5t-40.5 -97.5q0 -58 40.5 -98.5t98.5 -40.5z" />
    <glyph glyph-name="yen" unicode="&#xa5;" horiz-adv-x="507" 
d="M152 0v29l49 -2q19 0 19 22v153h-132v29h132v32l-30 49h-102v29h85l-126 209q-10 19 -24 19l-28 -2v30h221v-30l-53 2h-1q-11 0 -11 -10q0 -6 5 -14l137 -228l131 232q3 5 3 10q0 10 -10 10l-52 -2v30h152v-30l-30 2q-16 0 -28 -21l-116 -207h102v-29h-118l-14 -25v-56
h132v-29h-132v-154q0 -21 20 -21l48 2v-29h-229z" />
    <glyph glyph-name="brokenbar" unicode="&#xa6;" horiz-adv-x="232" 
d="M97 265v342h38v-342h-38zM97 -231v344h38v-344h-38z" />
    <glyph glyph-name="section" unicode="&#xa7;" horiz-adv-x="437" 
d="M205 -135q-66 0 -107.5 25t-41.5 67q0 26 15 41.5t37 15.5q18 0 30 -10t12 -27q0 -12 -11 -26q-9 -11 -9 -19q0 -18 26.5 -31t58.5 -13q38 0 64 20.5t26 54.5q0 25 -13 42t-45 39l-124 85q-49 33 -68.5 60t-19.5 65q0 82 91 113q-64 53 -64 109q0 59 48 95t127 36
q66 0 107.5 -25t41.5 -67q0 -26 -15 -41.5t-37 -15.5q-18 0 -30 10t-12 27q0 12 11 26q9 11 9 19q0 18 -26.5 31t-58.5 13q-38 0 -64 -20.5t-26 -54.5q0 -25 13 -42t45 -39l124 -85q49 -33 68.5 -60t19.5 -65q0 -82 -91 -113q64 -53 64 -109q0 -59 -48 -95t-127 -36z
M295 122q47 21 47 60q0 33 -43 63l-152 105q-47 -26 -47 -60q0 -33 43 -63z" />
    <glyph glyph-name="dieresis" unicode="&#xa8;" horiz-adv-x="373" 
d="M284 547q-24 0 -39 13.5t-15 34.5t15.5 35t38.5 14q22 0 38 -14t16 -35t-15 -34.5t-39 -13.5zM89 547q-24 0 -39 13.5t-15 34.5t15.5 35t38.5 14q22 0 38 -14t16 -35t-15 -34.5t-39 -13.5z" />
    <glyph glyph-name="copyright" unicode="&#xa9;" horiz-adv-x="723" 
d="M361 -10q-84 0 -155 41q-71 42 -112 112.5t-41 154.5t41 155q41 72 112 113t155 41t155 -41q72 -42 113 -113t41 -155t-41 -155q-42 -72 -113 -112.5t-155 -40.5zM365 131q-80 0 -126 45t-46 123q0 82 46 127t129 45q37 0 73 -14q24 -10 47 -10q-2 -32 -2 -41
q0 -29 2 -31h-19q-7 31 -34.5 53.5t-58.5 22.5q-95 0 -95 -152q0 -146 97 -146q35 0 60.5 21t32.5 55h22l-3 -47q0 -8 2 -26q-20 0 -55 -11q-44 -14 -72 -14zM360 20q78 0 140 37q63 37 99.5 100.5t36.5 140.5q0 76 -36 141q-37 64 -100.5 101t-139.5 37q-78 0 -140 -37
q-63 -37 -99 -101t-36 -141t36 -140q36 -64 99 -101t140 -37z" />
    <glyph glyph-name="ordfeminine" unicode="&#xaa;" horiz-adv-x="350" 
d="M128 342q-84 0 -84 69q0 48 40 71t126 23v37q0 50 -52 50q-23 0 -32 -7.5t-9 -26.5q0 -29 -30 -29q-32 0 -32 32q0 54 103 54q58 0 85 -21t27 -67v-147q0 -7 6 -7l30 1v-24h-95l3 47q-22 -55 -86 -55zM145 373q26 0 45.5 24.5t19.5 59.5v25q-103 0 -103 -66q0 -43 38 -43
z" />
    <glyph glyph-name="guillemotleft" unicode="&#xab;" horiz-adv-x="428" 
d="M174 16l-149 171l149 171h36l-98 -171l98 -171h-36zM342 16l-149 171l149 171h36l-98 -171l98 -171h-36z" />
    <glyph glyph-name="logicalnot" unicode="&#xac;" horiz-adv-x="460" 
d="M397 146v173h-377v41h420v-214h-43z" />
    <glyph glyph-name="uni00AD" unicode="&#xad;" horiz-adv-x="250" 
d="M22 189v55h206v-55h-206z" />
    <glyph glyph-name="registered" unicode="&#xae;" horiz-adv-x="492" 
d="M246 220q-54 0 -101 26q-46 26 -72.5 70t-26.5 97q0 55 27 100q26 44 72 69t101 25q54 0 100 -25t73 -70t27 -99q0 -55 -27 -98q-27 -44 -73 -69.5t-100 -25.5zM245 246q71 0 121 46t50 121q0 76 -50 122t-121 46t-120.5 -46t-49.5 -122t49.5 -121.5t120.5 -45.5z
M151 317v18h12q6 0 6 7v147q0 7 -8 7h-10v18h102q77 0 77 -48q0 -44 -56 -55q24 0 42.5 -15.5t18.5 -39.5q0 -14 5 -19.5t15 -2.5v-17h-37q-41 0 -41 31v14q0 38 -39 38h-10v-58q0 -7 7 -7h17v-18h-101zM228 419h19q25 0 25 40q0 37 -30 37h-9q-5 0 -5 -3v-74z" />
    <glyph glyph-name="macron" unicode="&#xaf;" horiz-adv-x="447" 
d="M104 567v40h239v-40h-239z" />
    <glyph glyph-name="degree" unicode="&#xb0;" horiz-adv-x="374" 
d="M187 411q-40 0 -69 29t-29 69q0 41 29 69.5t69 28.5q41 0 69.5 -28.5t28.5 -69.5q0 -40 -28.5 -69t-69.5 -29zM187 453q23 0 39.5 16.5t16.5 39.5t-16.5 39.5t-39.5 16.5t-39.5 -16.5t-16.5 -39.5t16.5 -39.5t39.5 -16.5z" />
    <glyph glyph-name="plusminus" unicode="&#xb1;" horiz-adv-x="460" 
d="M207 80v194h-187v41h187v191h45v-191h188v-41h-188v-194h-45zM20 0v41h420v-41h-420z" />
    <glyph glyph-name="uni00B2" unicode="&#xb2;" horiz-adv-x="262" 
d="M231 401q-10 2 -31 2h-171l-2 44l58 46q46 39 62 63t16 57q0 47 -38 47q-32 0 -32 -22q0 -4 3 -14q2 -14 2 -15q0 -12 -10 -19t-25 -7q-17 0 -27.5 10.5t-10.5 25.5q0 25 28.5 42t74.5 17q50 0 80 -18.5t30 -52.5q0 -33 -27 -58.5t-85 -60.5l-56 -34h95q28 0 40.5 5.5
t15.5 20.5h20q-6 -26 -10 -79z" />
    <glyph glyph-name="uni00B3" unicode="&#xb3;" horiz-adv-x="250" 
d="M115 397q-45 0 -75.5 15.5t-30.5 40.5q0 15 10 24t28 9q34 0 34 -27q0 -4 -2 -10q-2 -8 -2 -11q0 -22 37 -22q26 0 41 16t15 43q0 30 -22.5 43.5t-80.5 18.5v16q35 0 60 18.5t25 49.5q0 39 -37 39q-13 0 -22 -6t-9 -16q0 -2 2 -10q2 -10 2 -12q0 -26 -35 -26
q-17 0 -27 9.5t-10 23.5q0 25 30.5 40t75.5 15q47 0 76 -15.5t29 -43.5q0 -27 -27 -45.5t-71 -23.5v-3q115 -2 115 -68q0 -36 -36.5 -59t-92.5 -23z" />
    <glyph glyph-name="acute" unicode="&#xb4;" horiz-adv-x="276" 
d="M48 493q-13 0 -13 8q0 3 18 23l95 104q15 16 21 21q4 4 15 4q16 0 36.5 -10t20.5 -16t-10 -13l-163 -112q-12 -7 -20 -9z" />
    <glyph glyph-name="uni00B5" unicode="&#xb5;" horiz-adv-x="536" 
d="M20 -239v26l46 -1q12 2 15 19v572q0 19 -13 19l-36 -2v26h135v-272q0 -70 12.5 -97.5t48.5 -27.5q63 0 100 50.5t37 137.5v164q0 21 -12 21l-47 -2v26h146v-377q0 -19 13 -19l36 2v-26h-142q6 16 6 73v14q-18 -45 -55 -71t-86 -26q-34 0 -59 19v-204q0 -16 14 -19l46 1
v-26h-205z" />
    <glyph glyph-name="paragraph" unicode="&#xb6;" horiz-adv-x="499" 
d="M228 -269v557q-94 0 -146 40t-52 114q0 72 52.5 113.5t145.5 41.5h250v-31h-101v-835h-35v835h-41q-38 0 -38 -38v-797h-35z" />
    <glyph glyph-name="periodcentered" unicode="&#xb7;" horiz-adv-x="250" 
d="M125 127q-28 0 -46.5 15.5t-18.5 41.5t18.5 42t46.5 16t46.5 -16t18.5 -42t-18.5 -41.5t-46.5 -15.5z" />
    <glyph glyph-name="cedilla" unicode="&#xb8;" horiz-adv-x="233" 
d="M104 -214q-44 0 -69 16l7 24q12 -13 35 -13t39.5 15.5t16.5 38.5q0 21 -34 39l-23 14q-11 8 -11 15t6 13l41 52h33l-27 -43q-6 -10 -6 -19q0 -6 7 -9q6 -2 23 -7q30 -7 43 -16t13 -28q0 -43 -24.5 -67.5t-69.5 -24.5z" />
    <glyph glyph-name="uni00B9" unicode="&#xb9;" horiz-adv-x="187" 
d="M22 403v21h34q12 0 12 11v186q0 9 -12 9h-43v22q41 10 108 30h16v-247q0 -11 11 -11h33v-21h-159z" />
    <glyph glyph-name="ordmasculine" unicode="&#xba;" horiz-adv-x="351" 
d="M175 344q-62 0 -96.5 37t-34.5 99q0 65 35 101.5t96 36.5t96.5 -36.5t35.5 -101.5q0 -64 -34.5 -100t-97.5 -36zM175 368q38 0 49.5 25t11.5 87q0 65 -13 89.5t-48 24.5t-47.5 -25t-12.5 -89q0 -65 12 -88.5t48 -23.5z" />
    <glyph glyph-name="guillemotright" unicode="&#xbb;" horiz-adv-x="433" 
d="M50 16l98 171l-98 171h36l149 -171l-149 -171h-36zM222 16l98 171l-98 171h36l149 -171l-149 -171h-36z" />
    <glyph glyph-name="onequarter" unicode="&#xbc;" horiz-adv-x="559" 
d="M373 0v21h33q9 0 9 9v35h-127v33l163 176h33v-172h36v-37h-36v-35q0 -9 9 -9h20v-21h-140zM55 332v21h34q12 0 12 11v186q0 9 -12 9h-43v22q40 11 108 30h16v-247q0 -11 11 -11h33v-21h-159zM96 -18l-33 23l428 600l34 -20zM325 102h90v96z" />
    <glyph glyph-name="onehalf" unicode="&#xbd;" horiz-adv-x="580" 
d="M543 -2q-10 2 -31 2h-171l-2 44l58 46q46 39 62 63t16 57q0 47 -38 47q-32 0 -32 -22q0 -3 3 -14q2 -14 2 -15q0 -12 -10 -19t-25 -7q-17 0 -27.5 10t-10.5 26q0 25 28.5 42t74.5 17q50 0 80 -18.5t30 -52.5q0 -33 -27 -58.5t-85 -60.5l-56 -34h95q28 0 40.5 5.5
t15.5 20.5h20q-6 -26 -10 -79zM51 332v21h34q12 0 12 11v186q0 9 -12 9h-43v22q40 11 108 30h16v-247q0 -11 11 -11h33v-21h-159zM84 -18l-33 23l428 600l34 -20z" />
    <glyph glyph-name="threequarters" unicode="&#xbe;" horiz-adv-x="569" 
d="M361 0v21h33q9 0 9 9v35h-127v33l163 176h33v-172h36v-37h-36v-35q0 -9 9 -9h20v-21h-140zM145 326q-45 0 -75.5 15.5t-30.5 40.5q0 15 10 24t28 9q34 0 34 -27q0 -4 -2 -10q-2 -8 -2 -11q0 -22 37 -22q26 0 41 16t15 43q0 30 -22.5 43.5t-80.5 18.5v16q35 0 60 18.5
t25 49.5q0 39 -37 39q-13 0 -22 -6t-9 -16q0 -2 2 -10q2 -10 2 -12q0 -26 -35 -26q-17 0 -27 9.5t-10 23.5q0 25 30.5 40t75.5 15q47 0 76 -15.5t29 -43.5q0 -27 -27 -45.5t-71 -23.5v-3q115 -2 115 -68q0 -36 -36.5 -59t-92.5 -23zM103 -18l-33 23l428 600l34 -20zM313 102
h90v96z" />
    <glyph glyph-name="questiondown" unicode="&#xbf;" horiz-adv-x="400" 
d="M188 -235q-78 0 -124.5 29t-46.5 80q0 79 81 134q5 3 21 14t19.5 14t15 11.5t15 13.5t9.5 13t9 16t4 17q8 53 9 121h41q16 -98 16 -140q0 -16 -11.5 -32.5t-24.5 -28t-43 -36.5q-43 -35 -56.5 -64.5t-13.5 -64.5q0 -31 25 -50.5t71 -19.5q35 0 59 11t24 31q0 8 -4 17
q-5 12 -5 18q0 28 36 28q23 0 35 -13.5t12 -33.5q0 -39 -50.5 -62t-122.5 -23zM220 330q-27 0 -46 15.5t-19 41.5t18.5 42t45.5 16q28 0 47 -15t19 -40t-18.5 -42.5t-46.5 -17.5z" />
    <glyph glyph-name="Agrave" unicode="&#xc0;" horiz-adv-x="601" 
d="M-20 0v29l26 -2h4q20 0 33 19q16 23 30 58l209 503h26l211 -505q13 -35 29 -57q14 -18 35 -18h5l33 2v-29h-265v29l49 -2q30 -3 30 24q0 18 -10 39l-49 118h-233l-46 -112q-14 -33 -14 -50q0 -21 22 -20l48 3v-29h-173zM361 666q-8 0 -20 9l-163 112q-10 7 -10 13
t20.5 16t36.5 10q11 0 16 -4q10 -10 20 -21l95 -104q18 -19 18 -23q0 -8 -13 -8zM155 236h209l-105 252z" />
    <glyph glyph-name="Aacute" unicode="&#xc1;" horiz-adv-x="601" 
d="M-20 0v29l26 -2h4q20 0 33 19q16 23 30 58l209 503h26l211 -505q13 -35 29 -57q14 -18 35 -18h5l33 2v-29h-265v29l49 -2q30 -3 30 24q0 18 -10 39l-49 118h-233l-46 -112q-14 -33 -14 -50q0 -21 22 -20l48 3v-29h-173zM235 666q-13 0 -13 8q0 4 18 23l95 104
q15 17 21 21q4 4 15 4q16 0 36.5 -10t20.5 -16t-10 -13l-163 -112q-12 -9 -20 -9zM155 236h209l-105 252z" />
    <glyph glyph-name="Acircumflex" unicode="&#xc2;" horiz-adv-x="601" 
d="M-20 0v29l26 -2h4q20 0 33 19q16 23 30 58l209 503h26l211 -505q13 -35 29 -57q14 -18 35 -18h5l33 2v-29h-265v29l49 -2q30 -3 30 24q0 18 -10 39l-49 118h-233l-46 -112q-14 -33 -14 -50q0 -21 22 -20l48 3v-29h-173zM149 666q-9 0 -9 8q0 2 8 10q10 10 17 15
q31 27 54 50l23 24l24 24q26 25 30 25t30 -25l24 -24l23 -24q23 -23 54 -50q11 -7 18 -15q7 -7 7 -10q0 -8 -9 -8t-28 12l-119 74l-119 -74q-20 -12 -28 -12zM155 236h209l-105 252z" />
    <glyph glyph-name="Atilde" unicode="&#xc3;" horiz-adv-x="601" 
d="M-20 0v29l26 -2h4q20 0 33 19q16 23 30 58l209 503h26l211 -505q13 -35 29 -57q14 -18 35 -18h5l33 2v-29h-265v29l49 -2q30 -3 30 24q0 18 -10 39l-49 118h-233l-46 -112q-14 -33 -14 -50q0 -21 22 -20l48 3v-29h-173zM383 675q-25 0 -88 22q-59 21 -81 21
q-14 0 -23.5 -12t-9.5 -30h-20q0 37 18.5 64t45.5 27q25 0 88 -22q61 -21 81 -21q14 0 23.5 12t9.5 30h20q0 -37 -18.5 -64t-45.5 -27zM155 236h209l-105 252z" />
    <glyph glyph-name="Adieresis" unicode="&#xc4;" horiz-adv-x="601" 
d="M-20 0v29l26 -2h4q20 0 33 19q16 23 30 58l209 503h26l211 -505q13 -35 29 -57q14 -18 35 -18h5l33 2v-29h-265v29l49 -2q30 -3 30 24q0 18 -10 39l-49 118h-233l-46 -112q-14 -33 -14 -50q0 -21 22 -20l48 3v-29h-173zM397 696q-24 0 -39 13.5t-15 34.5t15.5 35t38.5 14
q22 0 38 -14t16 -35t-15 -34.5t-39 -13.5zM202 696q-24 0 -39 13.5t-15 34.5t15.5 35t38.5 14q22 0 38 -14t16 -35t-15 -34.5t-39 -13.5zM155 236h209l-105 252z" />
    <glyph glyph-name="Aring" unicode="&#xc5;" horiz-adv-x="601" 
d="M-20 0v29l26 -2h4q20 0 33 19q16 23 30 58l209 503h26l211 -505q13 -35 29 -57q14 -18 35 -18h5l33 2v-29h-265v29l49 -2q30 -3 30 24q0 18 -10 39l-49 118h-233l-46 -112q-14 -33 -14 -50q0 -21 22 -20l48 3v-29h-173zM296 666q-34 0 -58.5 24t-24.5 58t24 57.5t59 23.5
t59.5 -23.5t24.5 -57.5t-24.5 -58t-59.5 -24zM296 702q19 0 30.5 12.5t11.5 33.5q0 20 -11.5 32.5t-30.5 12.5t-30 -12.5t-11 -32.5q0 -21 11 -33.5t30 -12.5zM155 236h209l-105 252z" />
    <glyph glyph-name="AE" unicode="&#xc6;" horiz-adv-x="847" 
d="M803 -3q-36 3 -88 3h-345v30l57 -3q12 -1 18 7t4 18l-29 156h-246l-76 -128q-14 -26 -14 -38q0 -17 20 -15l51 3v-30h-175v30l31 -3q13 -1 26 11q10 11 34 48l279 457q2 4 2 8q0 7 -5 11.5t-12 4.5l-51 -2v32h465q16 0 34 2v-156h-26q0 65 -34.5 95.5t-107.5 30.5h-164
l45 -245h83q33 0 54.5 28.5t21.5 73.5h26v-231h-26q0 45 -21.5 73.5t-54.5 28.5h-79l48 -251q4 -19 21 -19h66q141 0 141 144h27v-174zM190 236h224l-52 279z" />
    <glyph glyph-name="Ccedilla" unicode="&#xc7;" horiz-adv-x="607" 
d="M340 -10q-91 0 -156 37q-139 77 -139 268q0 147 79.5 229.5t220.5 82.5q50 0 122 -24q52 -19 86 -19q-4 -28 -4 -75q0 -26 1 -37q2 -18 3 -19h-24q-9 57 -64.5 103t-124.5 46q-89 0 -141 -78.5t-52 -208.5q0 -121 54.5 -199.5t143.5 -78.5q69 0 122 42.5t67 107.5h28
q-6 -47 -6 -85q0 -29 3 -47h-6q-25 0 -80 -18q-81 -27 -133 -27zM296 -214q-44 0 -69 16l7 24q12 -13 35 -13t39.5 15.5t16.5 38.5q0 21 -34 39l-23 14q-11 8 -11 15t6 13l41 52h33l-27 -43q-6 -10 -6 -19q0 -6 7 -9q6 -2 23 -7q30 -7 43 -16t13 -28q0 -43 -24.5 -67.5
t-69.5 -24.5z" />
    <glyph glyph-name="Egrave" unicode="&#xc8;" horiz-adv-x="563" 
d="M519 -3q-23 3 -88 3h-381v30l40 -3q18 0 18 22v499q0 9 -5.5 15.5t-14.5 5.5l-38 -2v30h422q15 0 17 1v-155h-27q0 67 -33.5 96.5t-108.5 29.5h-107q-12 0 -12 -14v-230h94q34 0 55 27t21 74h27v-231h-27q0 44 -22.5 73t-53.5 29h-94v-256q0 -13 12 -13h140
q68 0 103.5 39t35.5 112h27v-182zM359 666q-8 0 -20 9l-163 112q-10 7 -10 13t20.5 16t36.5 10q11 0 16 -4q10 -10 20 -21l95 -104q18 -19 18 -23q0 -8 -13 -8z" />
    <glyph glyph-name="Eacute" unicode="&#xc9;" horiz-adv-x="563" 
d="M519 -3q-23 3 -88 3h-381v30l40 -3q18 0 18 22v499q0 9 -5.5 15.5t-14.5 5.5l-38 -2v30h422q15 0 17 1v-155h-27q0 67 -33.5 96.5t-108.5 29.5h-107q-12 0 -12 -14v-230h94q34 0 55 27t21 74h27v-231h-27q0 44 -22.5 73t-53.5 29h-94v-256q0 -13 12 -13h140
q68 0 103.5 39t35.5 112h27v-182zM233 666q-13 0 -13 8q0 4 18 23l95 104q15 17 21 21q4 4 15 4q16 0 36.5 -10t20.5 -16t-10 -13l-163 -112q-12 -9 -20 -9z" />
    <glyph glyph-name="Ecircumflex" unicode="&#xca;" horiz-adv-x="563" 
d="M519 -3q-23 3 -88 3h-381v30l40 -3q18 0 18 22v499q0 9 -5.5 15.5t-14.5 5.5l-38 -2v30h422q15 0 17 1v-155h-27q0 67 -33.5 96.5t-108.5 29.5h-107q-12 0 -12 -14v-230h94q34 0 55 27t21 74h27v-231h-27q0 44 -22.5 73t-53.5 29h-94v-256q0 -13 12 -13h140
q68 0 103.5 39t35.5 112h27v-182zM147 666q-9 0 -9 8q0 2 8 10q10 10 17 15q31 27 54 50l23 24l24 24q26 25 30 25t30 -25l24 -24l23 -24q23 -23 54 -50q11 -7 18 -15q7 -7 7 -10q0 -8 -9 -8q-8 0 -28 12l-119 74l-119 -74q-19 -12 -28 -12z" />
    <glyph glyph-name="Edieresis" unicode="&#xcb;" horiz-adv-x="563" 
d="M519 -3q-23 3 -88 3h-381v30l40 -3q18 0 18 22v499q0 9 -5.5 15.5t-14.5 5.5l-38 -2v30h422q15 0 17 1v-155h-27q0 67 -33.5 96.5t-108.5 29.5h-107q-12 0 -12 -14v-230h94q34 0 55 27t21 74h27v-231h-27q0 44 -22.5 73t-53.5 29h-94v-256q0 -13 12 -13h140
q68 0 103.5 39t35.5 112h27v-182zM395 696q-24 0 -39 13.5t-15 34.5t15.5 35t38.5 14q22 0 38 -14t16 -35t-15 -34.5t-39 -13.5zM200 696q-24 0 -39 13.5t-15 34.5t15.5 35t38.5 14q22 0 38 -14t16 -35t-15 -34.5t-39 -13.5z" />
    <glyph glyph-name="Igrave" unicode="&#xcc;" horiz-adv-x="310" 
d="M50 0v29l39 -2q19 0 19 22v499q0 9 -5 15.5t-14 5.5l-39 -2v30h210v-30l-39 2h-2q-18 0 -18 -21v-499q0 -22 20 -22l39 2v-29h-210zM219 666q-8 0 -20 9l-163 112q-10 7 -10 13t20.5 16t36.5 10q11 0 16 -4q10 -10 20 -21l95 -104q18 -19 18 -23q0 -8 -13 -8z" />
    <glyph glyph-name="Iacute" unicode="&#xcd;" horiz-adv-x="310" 
d="M50 0v29l39 -2q19 0 19 22v499q0 9 -5 15.5t-14 5.5l-39 -2v30h210v-30l-39 2h-2q-18 0 -18 -21v-499q0 -22 20 -22l39 2v-29h-210zM93 666q-13 0 -13 8q0 4 18 23l95 104q15 17 21 21q4 4 15 4q16 0 36.5 -10t20.5 -16t-10 -13l-163 -112q-12 -9 -20 -9z" />
    <glyph glyph-name="Icircumflex" unicode="&#xce;" horiz-adv-x="310" 
d="M50 0v29l39 -2q19 0 19 22v499q0 9 -5 15.5t-14 5.5l-39 -2v30h210v-30l-39 2h-2q-18 0 -18 -21v-499q0 -22 20 -22l39 2v-29h-210zM7 666q-9 0 -9 8q0 2 8 10q10 10 17 15q31 27 54 50l23 24l24 24q26 25 30 25t30 -25l24 -24l23 -24q23 -23 54 -50q11 -7 18 -15
q7 -7 7 -10q0 -8 -9 -8t-28 12l-119 74l-119 -74q-19 -12 -28 -12z" />
    <glyph glyph-name="Idieresis" unicode="&#xcf;" horiz-adv-x="310" 
d="M50 0v29l39 -2q19 0 19 22v499q0 9 -5 15.5t-14 5.5l-39 -2v30h210v-30l-39 2h-2q-18 0 -18 -21v-499q0 -22 20 -22l39 2v-29h-210zM255 696q-24 0 -39 13.5t-15 34.5t15.5 35t38.5 14q22 0 38 -14t16 -35t-15 -34.5t-39 -13.5zM60 696q-24 0 -39 13.5t-15 34.5t15.5 35
t38.5 14q22 0 38 -14t16 -35t-15 -34.5t-39 -13.5z" />
    <glyph glyph-name="Eth" unicode="&#xd0;" horiz-adv-x="623" 
d="M50 0v29l43 -2q15 0 15 22v499q0 21 -19 21l-39 -2v30h225q162 0 237.5 -70.5t75.5 -227.5q0 -299 -301 -299h-237zM213 28h45q84 0 134 27q49 26 71.5 84.5t22.5 158.5q0 101 -22 158q-22 59 -72 86t-134 27h-45q-12 0 -12 -13v-515q0 -13 12 -13zM31 280v35h366v-35
h-366z" />
    <glyph glyph-name="Ntilde" unicode="&#xd1;" horiz-adv-x="662" 
d="M529 -6l-391 531v-476q0 -22 19 -22l49 2v-29h-161v29l39 -2q20 0 20 22v499q0 9 -5.5 15.5t-14.5 5.5l-39 -2v30h155l325 -442v394q0 20 -17 20h-3l-49 -2v30h161v-30l-39 2h-2q-17 0 -17 -21v-554h-30zM421 675q-25 0 -88 22q-59 21 -81 21q-14 0 -23.5 -12t-9.5 -30
h-20q0 37 18.5 64t45.5 27q25 0 88 -22q61 -21 81 -21q14 0 23.5 12t9.5 30h20q0 -37 -18.5 -64t-45.5 -27z" />
    <glyph glyph-name="Ograve" unicode="&#xd2;" horiz-adv-x="670" 
d="M335 -10q-137 0 -213.5 81t-76.5 228q0 148 76 228t214 80t214 -80.5t76 -227.5t-76.5 -228t-213.5 -81zM335 17q98 0 143 66.5t45 215.5q0 148 -45 214.5t-143 66.5t-143 -66.5t-45 -214.5q0 -149 45 -215.5t143 -66.5zM400 666q-8 0 -20 9l-163 112q-10 7 -10 13
t20.5 16t36.5 10q11 0 16 -4q10 -10 20 -21l95 -104q18 -19 18 -23q0 -8 -13 -8z" />
    <glyph glyph-name="Oacute" unicode="&#xd3;" horiz-adv-x="670" 
d="M335 -10q-137 0 -213.5 81t-76.5 228q0 148 76 228t214 80t214 -80.5t76 -227.5t-76.5 -228t-213.5 -81zM335 17q98 0 143 66.5t45 215.5q0 148 -45 214.5t-143 66.5t-143 -66.5t-45 -214.5q0 -149 45 -215.5t143 -66.5zM274 666q-13 0 -13 8q0 4 18 23l95 104
q15 17 21 21q4 4 15 4q16 0 36.5 -10t20.5 -16t-10 -13l-163 -112q-12 -9 -20 -9z" />
    <glyph glyph-name="Ocircumflex" unicode="&#xd4;" horiz-adv-x="670" 
d="M335 -10q-137 0 -213.5 81t-76.5 228q0 148 76 228t214 80t214 -80.5t76 -227.5t-76.5 -228t-213.5 -81zM335 17q98 0 143 66.5t45 215.5q0 148 -45 214.5t-143 66.5t-143 -66.5t-45 -214.5q0 -149 45 -215.5t143 -66.5zM188 666q-9 0 -9 8q0 2 8 10q10 10 17 15
q31 27 54 50l23 24l24 24q26 25 30 25t30 -25l24 -24l23 -24q23 -23 54 -50q10 -7 18 -15q7 -7 7 -10q0 -8 -9 -8q-8 0 -28 12l-119 74l-119 -74q-20 -12 -28 -12z" />
    <glyph glyph-name="Otilde" unicode="&#xd5;" horiz-adv-x="670" 
d="M335 -10q-137 0 -213.5 81t-76.5 228q0 148 76 228t214 80t214 -80.5t76 -227.5t-76.5 -228t-213.5 -81zM335 17q98 0 143 66.5t45 215.5q0 148 -45 214.5t-143 66.5t-143 -66.5t-45 -214.5q0 -149 45 -215.5t143 -66.5zM422 675q-25 0 -88 22q-58 21 -81 21
q-14 0 -23.5 -12t-9.5 -30h-20q0 37 18.5 64t45.5 27q25 0 88 -22q62 -21 81 -21q14 0 23.5 12t9.5 30h20q0 -37 -18.5 -64t-45.5 -27z" />
    <glyph glyph-name="Odieresis" unicode="&#xd6;" horiz-adv-x="670" 
d="M335 -10q-137 0 -213.5 81t-76.5 228q0 148 76 228t214 80t214 -80.5t76 -227.5t-76.5 -228t-213.5 -81zM335 17q98 0 143 66.5t45 215.5q0 148 -45 214.5t-143 66.5t-143 -66.5t-45 -214.5q0 -149 45 -215.5t143 -66.5zM436 696q-24 0 -39 13.5t-15 34.5t15.5 35
t38.5 14q22 0 38 -14t16 -35t-15 -34.5t-39 -13.5zM241 696q-24 0 -39 13.5t-15 34.5t15.5 35t38.5 14q22 0 38 -14t16 -35t-15 -34.5t-39 -13.5z" />
    <glyph glyph-name="multiply" unicode="&#xd7;" horiz-adv-x="460" 
d="M368 102l-138 137l-136 -136l-30 28l138 137l-136 135l29 29l134 -136l137 137l30 -29l-137 -136l137 -138z" />
    <glyph glyph-name="Oslash" unicode="&#xd8;" horiz-adv-x="670" 
d="M335 -10q-137 0 -213.5 81t-76.5 228q0 148 76 228t214 80t214 -80.5t76 -227.5t-76.5 -228t-213.5 -81zM335 17q98 0 143 66.5t45 215.5q0 148 -45 214.5t-143 66.5t-143 -66.5t-45 -214.5q0 -149 45 -215.5t143 -66.5zM121 -100l-37 17l68 115l378 645l37 -20z" />
    <glyph glyph-name="Ugrave" unicode="&#xd9;" horiz-adv-x="651" 
d="M344 -10q-252 0 -252 212v346q0 9 -5.5 15.5t-13.5 5.5l-38 -2v30h219v-30l-49 2h-2q-18 0 -18 -20v-350q0 -84 46.5 -131t130.5 -47q74 0 122 50.5t48 126.5v350q0 10 -5 16t-13 5l-49 -2v30h161v-30l-39 2h-2q-18 0 -18 -20v-360q0 -84 -62.5 -141.5t-160.5 -57.5z
M421 666q-8 0 -20 9l-163 112q-10 7 -10 13t20.5 16t36.5 10q11 0 16 -4q10 -10 20 -21l95 -104q18 -19 18 -23q0 -8 -13 -8z" />
    <glyph glyph-name="Uacute" unicode="&#xda;" horiz-adv-x="651" 
d="M344 -10q-252 0 -252 212v346q0 9 -5.5 15.5t-13.5 5.5l-38 -2v30h219v-30l-49 2h-2q-18 0 -18 -20v-350q0 -84 46.5 -131t130.5 -47q74 0 122 50.5t48 126.5v350q0 10 -5 16t-13 5l-49 -2v30h161v-30l-39 2h-2q-18 0 -18 -20v-360q0 -84 -62.5 -141.5t-160.5 -57.5z
M295 666q-13 0 -13 8q0 4 18 23l95 104q15 17 21 21q4 4 15 4q16 0 36.5 -10t20.5 -16t-10 -13l-163 -112q-12 -9 -20 -9z" />
    <glyph glyph-name="Ucircumflex" unicode="&#xdb;" horiz-adv-x="651" 
d="M344 -10q-252 0 -252 212v346q0 9 -5.5 15.5t-13.5 5.5l-38 -2v30h219v-30l-49 2h-2q-18 0 -18 -20v-350q0 -84 46.5 -131t130.5 -47q74 0 122 50.5t48 126.5v350q0 10 -5 16t-13 5l-49 -2v30h161v-30l-39 2h-2q-18 0 -18 -20v-360q0 -84 -62.5 -141.5t-160.5 -57.5z
M209 666q-9 0 -9 8q0 2 8 10q10 10 17 15q31 27 54 50l23 24l24 24q26 25 30 25t30 -25l24 -24l23 -24q23 -23 54 -50q11 -7 18 -15q7 -7 7 -10q0 -8 -9 -8t-28 12l-119 74l-119 -74q-20 -12 -28 -12z" />
    <glyph glyph-name="Udieresis" unicode="&#xdc;" horiz-adv-x="651" 
d="M344 -10q-252 0 -252 212v346q0 9 -5.5 15.5t-13.5 5.5l-38 -2v30h219v-30l-49 2h-2q-18 0 -18 -20v-350q0 -84 46.5 -131t130.5 -47q74 0 122 50.5t48 126.5v350q0 10 -5 16t-13 5l-49 -2v30h161v-30l-39 2h-2q-18 0 -18 -20v-360q0 -84 -62.5 -141.5t-160.5 -57.5z
M457 696q-24 0 -39 13.5t-15 34.5t15.5 35t38.5 14q22 0 38 -14t16 -35t-15 -34.5t-39 -13.5zM262 696q-24 0 -39 13.5t-15 34.5t15.5 35t38.5 14q22 0 38 -14t16 -35t-15 -34.5t-39 -13.5z" />
    <glyph glyph-name="Yacute" unicode="&#xdd;" horiz-adv-x="507" 
d="M152 0v29l49 -2q19 0 19 22v214l-173 287q-10 19 -24 19l-28 -2v30h221v-30l-53 2h-1q-11 0 -11 -10q0 -6 5 -14l137 -228l131 232q3 5 3 10q0 10 -10 10l-52 -2v30h152v-30l-30 2q-16 0 -28 -21l-146 -261v-239q0 -21 20 -21l48 2v-29h-229zM205 666q-13 0 -13 8
q0 4 18 23l95 104q15 17 21 21q4 4 15 4q16 0 36.5 -10t20.5 -16t-10 -13l-163 -112q-12 -9 -20 -9z" />
    <glyph glyph-name="Thorn" unicode="&#xde;" horiz-adv-x="524" 
d="M50 0v29l39 -2h2q17 0 17 22v499q0 21 -19 21l-39 -2v30h220v-30l-49 2q-20 0 -20 -21v-52h82q106 0 156 -39t50 -123q0 -79 -49.5 -125.5t-135.5 -46.5h-103v-113q0 -11 5 -17t15 -5l49 2v-29h-220zM214 188h69q45 0 77.5 43t32.5 103q0 62 -34 99.5t-92 37.5h-66v-270
q0 -13 13 -13z" />
    <glyph glyph-name="germandbls" unicode="&#xdf;" horiz-adv-x="528" 
d="M374 -8q-52 0 -87 18.5t-35 46.5q0 23 13 36.5t35 13.5q45 0 45 -40q0 -9 -1 -14t-1 -13q0 -19 27 -19q38 0 59 20t21 58q0 66 -75 120l-86 62q-42 30 -60.5 55t-18.5 60q0 63 75 117q74 53 74 99q0 45 -27 72.5t-74 27.5q-46 0 -74.5 -30t-28.5 -81q0 -24 7 -70
q8 -72 8 -97v-386q0 -21 14 -21l46 2v-29h-195v29l36 -2q13 0 13 21v464q0 115 43 170t130 55q82 0 131.5 -31t49.5 -84q0 -71 -74 -115q-75 -43 -75 -80q0 -44 64 -87l87 -63q89 -65 89 -138q0 -67 -42 -107t-113 -40z" />
    <glyph glyph-name="agrave" unicode="&#xe0;" horiz-adv-x="450" 
d="M155 -10q-128 0 -128 113q0 77 64.5 113.5t202.5 36.5v63q0 47 -22 67t-71 20q-76 0 -76 -42q0 -6 5 -18q4 -9 4 -20q0 -34 -39 -34q-21 0 -32.5 13t-11.5 34q0 42 44 68t118 26q167 0 167 -141v-246q0 -19 13 -19l37 2v-26h-142q4 17 4 37l2 39q-41 -86 -139 -86z
M185 26q44 0 75 39t34 97v64q-94 0 -135 -27t-41 -88q0 -45 16.5 -66t50.5 -19zM282 493q-8 0 -20 9l-163 112q-10 7 -10 13t20.5 16t36.5 10q11 0 16 -4q10 -10 20 -21l95 -104q18 -20 18 -23q0 -8 -13 -8z" />
    <glyph glyph-name="aacute" unicode="&#xe1;" horiz-adv-x="450" 
d="M155 -10q-128 0 -128 113q0 77 64.5 113.5t202.5 36.5v63q0 47 -22 67t-71 20q-76 0 -76 -42q0 -6 5 -18q4 -9 4 -20q0 -34 -39 -34q-21 0 -32.5 13t-11.5 34q0 42 44 68t118 26q167 0 167 -141v-246q0 -19 13 -19l37 2v-26h-142q4 17 4 37l2 39q-41 -86 -139 -86z
M185 26q44 0 75 39t34 97v64q-94 0 -135 -27t-41 -88q0 -45 16.5 -66t50.5 -19zM160 493q-13 0 -13 8q0 3 18 23l95 104q15 16 21 21q4 4 15 4q16 0 36.5 -10t20.5 -16t-10 -13l-163 -112q-12 -7 -20 -9z" />
    <glyph glyph-name="acircumflex" unicode="&#xe2;" horiz-adv-x="450" 
d="M155 -10q-128 0 -128 113q0 77 64.5 113.5t202.5 36.5v63q0 47 -22 67t-71 20q-76 0 -76 -42q0 -6 5 -18q4 -9 4 -20q0 -34 -39 -34q-21 0 -32.5 13t-11.5 34q0 42 44 68t118 26q167 0 167 -141v-246q0 -19 13 -19l37 2v-26h-142q4 17 4 37l2 39q-41 -86 -139 -86z
M185 26q44 0 75 39t34 97v64q-94 0 -135 -27t-41 -88q0 -45 16.5 -66t50.5 -19zM74 493q-9 0 -9 8q0 2 8 10q10 10 17 15q31 27 54 50l23 24l24 24q26 25 30 25t30 -25l24 -24l23 -24q23 -23 54 -50q10 -8 18 -15q7 -7 7 -10q0 -8 -9 -8q-8 0 -28 12l-119 74l-119 -74
q-20 -12 -28 -12z" />
    <glyph glyph-name="atilde" unicode="&#xe3;" horiz-adv-x="450" 
d="M155 -10q-128 0 -128 113q0 77 64.5 113.5t202.5 36.5v63q0 47 -22 67t-71 20q-76 0 -76 -42q0 -6 5 -18q4 -9 4 -20q0 -34 -39 -34q-21 0 -32.5 13t-11.5 34q0 42 44 68t118 26q167 0 167 -141v-246q0 -19 13 -19l37 2v-26h-142q4 17 4 37l2 39q-41 -86 -139 -86z
M185 26q44 0 75 39t34 97v64q-94 0 -135 -27t-41 -88q0 -45 16.5 -66t50.5 -19zM308 529q-25 0 -88 22q-58 21 -81 21q-14 0 -23.5 -12t-9.5 -30h-20q0 37 18.5 64t45.5 27q25 0 88 -22q62 -21 81 -21q14 0 23.5 12t9.5 30h20q0 -37 -18.5 -64t-45.5 -27z" />
    <glyph glyph-name="adieresis" unicode="&#xe4;" horiz-adv-x="450" 
d="M155 -10q-128 0 -128 113q0 77 64.5 113.5t202.5 36.5v63q0 47 -22 67t-71 20q-76 0 -76 -42q0 -6 5 -18q4 -9 4 -20q0 -34 -39 -34q-21 0 -32.5 13t-11.5 34q0 42 44 68t118 26q167 0 167 -141v-246q0 -19 13 -19l37 2v-26h-142q4 17 4 37l2 39q-41 -86 -139 -86z
M185 26q44 0 75 39t34 97v64q-94 0 -135 -27t-41 -88q0 -45 16.5 -66t50.5 -19zM318 547q-24 0 -39 13.5t-15 34.5t15.5 35t38.5 14q22 0 38 -14t16 -35t-15 -34.5t-39 -13.5zM123 547q-24 0 -39 13.5t-15 34.5t15.5 35t38.5 14q22 0 38 -14t16 -35t-15 -34.5t-39 -13.5z
" />
    <glyph glyph-name="aring" unicode="&#xe5;" horiz-adv-x="450" 
d="M155 -10q-128 0 -128 113q0 77 64.5 113.5t202.5 36.5v63q0 47 -22 67t-71 20q-76 0 -76 -42q0 -6 5 -18q4 -9 4 -20q0 -34 -39 -34q-21 0 -32.5 13t-11.5 34q0 42 44 68t118 26q167 0 167 -141v-246q0 -19 13 -19l37 2v-26h-142q4 17 4 37l2 39q-41 -86 -139 -86z
M185 26q44 0 75 39t34 97v64q-94 0 -135 -27t-41 -88q0 -45 16.5 -66t50.5 -19zM221 493q-34 0 -58.5 24t-24.5 58t24 57.5t59 23.5t59.5 -23.5t24.5 -57.5t-24.5 -58t-59.5 -24zM221 529q19 0 30.5 12.5t11.5 33.5q0 20 -11.5 32.5t-30.5 12.5t-30 -12.5t-11 -32.5
q0 -21 11 -33.5t30 -12.5z" />
    <glyph glyph-name="ae" unicode="&#xe6;" horiz-adv-x="710" 
d="M508 -10q-142 0 -190 97q-47 -92 -146 -92q-68 0 -106.5 26t-38.5 77q0 79 63 111.5t204 32.5v74q0 47 -22 67t-71 20q-76 0 -76 -42q0 -6 5 -18q4 -9 4 -20q0 -34 -39 -34q-21 0 -32.5 13t-11.5 34q0 42 44 68t118 26q99 0 139 -49q65 49 148 49q175 0 175 -213h-294
q0 -91 34.5 -142.5t98.5 -51.5q39 0 78.5 25t57.5 62l24 -18q-21 -47 -66.5 -74.5t-99.5 -27.5zM191 28q48 0 75.5 38.5t27.5 110.5v40q-91 0 -133.5 -30.5t-42.5 -93.5q0 -65 73 -65zM381 242h199q10 0 10 28q0 133 -89 133q-62 0 -91 -39.5t-29 -121.5z" />
    <glyph glyph-name="ccedilla" unicode="&#xe7;" horiz-adv-x="425" 
d="M237 -10q-94 0 -147.5 57.5t-53.5 158.5q0 100 53.5 162t142.5 62q42 0 77 -13q36 -14 57 -37.5t21 -51.5q0 -22 -12 -36t-36 -14q-35 0 -35 30q0 9 4 20q5 13 5 23q0 24 -22.5 38t-55.5 14q-53 0 -79.5 -43.5t-26.5 -142.5q0 -200 113 -200q51 0 87.5 26.5t52.5 74.5
l25 -12q-42 -116 -170 -116zM208 -214q-44 0 -69 16l7 24q12 -13 35 -13t39.5 15.5t16.5 38.5q0 21 -34 39l-23 14q-11 8 -11 15t6 13l41 52h33l-27 -43q-6 -10 -6 -19q0 -6 7 -9q6 -2 23 -7q30 -7 43 -16t13 -28q0 -43 -24.5 -67.5t-69.5 -24.5z" />
    <glyph glyph-name="egrave" unicode="&#xe8;" horiz-adv-x="449" 
d="M238 -10q-203 0 -203 219q0 109 51 165t150 56q79 0 127.5 -51t50.5 -138v-29h-288q0 -188 126 -189q48 0 83 24t52 63l23 -17q-20 -47 -67 -75t-105 -28zM127 237h182q20 0 20 33q0 69 -21.5 101t-71.5 32q-54 0 -81.5 -44.5t-27.5 -121.5zM298 493q-8 0 -20 9l-163 112
q-10 7 -10 13t20.5 16t36.5 10q11 0 16 -4q10 -10 20 -21l95 -104q18 -20 18 -23q0 -8 -13 -8z" />
    <glyph glyph-name="eacute" unicode="&#xe9;" horiz-adv-x="449" 
d="M238 -10q-203 0 -203 219q0 109 51 165t150 56q79 0 127.5 -51t50.5 -138v-29h-288q0 -188 126 -189q48 0 83 24t52 63l23 -17q-20 -47 -67 -75t-105 -28zM127 237h182q20 0 20 33q0 69 -21.5 101t-71.5 32q-54 0 -81.5 -44.5t-27.5 -121.5zM176 493q-13 0 -13 8
q0 3 18 23l95 104q15 16 21 21q4 4 15 4q16 0 36.5 -10t20.5 -16t-10 -13l-163 -112q-12 -7 -20 -9z" />
    <glyph glyph-name="ecircumflex" unicode="&#xea;" horiz-adv-x="449" 
d="M238 -10q-203 0 -203 219q0 109 51 165t150 56q79 0 127.5 -51t50.5 -138v-29h-288q0 -188 126 -189q48 0 83 24t52 63l23 -17q-20 -47 -67 -75t-105 -28zM127 237h182q20 0 20 33q0 69 -21.5 101t-71.5 32q-54 0 -81.5 -44.5t-27.5 -121.5zM90 493q-9 0 -9 8q0 2 8 10
q10 10 17 15q31 27 54 50l23 24l24 24q26 25 30 25t30 -25l24 -24l23 -24q23 -23 54 -50q10 -8 18 -15q7 -7 7 -10q0 -8 -9 -8q-8 0 -28 12l-119 74l-119 -74q-19 -12 -28 -12z" />
    <glyph glyph-name="edieresis" unicode="&#xeb;" horiz-adv-x="449" 
d="M238 -10q-203 0 -203 219q0 109 51 165t150 56q79 0 127.5 -51t50.5 -138v-29h-288q0 -188 126 -189q48 0 83 24t52 63l23 -17q-20 -47 -67 -75t-105 -28zM127 237h182q20 0 20 33q0 69 -21.5 101t-71.5 32q-54 0 -81.5 -44.5t-27.5 -121.5zM334 547q-24 0 -39 13.5
t-15 34.5t15.5 35t38.5 14q22 0 38 -14t16 -35t-15 -34.5t-39 -13.5zM139 547q-24 0 -39 13.5t-15 34.5t15.5 35t38.5 14q22 0 38 -14t16 -35t-15 -34.5t-39 -13.5z" />
    <glyph glyph-name="igrave" unicode="&#xec;" horiz-adv-x="255" 
d="M35 0v26l37 -2q13 0 13 19v333q0 17 -12 20l-37 -2v26h135v-377q0 -19 13 -19l36 2v-26h-185zM188 493q-8 0 -20 9l-163 112q-10 7 -10 13t20.5 16t36.5 10q11 0 16 -4q10 -10 20 -21l95 -104q18 -20 18 -23q0 -8 -13 -8z" />
    <glyph glyph-name="iacute" unicode="&#xed;" horiz-adv-x="255" 
d="M35 0v26l37 -2q13 0 13 19v333q0 17 -12 20l-37 -2v26h135v-377q0 -19 13 -19l36 2v-26h-185zM66 493q-13 0 -13 8q0 3 18 23l95 104q15 16 21 21q4 4 15 4q16 0 36.5 -10t20.5 -16t-10 -13l-163 -112q-12 -7 -20 -9z" />
    <glyph glyph-name="icircumflex" unicode="&#xee;" horiz-adv-x="255" 
d="M35 0v26l37 -2q13 0 13 19v333q0 17 -12 20l-37 -2v26h135v-377q0 -19 13 -19l36 2v-26h-185zM-20 493q-9 0 -9 8q0 3 7 10q8 7 18 15q31 27 54 50l23 24l24 24q26 25 30 25t30 -25l24 -24l23 -24q23 -23 54 -50q10 -8 18 -15q7 -7 7 -10q0 -8 -9 -8q-8 0 -28 12l-119 74
l-119 -74q-20 -12 -28 -12z" />
    <glyph glyph-name="idieresis" unicode="&#xef;" horiz-adv-x="255" 
d="M35 0v26l37 -2q13 0 13 19v333q0 17 -12 20l-37 -2v26h135v-377q0 -19 13 -19l36 2v-26h-185zM224 547q-24 0 -39 13.5t-15 34.5t15.5 35t38.5 14q22 0 38 -14t16 -35t-15 -34.5t-39 -13.5zM29 547q-24 0 -39 13.5t-15 34.5t15.5 35t38.5 14q22 0 38 -14t16 -35
t-15 -34.5t-39 -13.5z" />
    <glyph glyph-name="eth" unicode="&#xf0;" horiz-adv-x="492" 
d="M246 -11q-103 0 -157 56t-54 164t54 164t157 56q41 0 82 -25q-36 83 -82 114l-106 -61l-15 26l96 55q-49 43 -109 47l20 22q71 -3 137 -42l95 55l14 -26l-81 -47q74 -53 117 -139.5t43 -194.5q0 -105 -55 -164.5t-156 -59.5zM246 14q65 0 92.5 45t27.5 150t-28 150
t-92 45t-92 -48.5t-28 -146.5q0 -102 28.5 -148.5t91.5 -46.5z" />
    <glyph glyph-name="ntilde" unicode="&#xf1;" horiz-adv-x="525" 
d="M35 0v26l37 -2q13 3 13 19v333q0 17 -13 20l-37 -2v26h141q-5 -17 -5 -35v-55q21 48 60 74t90 26q71 0 102.5 -33.5t31.5 -108.5v-245q0 -19 13 -19l37 2v-26h-195v26l46 -2q13 3 13 19v227q0 72 -13.5 100t-53.5 28q-57 0 -92.5 -48.5t-38.5 -130.5v-176q0 -19 13 -19
l46 2v-26h-195zM367 529q-25 0 -88 22q-59 21 -81 21q-14 0 -23.5 -12t-9.5 -30h-20q0 37 18.5 64t45.5 27q25 0 88 -22q61 -21 81 -21q14 0 23.5 12t9.5 30h20q0 -37 -18.5 -64t-45.5 -27z" />
    <glyph glyph-name="ograve" unicode="&#xf2;" horiz-adv-x="472" 
d="M233 -10q-95 0 -146.5 58t-51.5 163q0 103 51.5 161t149.5 58q97 0 149 -57t52 -157q-3 -226 -204 -226zM236 17q59 0 84.5 45t25.5 147q0 103 -25.5 148.5t-84.5 45.5t-84.5 -45.5t-25.5 -148.5q0 -102 25.5 -147t84.5 -45zM297 493q-8 0 -20 9l-163 112q-10 7 -10 13
t20.5 16t36.5 10q11 0 16 -4q10 -10 20 -21l95 -104q18 -20 18 -23q0 -8 -13 -8z" />
    <glyph glyph-name="oacute" unicode="&#xf3;" horiz-adv-x="472" 
d="M233 -10q-95 0 -146.5 58t-51.5 163q0 103 51.5 161t149.5 58q97 0 149 -57t52 -157q-3 -226 -204 -226zM236 17q59 0 84.5 45t25.5 147q0 103 -25.5 148.5t-84.5 45.5t-84.5 -45.5t-25.5 -148.5q0 -102 25.5 -147t84.5 -45zM175 493q-13 0 -13 8q0 3 18 23l95 104
q15 16 21 21q4 4 15 4q16 0 36.5 -10t20.5 -16t-10 -13l-163 -112q-12 -7 -20 -9z" />
    <glyph glyph-name="ocircumflex" unicode="&#xf4;" horiz-adv-x="472" 
d="M233 -10q-95 0 -146.5 58t-51.5 163q0 103 51.5 161t149.5 58q97 0 149 -57t52 -157q-3 -226 -204 -226zM236 17q59 0 84.5 45t25.5 147q0 103 -25.5 148.5t-84.5 45.5t-84.5 -45.5t-25.5 -148.5q0 -102 25.5 -147t84.5 -45zM89 493q-9 0 -9 8q0 2 8 10q10 10 17 15
q31 27 54 50l23 24l24 24q26 25 30 25t30 -25l24 -24l23 -24q23 -23 54 -50q11 -8 18 -15t7 -10q0 -8 -9 -8t-28 12l-119 74l-119 -74q-19 -12 -28 -12z" />
    <glyph glyph-name="otilde" unicode="&#xf5;" horiz-adv-x="472" 
d="M233 -10q-95 0 -146.5 58t-51.5 163q0 103 51.5 161t149.5 58q97 0 149 -57t52 -157q-3 -226 -204 -226zM236 17q59 0 84.5 45t25.5 147q0 103 -25.5 148.5t-84.5 45.5t-84.5 -45.5t-25.5 -148.5q0 -102 25.5 -147t84.5 -45zM323 529q-25 0 -88 22q-59 21 -81 21
q-14 0 -23.5 -12t-9.5 -30h-20q0 37 18.5 64t45.5 27q25 0 88 -22q61 -21 81 -21q14 0 23.5 12t9.5 30h20q0 -37 -18.5 -64t-45.5 -27z" />
    <glyph glyph-name="odieresis" unicode="&#xf6;" horiz-adv-x="472" 
d="M233 -10q-95 0 -146.5 58t-51.5 163q0 103 51.5 161t149.5 58q97 0 149 -57t52 -157q-3 -226 -204 -226zM236 17q59 0 84.5 45t25.5 147q0 103 -25.5 148.5t-84.5 45.5t-84.5 -45.5t-25.5 -148.5q0 -102 25.5 -147t84.5 -45zM333 547q-24 0 -39 13.5t-15 34.5t15.5 35
t38.5 14q22 0 38 -14t16 -35t-15 -34.5t-39 -13.5zM138 547q-24 0 -39 13.5t-15 34.5t15.5 35t38.5 14q22 0 38 -14t16 -35t-15 -34.5t-39 -13.5z" />
    <glyph glyph-name="divide" unicode="&#xf7;" horiz-adv-x="460" 
d="M229 50q-24 0 -39 12.5t-15 34.5q0 21 15 34.5t39 13.5q25 0 40 -12.5t15 -35.5q0 -21 -15.5 -34t-39.5 -13zM229 389q-24 0 -39 12.5t-15 34.5q0 23 14.5 35.5t39.5 12.5t40 -12.5t15 -35.5q0 -21 -15.5 -34t-39.5 -13zM19 244v51h422v-51h-422z" />
    <glyph glyph-name="oslash" unicode="&#xf8;" horiz-adv-x="472" 
d="M233 -10q-95 0 -146.5 58t-51.5 163q0 103 51.5 161t149.5 58q97 0 149 -57t52 -157q-3 -226 -204 -226zM236 17q59 0 84.5 45t25.5 147q0 103 -25.5 148.5t-84.5 45.5t-84.5 -45.5t-25.5 -148.5q0 -102 25.5 -147t84.5 -45zM95 -85l-38 18l319 570l35 -20z" />
    <glyph glyph-name="ugrave" unicode="&#xf9;" horiz-adv-x="524" 
d="M195 -10q-67 0 -96.5 37t-29.5 121v228q0 20 -13 20l-36 -2v26h135v-272q0 -70 12.5 -97.5t48.5 -27.5q57 0 94 44t42 119l1 189q0 21 -12 21l-47 -2v26h146v-377q0 -19 13 -19l36 2v-26h-142q5 13 5 72v13q-44 -95 -157 -95zM300 493q-8 0 -20 9l-163 112q-10 7 -10 13
t20.5 16t36.5 10q11 0 16 -4q10 -10 20 -21l95 -104q18 -20 18 -23q0 -8 -13 -8z" />
    <glyph glyph-name="uacute" unicode="&#xfa;" horiz-adv-x="524" 
d="M195 -10q-67 0 -96.5 37t-29.5 121v228q0 20 -13 20l-36 -2v26h135v-272q0 -70 12.5 -97.5t48.5 -27.5q57 0 94 44t42 119l1 189q0 21 -12 21l-47 -2v26h146v-377q0 -19 13 -19l36 2v-26h-142q5 13 5 72v13q-44 -95 -157 -95zM178 493q-13 0 -13 8q0 3 18 23l95 104
q15 16 21 21q4 4 15 4q16 0 36.5 -10t20.5 -16t-10 -13l-163 -112q-12 -7 -20 -9z" />
    <glyph glyph-name="ucircumflex" unicode="&#xfb;" horiz-adv-x="524" 
d="M195 -10q-67 0 -96.5 37t-29.5 121v228q0 20 -13 20l-36 -2v26h135v-272q0 -70 12.5 -97.5t48.5 -27.5q57 0 94 44t42 119l1 189q0 21 -12 21l-47 -2v26h146v-377q0 -19 13 -19l36 2v-26h-142q5 13 5 72v13q-44 -95 -157 -95zM92 493q-9 0 -9 8q0 2 8 10q10 10 17 15
q31 27 54 50l23 24l24 24q26 25 30 25t30 -25l24 -24l23 -24q23 -23 54 -50q10 -8 18 -15q7 -7 7 -10q0 -8 -9 -8q-8 0 -28 12l-119 74l-119 -74q-19 -12 -28 -12z" />
    <glyph glyph-name="udieresis" unicode="&#xfc;" horiz-adv-x="524" 
d="M195 -10q-67 0 -96.5 37t-29.5 121v228q0 20 -13 20l-36 -2v26h135v-272q0 -70 12.5 -97.5t48.5 -27.5q57 0 94 44t42 119l1 189q0 21 -12 21l-47 -2v26h146v-377q0 -19 13 -19l36 2v-26h-142q5 13 5 72v13q-44 -95 -157 -95zM336 547q-24 0 -39 13.5t-15 34.5t15.5 35
t38.5 14q22 0 38 -14t16 -35t-15 -34.5t-39 -13.5zM141 547q-24 0 -39 13.5t-15 34.5t15.5 35t38.5 14q22 0 38 -14t16 -35t-15 -34.5t-39 -13.5z" />
    <glyph glyph-name="yacute" unicode="&#xfd;" horiz-adv-x="485" 
d="M85 -239q-28 0 -46 13t-20 36q0 24 11 37.5t28 13.5q24 0 38 -24q8 -12 14 -16q6 -2 11 -2q28 0 46 46l58 139l-173 379q-6 13 -16 13l-49 -2v26h219v-26l-45 2q-7 0 -11 -5.5t-1 -11.5l122 -268l113 270q1 1 1 6q0 9 -11 9l-47 -2v26h155v-26l-43 2q-16 0 -25 -19
l-211 -509q-24 -59 -51 -83t-67 -24zM201 493q-13 0 -13 8q0 3 18 23l95 104q15 16 21 21q4 4 15 4q16 0 36.5 -10t20.5 -16t-10 -13l-163 -112q-12 -7 -20 -9z" />
    <glyph glyph-name="thorn" unicode="&#xfe;" horiz-adv-x="494" 
d="M24 -239v26l32 -2q13 1 13 20v881q0 20 -13 20l-36 -2v26h135v-390q30 90 132 90q172 0 172 -221q0 -219 -190 -219q-85 0 -114 53v-238q0 -20 13 -20l62 2v-26h-206zM269 17q37 0 60 18q39 31 39 174q0 78 -7 116q-7 41 -27.5 59.5t-57.5 18.5q-56 0 -87.5 -48
t-31.5 -129v-42q0 -167 112 -167z" />
    <glyph glyph-name="ydieresis" unicode="&#xff;" horiz-adv-x="485" 
d="M85 -239q-28 0 -46 13t-20 36q0 24 11 37.5t28 13.5q24 0 38 -24q8 -12 14 -16q6 -2 11 -2q28 0 46 46l58 139l-173 379q-6 13 -16 13l-49 -2v26h219v-26l-45 2q-7 0 -11 -5.5t-1 -11.5l122 -268l113 270q1 1 1 6q0 9 -11 9l-47 -2v26h155v-26l-43 2q-16 0 -25 -19
l-211 -509q-24 -59 -51 -83t-67 -24zM359 547q-24 0 -39 13.5t-15 34.5t15.5 35t38.5 14q22 0 38 -14t16 -35t-15 -34.5t-39 -13.5zM164 547q-24 0 -39 13.5t-15 34.5t15.5 35t38.5 14q22 0 38 -14t16 -35t-15 -34.5t-39 -13.5z" />
    <glyph glyph-name="Amacron" unicode="&#x100;" horiz-adv-x="601" 
d="M-20 0v29l26 -2h4q20 0 33 19q16 23 30 58l209 503h26l211 -505q13 -35 29 -57q14 -18 35 -18h5l33 2v-29h-265v29l49 -2q30 -3 30 24q0 18 -10 39l-49 118h-233l-46 -112q-14 -33 -14 -50q0 -21 22 -20l48 3v-29h-173zM177 706v40h239v-40h-239zM155 236h209l-105 252z
" />
    <glyph glyph-name="amacron" unicode="&#x101;" horiz-adv-x="450" 
d="M155 -10q-128 0 -128 113q0 77 64.5 113.5t202.5 36.5v63q0 47 -22 67t-71 20q-76 0 -76 -42q0 -6 5 -18q4 -9 4 -20q0 -34 -39 -34q-21 0 -32.5 13t-11.5 34q0 42 44 68t118 26q167 0 167 -141v-246q0 -19 13 -19l37 2v-26h-142q4 17 4 37l2 39q-41 -86 -139 -86z
M185 26q44 0 75 39t34 97v64q-94 0 -135 -27t-41 -88q0 -45 16.5 -66t50.5 -19zM100 567v40h239v-40h-239z" />
    <glyph glyph-name="Abreve" unicode="&#x102;" horiz-adv-x="601" 
d="M-20 0v29l26 -2h4q20 0 33 19q16 23 30 58l209 503h26l211 -505q13 -35 29 -57q14 -18 35 -18h5l33 2v-29h-265v29l49 -2q30 -3 30 24q0 18 -10 39l-49 118h-233l-46 -112q-14 -33 -14 -50q0 -21 22 -20l48 3v-29h-173zM296 667q-58 0 -93 33t-42 91h28q8 -33 36.5 -53.5
t70.5 -20.5q40 0 69.5 21t38.5 53h28q-7 -58 -42.5 -91t-93.5 -33zM155 236h209l-105 252z" />
    <glyph glyph-name="abreve" unicode="&#x103;" horiz-adv-x="450" 
d="M155 -10q-128 0 -128 113q0 77 64.5 113.5t202.5 36.5v63q0 47 -22 67t-71 20q-76 0 -76 -42q0 -6 5 -18q4 -9 4 -20q0 -34 -39 -34q-21 0 -32.5 13t-11.5 34q0 42 44 68t118 26q167 0 167 -141v-246q0 -19 13 -19l37 2v-26h-142q4 17 4 37l2 39q-41 -86 -139 -86z
M185 26q44 0 75 39t34 97v64q-94 0 -135 -27t-41 -88q0 -45 16.5 -66t50.5 -19zM221 518q-58 0 -93 33t-42 91h28q8 -33 36.5 -53.5t70.5 -20.5q40 0 69.5 21t38.5 53h28q-7 -58 -42.5 -91t-93.5 -33z" />
    <glyph glyph-name="Aogonek" unicode="&#x104;" horiz-adv-x="601" 
d="M-20 0v29l26 -2h4q20 0 33 19q16 23 30 58l209 503h26l211 -505q13 -35 29 -57q14 -18 35 -18h5l33 2v-29h-265v29l49 -2q30 -3 30 24q0 18 -10 39l-49 118h-233l-46 -112q-14 -33 -14 -50q0 -21 22 -20l48 3v-29h-173zM508 -159q-31 0 -52.5 19.5t-21.5 52.5
q0 66 75 101h28q-51 -24 -51 -76q0 -25 15 -39.5t43 -14.5q35 0 70 29l12 -12q-51 -60 -118 -60zM155 236h209l-105 252z" />
    <glyph glyph-name="aogonek" unicode="&#x105;" horiz-adv-x="450" 
d="M155 -10q-128 0 -128 113q0 77 64.5 113.5t202.5 36.5v63q0 47 -22 67t-71 20q-76 0 -76 -42q0 -6 5 -18q4 -9 4 -20q0 -34 -39 -34q-21 0 -32.5 13t-11.5 34q0 42 44 68t118 26q167 0 167 -141v-246q0 -19 13 -19l37 2v-26h-142q4 17 4 37l2 39q-41 -86 -139 -86z
M185 26q44 0 75 39t34 97v64q-94 0 -135 -27t-41 -88q0 -45 16.5 -66t50.5 -19zM352 -159q-31 0 -52.5 19.5t-21.5 52.5q0 66 75 101h28q-51 -24 -51 -76q0 -25 15 -39.5t43 -14.5q35 0 70 29l12 -12q-51 -60 -118 -60z" />
    <glyph glyph-name="Cacute" unicode="&#x106;" horiz-adv-x="607" 
d="M340 -10q-91 0 -156 37q-139 77 -139 268q0 147 79.5 229.5t220.5 82.5q50 0 122 -24q52 -19 86 -19q-4 -28 -4 -75q0 -26 1 -37q2 -18 3 -19h-24q-9 57 -64.5 103t-124.5 46q-89 0 -141 -78.5t-52 -208.5q0 -121 54.5 -199.5t143.5 -78.5q69 0 122 42.5t67 107.5h28
q-6 -47 -6 -85q0 -29 3 -47h-6q-25 0 -80 -18q-81 -27 -133 -27zM267 666q-13 0 -13 8q0 4 18 23l95 104q15 17 21 21q4 4 15 4q16 0 36.5 -10t20.5 -16t-10 -13l-163 -112q-12 -9 -20 -9z" />
    <glyph glyph-name="cacute" unicode="&#x107;" horiz-adv-x="425" 
d="M237 -10q-94 0 -147.5 57.5t-53.5 158.5q0 100 53.5 162t142.5 62q42 0 77 -13q36 -14 57 -37.5t21 -51.5q0 -22 -12 -36t-36 -14q-35 0 -35 30q0 9 4 20q5 13 5 23q0 24 -22.5 38t-55.5 14q-53 0 -79.5 -43.5t-26.5 -142.5q0 -200 113 -200q51 0 87.5 26.5t52.5 74.5
l25 -12q-42 -116 -170 -116zM174 493q-13 0 -13 8q0 3 18 23l95 104q15 16 21 21q4 4 15 4q16 0 36.5 -10t20.5 -16t-10 -13l-163 -112q-12 -7 -20 -9z" />
    <glyph glyph-name="Ccircumflex" unicode="&#x108;" horiz-adv-x="607" 
d="M340 -10q-91 0 -156 37q-139 77 -139 268q0 147 79.5 229.5t220.5 82.5q50 0 122 -24q52 -19 86 -19q-4 -28 -4 -75q0 -26 1 -37q2 -18 3 -19h-24q-9 57 -64.5 103t-124.5 46q-89 0 -141 -78.5t-52 -208.5q0 -121 54.5 -199.5t143.5 -78.5q69 0 122 42.5t67 107.5h28
q-6 -47 -6 -85q0 -29 3 -47h-6q-25 0 -80 -18q-81 -27 -133 -27zM181 666q-9 0 -9 8q0 2 8 10q10 10 17 15q31 27 54 50l23 24l24 24q26 25 30 25t30 -25l24 -24l23 -24q23 -23 54 -50q11 -7 18 -15q7 -7 7 -10q0 -8 -9 -8t-28 12l-119 74l-119 -74q-19 -12 -28 -12z" />
    <glyph glyph-name="ccircumflex" unicode="&#x109;" horiz-adv-x="425" 
d="M237 -10q-94 0 -147.5 57.5t-53.5 158.5q0 100 53.5 162t142.5 62q42 0 77 -13q36 -14 57 -37.5t21 -51.5q0 -22 -12 -36t-36 -14q-35 0 -35 30q0 9 4 20q5 13 5 23q0 24 -22.5 38t-55.5 14q-53 0 -79.5 -43.5t-26.5 -142.5q0 -200 113 -200q51 0 87.5 26.5t52.5 74.5
l25 -12q-42 -116 -170 -116zM88 493q-9 0 -9 8q0 2 8 10q10 10 17 15q31 27 54 50l23 24l24 24q26 25 30 25t30 -25l24 -24l23 -24q23 -23 54 -50q10 -8 18 -15q7 -7 7 -10q0 -8 -9 -8q-8 0 -28 12l-119 74l-119 -74q-20 -12 -28 -12z" />
    <glyph glyph-name="Cdotaccent" unicode="&#x10a;" horiz-adv-x="607" 
d="M340 -10q-91 0 -156 37q-139 77 -139 268q0 147 79.5 229.5t220.5 82.5q50 0 122 -24q52 -19 86 -19q-4 -28 -4 -75q0 -26 1 -37q2 -18 3 -19h-24q-9 57 -64.5 103t-124.5 46q-89 0 -141 -78.5t-52 -208.5q0 -121 54.5 -199.5t143.5 -78.5q69 0 122 42.5t67 107.5h28
q-6 -47 -6 -85q0 -29 3 -47h-6q-25 0 -80 -18q-81 -27 -133 -27zM328 696q-24 0 -39 13.5t-15 34.5t15.5 35t38.5 14q22 0 38 -14t16 -35t-15 -34.5t-39 -13.5z" />
    <glyph glyph-name="cdotaccent" unicode="&#x10b;" horiz-adv-x="425" 
d="M237 -10q-94 0 -147.5 57.5t-53.5 158.5q0 100 53.5 162t142.5 62q42 0 77 -13q36 -14 57 -37.5t21 -51.5q0 -22 -12 -36t-36 -14q-35 0 -35 30q0 9 4 20q5 13 5 23q0 24 -22.5 38t-55.5 14q-53 0 -79.5 -43.5t-26.5 -142.5q0 -200 113 -200q51 0 87.5 26.5t52.5 74.5
l25 -12q-42 -116 -170 -116zM235 547q-24 0 -39 13.5t-15 34.5t15.5 35t38.5 14q22 0 38 -14t16 -35t-15 -34.5t-39 -13.5z" />
    <glyph glyph-name="Ccaron" unicode="&#x10c;" horiz-adv-x="607" 
d="M340 -10q-91 0 -156 37q-139 77 -139 268q0 147 79.5 229.5t220.5 82.5q50 0 122 -24q52 -19 86 -19q-4 -28 -4 -75q0 -26 1 -37q2 -18 3 -19h-24q-9 57 -64.5 103t-124.5 46q-89 0 -141 -78.5t-52 -208.5q0 -121 54.5 -199.5t143.5 -78.5q69 0 122 42.5t67 107.5h28
q-6 -47 -6 -85q0 -29 3 -47h-6q-25 0 -80 -18q-81 -27 -133 -27zM328 668q-4 0 -30 25l-24 24l-23 24q-23 23 -54 50q-7 5 -17 15q-8 8 -8 10q0 8 9 8t28 -12l119 -74l119 74q19 12 28 12t9 -8q0 -3 -7 -10q-7 -8 -18 -15q-31 -27 -54 -50l-23 -24l-24 -24q-26 -25 -30 -25z
" />
    <glyph glyph-name="ccaron" unicode="&#x10d;" horiz-adv-x="425" 
d="M237 -10q-94 0 -147.5 57.5t-53.5 158.5q0 100 53.5 162t142.5 62q42 0 77 -13q36 -14 57 -37.5t21 -51.5q0 -22 -12 -36t-36 -14q-35 0 -35 30q0 9 4 20q5 13 5 23q0 24 -22.5 38t-55.5 14q-53 0 -79.5 -43.5t-26.5 -142.5q0 -200 113 -200q51 0 87.5 26.5t52.5 74.5
l25 -12q-42 -116 -170 -116zM235 501q-4 0 -30 25l-24 24l-23 24q-23 23 -54 50q-7 5 -17 15q-8 8 -8 10q0 8 9 8q8 0 28 -12l119 -74l119 74q20 12 28 12q9 0 9 -8q0 -3 -7 -10q-8 -7 -18 -15q-31 -27 -54 -50l-23 -24l-24 -24q-26 -25 -30 -25z" />
    <glyph glyph-name="Dcaron" unicode="&#x10e;" horiz-adv-x="623" 
d="M50 0v29l43 -2q15 0 15 22v499q0 21 -19 21l-39 -2v30h225q162 0 237.5 -70.5t75.5 -227.5q0 -299 -301 -299h-237zM213 28h45q84 0 134 27q49 26 71.5 84.5t22.5 158.5q0 101 -22 158q-22 59 -72 86t-134 27h-45q-12 0 -12 -13v-515q0 -13 12 -13zM317 668q-4 0 -30 25
l-24 24l-23 24q-23 23 -54 50q-7 5 -17 15q-8 8 -8 10q0 8 9 8q8 0 28 -12l119 -74l119 74q20 12 28 12q9 0 9 -8q0 -3 -7 -10q-8 -8 -18 -15q-31 -27 -54 -50l-23 -24l-24 -24q-26 -25 -30 -25z" />
    <glyph glyph-name="dcaron" unicode="&#x10f;" horiz-adv-x="496" 
d="M225 -10q-101 0 -145.5 53t-44.5 166q0 221 189 221q45 0 75 -22.5t40 -59.5v339q0 20 -13 20l-46 -2v25h146v-687q0 -19 13 -19l37 2v-26h-144q2 10 2 16v22q0 15 1 20t1 9q-25 -77 -111 -77zM225 17q60 0 86 39.5t26 127.5v42q0 177 -113 177q-52 0 -74.5 -48
t-22.5 -146q0 -73 9 -114q8 -41 29 -59.5t60 -18.5zM481 564l-16 13q17 12 28.5 29.5t11.5 30.5q0 19 -18 19q-12 0 -21 10.5t-9 23.5q0 18 11.5 30.5t31.5 12.5q24 0 39.5 -18.5t15.5 -43.5q0 -33 -21 -62t-53 -45z" />
    <glyph glyph-name="Dcroat" unicode="&#x110;" horiz-adv-x="623" 
d="M50 0v29l43 -2q15 0 15 22v499q0 21 -19 21l-39 -2v30h225q162 0 237.5 -70.5t75.5 -227.5q0 -299 -301 -299h-237zM213 28h45q84 0 134 27q49 26 71.5 84.5t22.5 158.5q0 101 -22 158q-22 59 -72 86t-134 27h-45q-12 0 -12 -13v-515q0 -13 12 -13zM31 280v35h366v-35
h-366z" />
    <glyph glyph-name="dcroat" unicode="&#x111;" horiz-adv-x="496" 
d="M225 -10q-101 0 -145.5 53t-44.5 166q0 221 189 221q45 0 75 -22.5t40 -59.5v339q0 20 -13 20l-46 -2v25h146v-687q0 -19 13 -19l37 2v-26h-144q2 10 2 16v22q0 15 1 20t1 9q-25 -77 -111 -77zM225 17q60 0 86 39.5t26 127.5v42q0 177 -113 177q-52 0 -74.5 -48
t-22.5 -146q0 -73 9 -114q8 -41 29 -59.5t60 -18.5zM236 549v35h248v-35h-248z" />
    <glyph glyph-name="Emacron" unicode="&#x112;" horiz-adv-x="563" 
d="M519 -3q-23 3 -88 3h-381v30l40 -3q18 0 18 22v499q0 9 -5.5 15.5t-14.5 5.5l-38 -2v30h422q15 0 17 1v-155h-27q0 67 -33.5 96.5t-108.5 29.5h-107q-12 0 -12 -14v-230h94q34 0 55 27t21 74h27v-231h-27q0 44 -22.5 73t-53.5 29h-94v-256q0 -13 12 -13h140
q68 0 103.5 39t35.5 112h27v-182zM175 706v40h239v-40h-239z" />
    <glyph glyph-name="emacron" unicode="&#x113;" horiz-adv-x="449" 
d="M238 -10q-203 0 -203 219q0 109 51 165t150 56q79 0 127.5 -51t50.5 -138v-29h-288q0 -188 126 -189q48 0 83 24t52 63l23 -17q-20 -47 -67 -75t-105 -28zM127 237h182q20 0 20 33q0 69 -21.5 101t-71.5 32q-54 0 -81.5 -44.5t-27.5 -121.5zM116 567v40h239v-40h-239z
" />
    <glyph glyph-name="Ebreve" unicode="&#x114;" horiz-adv-x="563" 
d="M519 -3q-23 3 -88 3h-381v30l40 -3q18 0 18 22v499q0 9 -5.5 15.5t-14.5 5.5l-38 -2v30h422q15 0 17 1v-155h-27q0 67 -33.5 96.5t-108.5 29.5h-107q-12 0 -12 -14v-230h94q34 0 55 27t21 74h27v-231h-27q0 44 -22.5 73t-53.5 29h-94v-256q0 -13 12 -13h140
q68 0 103.5 39t35.5 112h27v-182zM294 667q-58 0 -93 33t-42 91h28q8 -33 36.5 -53.5t70.5 -20.5q40 0 69.5 21t38.5 53h28q-7 -58 -42.5 -91t-93.5 -33z" />
    <glyph glyph-name="ebreve" unicode="&#x115;" horiz-adv-x="449" 
d="M238 -10q-203 0 -203 219q0 109 51 165t150 56q79 0 127.5 -51t50.5 -138v-29h-288q0 -188 126 -189q48 0 83 24t52 63l23 -17q-20 -47 -67 -75t-105 -28zM127 237h182q20 0 20 33q0 69 -21.5 101t-71.5 32q-54 0 -81.5 -44.5t-27.5 -121.5zM237 518q-58 0 -93 33t-42 91
h28q8 -33 36.5 -53.5t70.5 -20.5q40 0 69.5 21t38.5 53h28q-7 -58 -42.5 -91t-93.5 -33z" />
    <glyph glyph-name="Edotaccent" unicode="&#x116;" horiz-adv-x="563" 
d="M519 -3q-23 3 -88 3h-381v30l40 -3q18 0 18 22v499q0 9 -5.5 15.5t-14.5 5.5l-38 -2v30h422q15 0 17 1v-155h-27q0 67 -33.5 96.5t-108.5 29.5h-107q-12 0 -12 -14v-230h94q34 0 55 27t21 74h27v-231h-27q0 44 -22.5 73t-53.5 29h-94v-256q0 -13 12 -13h140
q68 0 103.5 39t35.5 112h27v-182zM294 696q-24 0 -39 13.5t-15 34.5t15.5 35t38.5 14q22 0 38 -14t16 -35t-15 -34.5t-39 -13.5z" />
    <glyph glyph-name="edotaccent" unicode="&#x117;" horiz-adv-x="449" 
d="M238 -10q-203 0 -203 219q0 109 51 165t150 56q79 0 127.5 -51t50.5 -138v-29h-288q0 -188 126 -189q48 0 83 24t52 63l23 -17q-20 -47 -67 -75t-105 -28zM127 237h182q20 0 20 33q0 69 -21.5 101t-71.5 32q-54 0 -81.5 -44.5t-27.5 -121.5zM237 547q-24 0 -39 13.5
t-15 34.5t15.5 35t38.5 14q22 0 38 -14t16 -35t-15 -34.5t-39 -13.5z" />
    <glyph glyph-name="Eogonek" unicode="&#x118;" horiz-adv-x="563" 
d="M519 -3q-23 3 -88 3h-381v30l40 -3q18 0 18 22v499q0 9 -5.5 15.5t-14.5 5.5l-38 -2v30h422q15 0 17 1v-155h-27q0 67 -33.5 96.5t-108.5 29.5h-107q-12 0 -12 -14v-230h94q34 0 55 27t21 74h27v-231h-27q0 44 -22.5 73t-53.5 29h-94v-256q0 -13 12 -13h140
q68 0 103.5 39t35.5 112h27v-182zM438 -159q-31 0 -52.5 19.5t-21.5 52.5q0 66 75 101h28q-51 -24 -51 -76q0 -25 15 -39.5t43 -14.5q35 0 70 29l12 -12q-51 -60 -118 -60z" />
    <glyph glyph-name="eogonek" unicode="&#x119;" horiz-adv-x="449" 
d="M238 -10q-203 0 -203 219q0 109 51 165t150 56q79 0 127.5 -51t50.5 -138v-29h-288q0 -188 126 -189q48 0 83 24t52 63l23 -17q-20 -47 -67 -75t-105 -28zM127 237h182q20 0 20 33q0 69 -21.5 101t-71.5 32q-54 0 -81.5 -44.5t-27.5 -121.5zM307 -159q-31 0 -52.5 19.5
t-21.5 52.5q0 66 75 101h28q-51 -24 -51 -76q0 -25 15 -39.5t43 -14.5q35 0 70 29l12 -12q-51 -60 -118 -60z" />
    <glyph glyph-name="Ecaron" unicode="&#x11a;" horiz-adv-x="563" 
d="M519 -3q-23 3 -88 3h-381v30l40 -3q18 0 18 22v499q0 9 -5.5 15.5t-14.5 5.5l-38 -2v30h422q15 0 17 1v-155h-27q0 67 -33.5 96.5t-108.5 29.5h-107q-12 0 -12 -14v-230h94q34 0 55 27t21 74h27v-231h-27q0 44 -22.5 73t-53.5 29h-94v-256q0 -13 12 -13h140
q68 0 103.5 39t35.5 112h27v-182zM294 668q-4 0 -30 25l-24 24l-23 24q-23 23 -54 50q-7 5 -17 15q-8 8 -8 10q0 8 9 8t28 -12l119 -74l119 74q20 12 28 12q9 0 9 -8q0 -3 -7 -10q-7 -8 -18 -15q-31 -27 -54 -50l-23 -24l-24 -24q-26 -25 -30 -25z" />
    <glyph glyph-name="ecaron" unicode="&#x11b;" horiz-adv-x="449" 
d="M238 -10q-203 0 -203 219q0 109 51 165t150 56q79 0 127.5 -51t50.5 -138v-29h-288q0 -188 126 -189q48 0 83 24t52 63l23 -17q-20 -47 -67 -75t-105 -28zM127 237h182q20 0 20 33q0 69 -21.5 101t-71.5 32q-54 0 -81.5 -44.5t-27.5 -121.5zM237 501q-4 0 -30 25l-24 24
l-23 24q-23 23 -54 50q-7 5 -17 15q-8 8 -8 10q0 8 9 8q8 0 28 -12l119 -74l119 74q20 12 28 12q9 0 9 -8q0 -3 -7 -10q-8 -7 -18 -15q-31 -27 -54 -50l-23 -24l-24 -24q-26 -25 -30 -25z" />
    <glyph glyph-name="Gcircumflex" unicode="&#x11c;" horiz-adv-x="646" 
d="M335 -10q-135 0 -212.5 78.5t-77.5 226.5q0 153 77 232.5t221 79.5q75 0 153 -29q41 -16 57 -14q-4 -17 -4 -69q0 -19 4 -62h-40q1 3 1 15q0 63 -44.5 98.5t-129.5 35.5q-89 0 -141 -74.5t-52 -212.5q2 -278 198 -278q46 0 73.5 9.5t54.5 36.5v160q0 11 -4.5 17t-14.5 5
l-59 -2v29h231v-29l-41 2q-19 0 -19 -21v-189q-3 1 -13 1q-21 0 -63 -16q-86 -30 -155 -30zM183 666q-9 0 -9 8q0 2 8 10q10 10 17 15q31 27 54 50l23 24l24 24q26 25 30 25t30 -25l24 -24l23 -24q23 -23 54 -50q11 -7 18 -15q7 -7 7 -10q0 -8 -9 -8t-28 12l-119 74
l-119 -74q-20 -12 -28 -12z" />
    <glyph glyph-name="gcircumflex" unicode="&#x11d;" horiz-adv-x="460" 
d="M215 -245q-88 0 -135.5 34t-47.5 99q0 76 90 117q-74 14 -74 66q0 18 10 31.5t37 35.5l27 22q-65 44 -65 120q0 67 47.5 108.5t122.5 41.5q82 0 126.5 -40.5t44.5 -109.5q0 -66 -47 -107.5t-124 -41.5q-42 0 -78 15q-34 -21 -34 -44q0 -37 56 -37h133q76 0 112.5 -32.5
t36.5 -106.5q0 -77 -65.5 -124t-172.5 -47zM214 -219q82 0 127.5 37.5t45.5 100.5q0 81 -98 81h-100q-42 0 -75 -34t-33 -76q0 -50 34.5 -79.5t98.5 -29.5zM227 154q47 0 64.5 28t17.5 98q0 67 -18.5 95t-63.5 28q-46 0 -63.5 -26.5t-17.5 -96.5q0 -69 15.5 -97.5
t65.5 -28.5zM116 503q-7 0 -7 8q0 3 53 70.5t60 67.5t60 -67.5t53 -70.5q0 -8 -7 -8q-6 0 -23 12l-83 64l-83 -64q-16 -12 -23 -12zM345 388l-37 29q31 -12 53 -3.5t22 34.5q0 11 -14 20q-15 9 -15 25q0 39 41 39q45 0 45 -51q0 -82 -95 -93z" />
    <glyph glyph-name="Gbreve" unicode="&#x11e;" horiz-adv-x="646" 
d="M335 -10q-135 0 -212.5 78.5t-77.5 226.5q0 153 77 232.5t221 79.5q75 0 153 -29q41 -16 57 -14q-4 -17 -4 -69q0 -19 4 -62h-40q1 3 1 15q0 63 -44.5 98.5t-129.5 35.5q-89 0 -141 -74.5t-52 -212.5q2 -278 198 -278q46 0 73.5 9.5t54.5 36.5v160q0 11 -4.5 17t-14.5 5
l-59 -2v29h231v-29l-41 2q-19 0 -19 -21v-189q-3 1 -13 1q-21 0 -63 -16q-86 -30 -155 -30zM330 667q-58 0 -93 33t-42 91h28q8 -33 36.5 -53.5t70.5 -20.5q40 0 69.5 21t38.5 53h28q-7 -58 -42.5 -91t-93.5 -33z" />
    <glyph glyph-name="gbreve" unicode="&#x11f;" horiz-adv-x="460" 
d="M215 -245q-88 0 -135.5 34t-47.5 99q0 76 90 117q-74 14 -74 66q0 18 10 31.5t37 35.5l27 22q-65 44 -65 120q0 67 47.5 108.5t122.5 41.5q82 0 126.5 -40.5t44.5 -109.5q0 -66 -47 -107.5t-124 -41.5q-42 0 -78 15q-34 -21 -34 -44q0 -37 56 -37h133q76 0 112.5 -32.5
t36.5 -106.5q0 -77 -65.5 -124t-172.5 -47zM214 -219q82 0 127.5 37.5t45.5 100.5q0 81 -98 81h-100q-42 0 -75 -34t-33 -76q0 -50 34.5 -79.5t98.5 -29.5zM227 154q47 0 64.5 28t17.5 98q0 67 -18.5 95t-63.5 28q-46 0 -63.5 -26.5t-17.5 -96.5q0 -69 15.5 -97.5
t65.5 -28.5zM345 388l-37 29q31 -12 53 -3.5t22 34.5q0 11 -14 20q-15 9 -15 25q0 39 41 39q45 0 45 -51q0 -82 -95 -93zM227 518q-58 0 -93 33t-42 91h28q8 -33 36.5 -53.5t70.5 -20.5q40 0 69.5 21t38.5 53h28q-7 -58 -42.5 -91t-93.5 -33z" />
    <glyph glyph-name="Gdotaccent" unicode="&#x120;" horiz-adv-x="646" 
d="M335 -10q-135 0 -212.5 78.5t-77.5 226.5q0 153 77 232.5t221 79.5q75 0 153 -29q41 -16 57 -14q-4 -17 -4 -69q0 -19 4 -62h-40q1 3 1 15q0 63 -44.5 98.5t-129.5 35.5q-89 0 -141 -74.5t-52 -212.5q2 -278 198 -278q46 0 73.5 9.5t54.5 36.5v160q0 11 -4.5 17t-14.5 5
l-59 -2v29h231v-29l-41 2q-19 0 -19 -21v-189q-3 1 -13 1q-21 0 -63 -16q-86 -30 -155 -30zM330 696q-24 0 -39 13.5t-15 34.5t15.5 35t38.5 14q22 0 38 -14t16 -35t-15 -34.5t-39 -13.5z" />
    <glyph glyph-name="gdotaccent" unicode="&#x121;" horiz-adv-x="460" 
d="M215 -245q-88 0 -135.5 34t-47.5 99q0 76 90 117q-74 14 -74 66q0 18 10 31.5t37 35.5l27 22q-65 44 -65 120q0 67 47.5 108.5t122.5 41.5q82 0 126.5 -40.5t44.5 -109.5q0 -66 -47 -107.5t-124 -41.5q-42 0 -78 15q-34 -21 -34 -44q0 -37 56 -37h133q76 0 112.5 -32.5
t36.5 -106.5q0 -77 -65.5 -124t-172.5 -47zM214 -219q82 0 127.5 37.5t45.5 100.5q0 81 -98 81h-100q-42 0 -75 -34t-33 -76q0 -50 34.5 -79.5t98.5 -29.5zM227 154q47 0 64.5 28t17.5 98q0 67 -18.5 95t-63.5 28q-46 0 -63.5 -26.5t-17.5 -96.5q0 -69 15.5 -97.5
t65.5 -28.5zM345 388l-37 29q31 -12 53 -3.5t22 34.5q0 11 -14 20q-15 9 -15 25q0 39 41 39q45 0 45 -51q0 -82 -95 -93zM227 547q-24 0 -39 13.5t-15 34.5t15.5 35t38.5 14q22 0 38 -14t16 -35t-15 -34.5t-39 -13.5z" />
    <glyph glyph-name="uni0122" unicode="&#x122;" horiz-adv-x="646" 
d="M335 -10q-135 0 -212.5 78.5t-77.5 226.5q0 153 77 232.5t221 79.5q75 0 153 -29q41 -16 57 -14q-4 -17 -4 -69q0 -19 4 -62h-40q1 3 1 15q0 63 -44.5 98.5t-129.5 35.5q-89 0 -141 -74.5t-52 -212.5q2 -278 198 -278q46 0 73.5 9.5t54.5 36.5v160q0 11 -4.5 17t-14.5 5
l-59 -2v29h231v-29l-41 2q-19 0 -19 -21v-189q-3 1 -13 1q-21 0 -63 -16q-86 -30 -155 -30zM297 -213l-16 13q20 11 35 29t15 31q0 29 -28 29q-12 0 -21 10.5t-9 23.5q0 18 13 30.5t35 12.5q26 0 43 -18t17 -44q0 -37 -23.5 -69t-60.5 -48z" />
    <glyph glyph-name="uni0123" unicode="&#x123;" horiz-adv-x="460" 
d="M215 -245q-88 0 -135.5 34t-47.5 99q0 76 90 117q-74 14 -74 66q0 18 10 31.5t37 35.5l27 22q-65 44 -65 120q0 67 47.5 108.5t122.5 41.5q82 0 126.5 -40.5t44.5 -109.5q0 -66 -47 -107.5t-124 -41.5q-42 0 -78 15q-34 -21 -34 -44q0 -37 56 -37h133q76 0 112.5 -32.5
t36.5 -106.5q0 -77 -65.5 -124t-172.5 -47zM214 -219q82 0 127.5 37.5t45.5 100.5q0 81 -98 81h-100q-42 0 -75 -34t-33 -76q0 -50 34.5 -79.5t98.5 -29.5zM227 154q47 0 64.5 28t17.5 98q0 67 -18.5 95t-63.5 28q-46 0 -63.5 -26.5t-17.5 -96.5q0 -69 15.5 -97.5
t65.5 -28.5zM345 388l-37 29q31 -12 53 -3.5t22 34.5q0 11 -14 20q-15 9 -15 25q0 39 41 39q45 0 45 -51q0 -82 -95 -93zM231 518q-26 0 -43 18t-17 44q0 37 23.5 69t60.5 48l16 -13q-20 -11 -35 -29t-15 -31q0 -29 28 -29q12 0 21 -10.5t9 -23.5q0 -18 -13 -30.5t-35 -12.5
z" />
    <glyph glyph-name="Hcircumflex" unicode="&#x124;" horiz-adv-x="696" 
d="M50 0v29l39 -2q19 0 19 22v499q0 11 -4.5 16.5t-14.5 4.5l-39 -2v30h220v-30l-49 2h-2q-18 0 -18 -21v-226h294v226q0 11 -4.5 16.5t-14.5 4.5l-49 -2v30h219v-30l-39 2h-2q-17 0 -17 -21v-499q0 -22 19 -22l39 2v-29h-219v29l49 -2q19 0 19 22v245h-294v-245
q0 -22 20 -22l49 2v-29h-220zM199 666q-9 0 -9 8q0 2 8 10q10 10 17 15q31 27 54 50l23 24l24 24q26 25 30 25t30 -25l24 -24l23 -24q23 -23 54 -50q11 -7 18 -15q7 -7 7 -10q0 -8 -9 -8q-8 0 -28 12l-119 74l-119 -74q-19 -12 -28 -12z" />
    <glyph glyph-name="hcircumflex" unicode="&#x125;" horiz-adv-x="525" 
d="M35 0v26l37 -2q13 3 13 19v643q0 21 -13 21l-37 -2v25h136v-400q21 48 60 74t90 26q71 0 102.5 -33.5t31.5 -108.5v-245q0 -19 13 -19l37 2v-26h-195v26l46 -2q13 3 13 19v227q0 78 -14 104q-15 24 -53 24q-57 0 -92.5 -48.5t-38.5 -130.5v-176q0 -19 13 -19l46 2v-26
h-195zM-22 746q-9 0 -9 8q0 3 7 10q8 8 18 15q31 27 54 50l23 24l24 24q26 25 30 25t30 -25l24 -24l23 -24q23 -23 54 -50q10 -7 18 -15q7 -7 7 -10q0 -8 -9 -8q-8 0 -28 12l-119 74l-119 -74q-19 -12 -28 -12z" />
    <glyph glyph-name="Hbar" unicode="&#x126;" horiz-adv-x="696" 
d="M50 0v29l39 -2q19 0 19 22v499q0 11 -4.5 16.5t-14.5 4.5l-39 -2v30h220v-30l-49 2h-2q-18 0 -18 -21v-226h294v226q0 11 -4.5 16.5t-14.5 4.5l-49 -2v30h219v-30l-39 2h-2q-17 0 -17 -21v-499q0 -22 19 -22l39 2v-29h-219v29l49 -2q19 0 19 22v245h-294v-245
q0 -22 20 -22l49 2v-29h-220zM55 418v35h584v-35h-584z" />
    <glyph glyph-name="hbar" unicode="&#x127;" horiz-adv-x="525" 
d="M35 0v26l37 -2q13 3 13 19v643q0 21 -13 21l-37 -2v25h136v-400q21 48 60 74t90 26q71 0 102.5 -33.5t31.5 -108.5v-245q0 -19 13 -19l37 2v-26h-195v26l46 -2q13 3 13 19v227q0 78 -14 104q-15 24 -53 24q-57 0 -92.5 -48.5t-38.5 -130.5v-176q0 -19 13 -19l46 2v-26
h-195zM29 525v35h248v-35h-248z" />
    <glyph glyph-name="Itilde" unicode="&#x128;" horiz-adv-x="310" 
d="M50 0v29l39 -2q19 0 19 22v499q0 9 -5 15.5t-14 5.5l-39 -2v30h210v-30l-39 2h-2q-18 0 -18 -21v-499q0 -22 20 -22l39 2v-29h-210zM241 675q-25 0 -88 22q-59 21 -81 21q-14 0 -23.5 -12t-9.5 -30h-20q0 37 18.5 64t45.5 27q25 0 88 -22q61 -21 81 -21q14 0 23.5 12
t9.5 30h20q0 -37 -18.5 -64t-45.5 -27z" />
    <glyph glyph-name="itilde" unicode="&#x129;" horiz-adv-x="255" 
d="M35 0v26l37 -2q13 0 13 19v333q0 17 -12 20l-37 -2v26h135v-377q0 -19 13 -19l36 2v-26h-185zM214 529q-25 0 -88 22q-58 21 -81 21q-14 0 -23.5 -12t-9.5 -30h-20q0 37 18.5 64t45.5 27q25 0 88 -22q62 -21 81 -21q14 0 23.5 12t9.5 30h20q0 -37 -18.5 -64t-45.5 -27z
" />
    <glyph glyph-name="Imacron" unicode="&#x12a;" horiz-adv-x="310" 
d="M50 0v29l39 -2q19 0 19 22v499q0 9 -5 15.5t-14 5.5l-39 -2v30h210v-30l-39 2h-2q-18 0 -18 -21v-499q0 -22 20 -22l39 2v-29h-210zM35 706v40h239v-40h-239z" />
    <glyph glyph-name="imacron" unicode="&#x12b;" horiz-adv-x="255" 
d="M35 0v26l37 -2q13 0 13 19v333q0 17 -12 20l-37 -2v26h135v-377q0 -19 13 -19l36 2v-26h-185zM6 567v40h239v-40h-239z" />
    <glyph glyph-name="Ibreve" unicode="&#x12c;" horiz-adv-x="310" 
d="M50 0v29l39 -2q19 0 19 22v499q0 9 -5 15.5t-14 5.5l-39 -2v30h210v-30l-39 2h-2q-18 0 -18 -21v-499q0 -22 20 -22l39 2v-29h-210zM154 667q-58 0 -93 33t-42 91h28q8 -33 36.5 -53.5t70.5 -20.5q40 0 69.5 21t38.5 53h28q-7 -58 -42.5 -91t-93.5 -33z" />
    <glyph glyph-name="ibreve" unicode="&#x12d;" horiz-adv-x="255" 
d="M35 0v26l37 -2q13 0 13 19v333q0 17 -12 20l-37 -2v26h135v-377q0 -19 13 -19l36 2v-26h-185zM127 518q-58 0 -93 33t-42 91h28q8 -33 36.5 -53.5t70.5 -20.5q40 0 69.5 21t38.5 53h28q-7 -58 -42.5 -91t-93.5 -33z" />
    <glyph glyph-name="Iogonek" unicode="&#x12e;" horiz-adv-x="310" 
d="M50 0v29l39 -2q19 0 19 22v499q0 9 -5 15.5t-14 5.5l-39 -2v30h210v-30l-39 2h-2q-18 0 -18 -21v-499q0 -22 20 -22l39 2v-29h-210zM163 -159q-31 0 -52.5 19.5t-21.5 52.5q0 66 75 101h28q-51 -24 -51 -76q0 -25 15 -39.5t43 -14.5q35 0 70 29l12 -12q-51 -60 -118 -60z
" />
    <glyph glyph-name="iogonek" unicode="&#x12f;" horiz-adv-x="255" 
d="M35 0v26l37 -2q13 0 13 19v333q0 17 -12 20l-37 -2v26h135v-377q0 -10 3 -15t10 -4l36 2v-26h-185zM121 548q-25 0 -39.5 12.5t-14.5 35.5q0 21 15 34t39 13t39.5 -13t15.5 -34q0 -23 -15 -35.5t-40 -12.5zM135 -159q-31 0 -52.5 19.5t-21.5 52.5q0 66 75 101h28
q-51 -24 -51 -76q0 -25 15 -39.5t43 -14.5q35 0 70 29l12 -12q-51 -60 -118 -60z" />
    <glyph glyph-name="Idotaccent" unicode="&#x130;" horiz-adv-x="310" 
d="M50 0v29l39 -2q19 0 19 22v499q0 9 -5 15.5t-14 5.5l-39 -2v30h210v-30l-39 2h-2q-18 0 -18 -21v-499q0 -22 20 -22l39 2v-29h-210zM154 696q-24 0 -39 13.5t-15 34.5t15.5 35t38.5 14q22 0 38 -14t16 -35t-15 -34.5t-39 -13.5z" />
    <glyph glyph-name="dotlessi" unicode="&#x131;" horiz-adv-x="255" 
d="M35 0v26l37 -2q13 0 13 19v333q0 17 -12 20l-37 -2v26h135v-377q0 -19 13 -19l36 2v-26h-185z" />
    <glyph glyph-name="IJ" unicode="&#x132;" horiz-adv-x="761" 
d="M50 0v29l39 -2q19 0 19 22v499q0 9 -5 15.5t-14 5.5l-39 -2v30h210v-30l-39 2h-2q-18 0 -18 -21v-499q0 -22 20 -22l39 2v-29h-210zM491 -10q-31 0 -81 9q-32 6 -41 6h-8q-21 0 -27 -6v173h36q0 -64 26.5 -110t78.5 -46q48 0 69 37t21 126v369q0 9 -5.5 15.5t-13.5 5.5
l-69 -2v30h239v-30l-38 2h-2q-18 0 -18 -20v-370q0 -189 -167 -189z" />
    <glyph glyph-name="ij" unicode="&#x133;" horiz-adv-x="506" 
d="M35 0v26l37 -2q13 0 13 19v333q0 17 -12 20l-37 -2v26h135v-377q0 -10 3 -15t10 -4l36 2v-26h-185zM121 548q-25 0 -39.5 12.5t-14.5 35.5q0 21 15 34t39 13t39.5 -13t15.5 -34q0 -23 -15 -35.5t-40 -12.5zM283 -243q-45 0 -73 19.5t-28 47.5q0 20 13 32t34 12
q35 0 35 -28q0 -6 -3 -16t-3 -15q0 -25 31 -25q58 0 53 83q-2 58 -2 74v435q0 20 -13 20l-41 -2v26h140v-424q0 -239 -143 -239zM378 548q-25 0 -39.5 12.5t-14.5 35.5q0 22 15 34.5t39 12.5t39.5 -13t15.5 -34q0 -23 -15 -35.5t-40 -12.5z" />
    <glyph glyph-name="Jcircumflex" unicode="&#x134;" horiz-adv-x="451" 
d="M181 -10q-31 0 -81 9q-32 6 -41 6h-8q-21 0 -27 -6v173h36q0 -64 26.5 -110t78.5 -46q48 0 69 37t21 126v369q0 9 -5.5 15.5t-13.5 5.5l-69 -2v30h239v-30l-38 2h-2q-18 0 -18 -20v-370q0 -189 -167 -189zM152 666q-9 0 -9 8q0 2 8 10q10 10 17 15q31 27 54 50l23 24
l24 24q26 25 30 25t30 -25l24 -24l23 -24q23 -23 54 -50q10 -7 18 -15q7 -7 7 -10q0 -8 -9 -8t-28 12l-119 74l-119 -74q-20 -12 -28 -12z" />
    <glyph glyph-name="jcircumflex" unicode="&#x135;" horiz-adv-x="251" 
d="M28 -243q-45 0 -73 19.5t-28 47.5q0 20 13 32t34 12q35 0 35 -28q0 -6 -3 -16t-3 -15q0 -25 31 -25q58 0 53 83q-2 58 -2 74v435q0 20 -13 20l-41 -2v26h140v-424q0 -239 -143 -239zM-20 493q-9 0 -9 8q0 3 7 10q8 7 18 15q31 27 54 50l23 24l24 24q26 25 30 25t30 -25
l24 -24l23 -24q23 -23 54 -50q10 -8 18 -15q7 -7 7 -10q0 -8 -9 -8q-8 0 -28 12l-119 74l-119 -74q-20 -12 -28 -12z" />
    <glyph glyph-name="uni0136" unicode="&#x136;" horiz-adv-x="617" 
d="M50 0v29l39 -2q19 0 19 22v499q0 10 -5 16t-14 5l-39 -2v30h220v-30l-49 2q-20 0 -20 -22v-269l215 255q17 20 17 27q0 9 -10 9l-42 -2v30h178v-30l-34 2q-31 1 -58 -29l-153 -175l239 -324q11 -14 24 -14q16 0 34 3v-30h-237v30l54 -3q17 0 17 11q0 6 -5 14l-183 247
l-56 -65v-185q0 -22 20 -22l49 2v-29h-220zM290 -213l-16 13q20 11 35 29t15 31q0 29 -28 29q-12 0 -21 10.5t-9 23.5q0 18 13 30.5t35 12.5q26 0 43 -18t17 -44q0 -37 -23.5 -69t-60.5 -48z" />
    <glyph glyph-name="uni0137" unicode="&#x137;" horiz-adv-x="511" 
d="M35 0v26l37 -2q13 3 13 19v643q0 21 -12 21l-37 -2v25h135v-493l163 140q6 6 6 13q0 9 -9 7l-43 -2v25h162v-25l-36 2q-14 0 -31 -14l-117 -100l175 -241q13 -18 27 -18l36 2v-26h-215v26l45 -2h2q7 0 9 4.5t-2 9.5l-139 192l-33 -28v-159q0 -19 13 -19l46 2v-26h-195z
M233 -213l-16 13q20 11 35 29t15 31q0 29 -28 29q-12 0 -21 10.5t-9 23.5q0 18 13 30.5t35 12.5q26 0 43 -18t17 -44q0 -37 -23.5 -69t-60.5 -48z" />
    <glyph glyph-name="kgreenlandic" unicode="&#x138;" horiz-adv-x="511" 
d="M35 0v26l37 -2q13 3 13 19v333q0 21 -12 21l-37 -2v25h135v-213l182 170q6 6 6 13q0 9 -9 7l-43 -2v25h162v-25l-36 2q-16 1 -31 -14l-136 -130l175 -211q13 -18 27 -18l36 2v-26h-215v26l45 -2h2q7 0 9 4.5t-2 9.5l-139 162l-33 -28v-129q0 -19 13 -19l46 2v-26h-195z
" />
    <glyph glyph-name="Lacute" unicode="&#x139;" horiz-adv-x="514" 
d="M492 -3q-18 3 -124 3h-318v30l43 -3q15 0 15 22v499q0 9 -5.5 15.5t-13.5 5.5l-39 -2v30h220v-30l-49 2h-2q-18 0 -18 -21v-507q0 -13 12 -13h113q69 0 104.5 36.5t35.5 106.5h26v-174zM89 666q-13 0 -13 8q0 4 18 23l95 104q15 17 21 21q4 4 15 4q16 0 36.5 -10
t20.5 -16t-10 -13l-163 -112q-12 -9 -20 -9z" />
    <glyph glyph-name="lacute" unicode="&#x13a;" horiz-adv-x="255" 
d="M35 0v26l37 -2q13 3 13 19v644q0 17 -12 21l-37 -2v25h135v-688q0 -19 13 -19l36 2v-26h-185zM65 761q-13 0 -13 8q0 3 18 23l95 104q15 16 21 21q4 4 15 4q16 0 36.5 -10t20.5 -16t-10 -13l-163 -112q-12 -9 -20 -9z" />
    <glyph glyph-name="uni013B" unicode="&#x13b;" horiz-adv-x="514" 
d="M492 -3q-18 3 -124 3h-318v30l43 -3q15 0 15 22v499q0 9 -5.5 15.5t-13.5 5.5l-39 -2v30h220v-30l-49 2h-2q-18 0 -18 -21v-507q0 -13 12 -13h113q69 0 104.5 36.5t35.5 106.5h26v-174zM237 -213l-16 13q20 11 35 29t15 31q0 29 -28 29q-12 0 -21 10.5t-9 23.5
q0 18 13 30.5t35 12.5q26 0 43 -18t17 -44q0 -37 -23.5 -69t-60.5 -48z" />
    <glyph glyph-name="uni013C" unicode="&#x13c;" horiz-adv-x="255" 
d="M35 0v26l37 -2q13 3 13 19v644q0 17 -12 21l-37 -2v25h135v-688q0 -19 13 -19l36 2v-26h-185zM103 -213l-16 13q20 11 35 29t15 31q0 29 -28 29q-12 0 -21 10.5t-9 23.5q0 18 13 30.5t35 12.5q26 0 43 -18t17 -44q0 -37 -23.5 -69t-60.5 -48z" />
    <glyph glyph-name="Lcaron" unicode="&#x13d;" horiz-adv-x="514" 
d="M492 -3q-18 3 -124 3h-318v30l43 -3q15 0 15 22v499q0 9 -5.5 15.5t-13.5 5.5l-39 -2v30h220v-30l-49 2h-2q-18 0 -18 -21v-507q0 -13 12 -13h113q69 0 104.5 36.5t35.5 106.5h26v-174zM401 442l-16 13q17 12 28.5 29.5t11.5 30.5q0 19 -18 19q-12 0 -21 10.5t-9 23.5
q0 18 11.5 30.5t31.5 12.5q24 0 39.5 -18.5t15.5 -43.5q0 -33 -21 -62t-53 -45z" />
    <glyph glyph-name="lcaron" unicode="&#x13e;" horiz-adv-x="255" 
d="M35 0v26l37 -2q13 3 13 19v644q0 17 -12 21l-37 -2v25h135v-688q0 -19 13 -19l36 2v-26h-185zM220 569l-16 13q17 12 28.5 29.5t11.5 30.5q0 19 -18 19q-12 0 -21 10.5t-9 23.5q0 18 11.5 30.5t31.5 12.5q24 0 39.5 -18.5t15.5 -43.5q0 -33 -21 -62t-53 -45z" />
    <glyph glyph-name="Ldot" unicode="&#x13f;" horiz-adv-x="514" 
d="M492 -3q-18 3 -124 3h-318v30l43 -3q15 0 15 22v499q0 9 -5.5 15.5t-13.5 5.5l-39 -2v30h220v-30l-49 2h-2q-18 0 -18 -21v-507q0 -13 12 -13h113q69 0 104.5 36.5t35.5 106.5h26v-174zM401 232q-28 0 -46.5 15.5t-18.5 41.5t18.5 42t46.5 16t46.5 -16t18.5 -42
t-18.5 -41.5t-46.5 -15.5z" />
    <glyph glyph-name="ldot" unicode="&#x140;" horiz-adv-x="259" 
d="M35 0v26l37 -2q13 3 13 19v644q0 17 -12 21l-37 -2v25h135v-688q0 -19 13 -19l36 2v-26h-185zM257 318q-24 0 -39 13.5t-15 34.5t15.5 35t38.5 14q22 0 38 -14t16 -35t-15 -34.5t-39 -13.5z" />
    <glyph glyph-name="Lslash" unicode="&#x141;" horiz-adv-x="514" 
d="M492 -3q-18 3 -124 3h-318v30l43 -3q15 0 15 22v499q0 9 -5.5 15.5t-13.5 5.5l-39 -2v30h220v-30l-49 2h-2q-18 0 -18 -21v-507q0 -13 12 -13h113q69 0 104.5 36.5t35.5 106.5h26v-174zM49 163v45l249 203v-47z" />
    <glyph glyph-name="lslash" unicode="&#x142;" horiz-adv-x="255" 
d="M35 0v26l37 -2q13 3 13 19v644q0 17 -12 21l-37 -2v25h135v-688q0 -19 13 -19l36 2v-26h-185zM29 269v45l206 165v-46z" />
    <glyph glyph-name="Nacute" unicode="&#x143;" horiz-adv-x="662" 
d="M529 -6l-391 531v-476q0 -22 19 -22l49 2v-29h-161v29l39 -2q20 0 20 22v499q0 9 -5.5 15.5t-14.5 5.5l-39 -2v30h155l325 -442v394q0 20 -17 20h-3l-49 -2v30h161v-30l-39 2h-2q-17 0 -17 -21v-554h-30zM273 666q-13 0 -13 8q0 4 18 23l95 104q15 17 21 21q4 4 15 4
q16 0 36.5 -10t20.5 -16t-10 -13l-163 -112q-12 -9 -20 -9z" />
    <glyph glyph-name="nacute" unicode="&#x144;" horiz-adv-x="525" 
d="M35 0v26l37 -2q13 3 13 19v333q0 17 -13 20l-37 -2v26h141q-5 -17 -5 -35v-55q21 48 60 74t90 26q71 0 102.5 -33.5t31.5 -108.5v-245q0 -19 13 -19l37 2v-26h-195v26l46 -2q13 3 13 19v227q0 72 -13.5 100t-53.5 28q-57 0 -92.5 -48.5t-38.5 -130.5v-176q0 -19 13 -19
l46 2v-26h-195zM219 493q-13 0 -13 8q0 3 18 23l95 104q15 16 21 21q4 4 15 4q16 0 36.5 -10t20.5 -16t-10 -13l-163 -112q-12 -7 -20 -9z" />
    <glyph glyph-name="uni0145" unicode="&#x145;" horiz-adv-x="662" 
d="M529 -6l-391 531v-476q0 -22 19 -22l49 2v-29h-161v29l39 -2q20 0 20 22v499q0 9 -5.5 15.5t-14.5 5.5l-39 -2v30h155l325 -442v394q0 20 -17 20h-3l-49 -2v30h161v-30l-39 2h-2q-17 0 -17 -21v-554h-30zM309 -213l-16 13q20 11 35 29t15 31q0 29 -28 29q-12 0 -21 10.5
t-9 23.5q0 18 13 30.5t35 12.5q26 0 43 -18t17 -44q0 -37 -23.5 -69t-60.5 -48z" />
    <glyph glyph-name="uni0146" unicode="&#x146;" horiz-adv-x="525" 
d="M35 0v26l37 -2q13 3 13 19v333q0 17 -13 20l-37 -2v26h141q-5 -17 -5 -35v-55q21 48 60 74t90 26q71 0 102.5 -33.5t31.5 -108.5v-245q0 -19 13 -19l37 2v-26h-195v26l46 -2q13 3 13 19v227q0 72 -13.5 100t-53.5 28q-57 0 -92.5 -48.5t-38.5 -130.5v-176q0 -19 13 -19
l46 2v-26h-195zM246 -213l-16 13q20 11 35 29t15 31q0 29 -28 29q-12 0 -21 10.5t-9 23.5q0 18 13 30.5t35 12.5q26 0 43 -18t17 -44q0 -37 -23.5 -69t-60.5 -48z" />
    <glyph glyph-name="Ncaron" unicode="&#x147;" horiz-adv-x="662" 
d="M529 -6l-391 531v-476q0 -22 19 -22l49 2v-29h-161v29l39 -2q20 0 20 22v499q0 9 -5.5 15.5t-14.5 5.5l-39 -2v30h155l325 -442v394q0 20 -17 20h-3l-49 -2v30h161v-30l-39 2h-2q-17 0 -17 -21v-554h-30zM334 668q-4 0 -30 25l-24 24l-23 24q-23 23 -54 50q-7 5 -17 15
q-8 8 -8 10q0 8 9 8t28 -12l119 -74l119 74q19 12 28 12t9 -8q0 -3 -7 -10q-7 -8 -18 -15q-31 -27 -54 -50l-23 -24l-24 -24q-26 -25 -30 -25z" />
    <glyph glyph-name="ncaron" unicode="&#x148;" horiz-adv-x="525" 
d="M35 0v26l37 -2q13 3 13 19v333q0 17 -13 20l-37 -2v26h141q-5 -17 -5 -35v-55q21 48 60 74t90 26q71 0 102.5 -33.5t31.5 -108.5v-245q0 -19 13 -19l37 2v-26h-195v26l46 -2q13 3 13 19v227q0 72 -13.5 100t-53.5 28q-57 0 -92.5 -48.5t-38.5 -130.5v-176q0 -19 13 -19
l46 2v-26h-195zM280 501q-4 0 -30 25l-24 24l-23 24q-23 23 -54 50q-7 5 -17 15q-8 8 -8 10q0 8 9 8t28 -12l119 -74l119 74q19 12 28 12t9 -8q0 -3 -7 -10t-18 -15q-31 -27 -54 -50l-23 -24l-24 -24q-26 -25 -30 -25z" />
    <glyph glyph-name="napostrophe" unicode="&#x149;" horiz-adv-x="525" 
d="M35 0v26l37 -2q13 3 13 19v333q0 17 -13 20l-37 -2v26h141q-5 -17 -5 -35v-55q21 48 60 74t90 26q71 0 102.5 -33.5t31.5 -108.5v-245q0 -19 13 -19l37 2v-26h-195v26l46 -2q13 3 13 19v227q0 72 -13.5 100t-53.5 28q-57 0 -92.5 -48.5t-38.5 -130.5v-176q0 -19 13 -19
l46 2v-26h-195zM-25 431l-16 9q23 21 40 49t17 46q0 24 -30 24q-26 0 -26 36q0 17 14.5 30t33.5 13q58 0 58 -68q0 -39 -26 -75.5t-65 -63.5z" />
    <glyph glyph-name="Eng" unicode="&#x14a;" horiz-adv-x="662" 
d="M529 -6l-391 531v-476q0 -22 19 -22l49 2v-29h-161v29l39 -2q20 0 20 22v499q0 9 -5.5 15.5t-14.5 5.5l-39 -2v30h155l325 -442v394q0 20 -17 20h-3l-49 -2v30h161v-30l-39 2h-2q-17 0 -17 -21v-554h-30zM416 -243q-45 0 -73 19.5t-28 47.5q0 20 13 32t34 12q35 0 35 -28
q0 -6 -3 -16t-3 -15q0 -25 31 -25q58 0 53 83q-2 58 -2 74v159h86v-104q0 -239 -143 -239z" />
    <glyph glyph-name="eng" unicode="&#x14b;" horiz-adv-x="525" 
d="M35 0v26l37 -2q13 3 13 19v333q0 17 -13 20l-37 -2v26h141q-5 -17 -5 -35v-55q21 48 60 74t90 26q71 0 102.5 -33.5t31.5 -108.5v-245h-86v227q0 72 -13.5 100t-53.5 28q-57 0 -92.5 -48.5t-38.5 -130.5v-176q0 -19 13 -19l46 2v-26h-195zM312 -243q-45 0 -73 19.5
t-28 47.5q0 20 13 32t34 12q35 0 35 -28q0 -6 -3 -16t-3 -15q0 -25 31 -25q58 0 53 83q-2 58 -2 74v259h86v-204q0 -239 -143 -239z" />
    <glyph glyph-name="Omacron" unicode="&#x14c;" horiz-adv-x="670" 
d="M335 -10q-137 0 -213.5 81t-76.5 228q0 148 76 228t214 80t214 -80.5t76 -227.5t-76.5 -228t-213.5 -81zM335 17q98 0 143 66.5t45 215.5q0 148 -45 214.5t-143 66.5t-143 -66.5t-45 -214.5q0 -149 45 -215.5t143 -66.5zM216 706v40h239v-40h-239z" />
    <glyph glyph-name="omacron" unicode="&#x14d;" horiz-adv-x="472" 
d="M233 -10q-95 0 -146.5 58t-51.5 163q0 103 51.5 161t149.5 58q97 0 149 -57t52 -157q-3 -226 -204 -226zM236 17q59 0 84.5 45t25.5 147q0 103 -25.5 148.5t-84.5 45.5t-84.5 -45.5t-25.5 -148.5q0 -102 25.5 -147t84.5 -45zM115 567v40h239v-40h-239z" />
    <glyph glyph-name="Obreve" unicode="&#x14e;" horiz-adv-x="670" 
d="M335 -10q-137 0 -213.5 81t-76.5 228q0 148 76 228t214 80t214 -80.5t76 -227.5t-76.5 -228t-213.5 -81zM335 17q98 0 143 66.5t45 215.5q0 148 -45 214.5t-143 66.5t-143 -66.5t-45 -214.5q0 -149 45 -215.5t143 -66.5zM335 667q-58 0 -93 33t-42 91h28
q8 -33 36.5 -53.5t70.5 -20.5q40 0 69.5 21t38.5 53h28q-7 -58 -42.5 -91t-93.5 -33z" />
    <glyph glyph-name="obreve" unicode="&#x14f;" horiz-adv-x="472" 
d="M233 -10q-95 0 -146.5 58t-51.5 163q0 103 51.5 161t149.5 58q97 0 149 -57t52 -157q-3 -226 -204 -226zM236 17q59 0 84.5 45t25.5 147q0 103 -25.5 148.5t-84.5 45.5t-84.5 -45.5t-25.5 -148.5q0 -102 25.5 -147t84.5 -45zM236 518q-58 0 -93 33t-42 91h28
q8 -33 36.5 -53.5t70.5 -20.5q40 0 69.5 21t38.5 53h28q-7 -58 -42.5 -91t-93.5 -33z" />
    <glyph glyph-name="Ohungarumlaut" unicode="&#x150;" horiz-adv-x="670" 
d="M335 -10q-137 0 -213.5 81t-76.5 228q0 148 76 228t214 80t214 -80.5t76 -227.5t-76.5 -228t-213.5 -81zM335 17q98 0 143 66.5t45 215.5q0 148 -45 214.5t-143 66.5t-143 -66.5t-45 -214.5q0 -149 45 -215.5t143 -66.5zM397 666q-9 0 -9 8q0 3 3 9l17 28q61 99 63 106
q6 9 13 9q12 0 43 -13q9 -5 9 -12q0 -5 -6 -12l-118 -117q-6 -6 -15 -6zM277 666q-9 0 -9 8q0 3 3 9l17 28q61 99 63 106q6 9 13 9q12 0 43 -13q9 -5 9 -12q0 -5 -6 -12l-16 -16t-43 -42.5t-59 -58.5q-6 -6 -15 -6z" />
    <glyph glyph-name="ohungarumlaut" unicode="&#x151;" horiz-adv-x="472" 
d="M233 -10q-95 0 -146.5 58t-51.5 163q0 103 51.5 161t149.5 58q97 0 149 -57t52 -157q-3 -226 -204 -226zM236 17q59 0 84.5 45t25.5 147q0 103 -25.5 148.5t-84.5 45.5t-84.5 -45.5t-25.5 -148.5q0 -102 25.5 -147t84.5 -45zM300 493q-9 0 -9 8q0 3 3 9l17 28
q58 101 63 106q6 9 13 9q12 0 43 -13q9 -4 9 -12q0 -4 -6 -12l-118 -117q-6 -6 -15 -6zM180 493q-9 0 -9 8q0 3 3 9l17 28q58 101 63 106q6 9 13 9q12 0 43 -13q9 -4 9 -12q0 -4 -6 -12q-46 -46 -118 -117q-6 -6 -15 -6z" />
    <glyph glyph-name="OE" unicode="&#x152;" horiz-adv-x="861" 
d="M339 -10q-142 0 -218 78t-76 224q0 315 297 315q24 0 69 -5q35 -5 60 -5h327v-154h-27q0 68 -33.5 97t-108.5 29h-94q-13 0 -13 -14v-231h76q34 0 55.5 28t21.5 74h27v-231h-27q0 44 -22 73t-55 29h-76v-257q0 -13 13 -13h115q69 0 104.5 39.5t35.5 112.5h27v-182
q-24 3 -88 3h-250q-56 0 -99 -5q-11 -1 -21.5 -2.5t-14.5 -2.5h-5zM335 18q99 0 99 72v436q0 23 -29 39t-70 16q-102 0 -147.5 -67.5t-45.5 -217.5q0 -148 45 -213t148 -65z" />
    <glyph glyph-name="oe" unicode="&#x153;" horiz-adv-x="760" 
d="M233 -10q-95 0 -146.5 58t-51.5 163q0 103 51.5 161t149.5 58q97 0 149 -57t52 -157q-3 -226 -204 -226zM236 17q59 0 84.5 45t25.5 147q0 103 -25.5 148.5t-84.5 45.5t-84.5 -45.5t-25.5 -148.5q0 -102 25.5 -147t84.5 -45zM549 -10q-203 0 -203 219q0 109 51 165
t150 56q79 0 127.5 -51t50.5 -138v-29h-288q0 -188 126 -189q48 0 83 24t52 63l23 -17q-20 -47 -67 -75t-105 -28zM438 237h182q20 0 20 33q0 69 -21.5 101t-71.5 32q-54 0 -81.5 -44.5t-27.5 -121.5z" />
    <glyph glyph-name="Racute" unicode="&#x154;" horiz-adv-x="581" 
d="M50 0v29l39 -2q19 0 19 22v499q0 22 -22 21l-36 -2v30h225q111 0 161 -37.5t50 -121.5q0 -50 -33 -88t-89 -53q32 0 63 -21q73 -49 73 -154q0 -33 8 -62.5t21 -31.5q8 -2 14 -2q12 0 19 4v-30h-136q-13 27 -14 66q-2 34 -2 38v33q0 72 -47 110.5t-120 38.5h-42v-237
q0 -22 20 -22l49 2v-29h-220zM201 313h93q46 0 72 33t26 92q0 69 -28.5 100t-88.5 31h-62q-12 0 -12 -10v-246zM234 666q-13 0 -13 8q0 4 18 23l95 104q15 17 21 21q4 4 15 4q16 0 36.5 -10t20.5 -16t-10 -13l-163 -112q-12 -9 -20 -9z" />
    <glyph glyph-name="racute" unicode="&#x155;" horiz-adv-x="383" 
d="M39 0v26l32 -2q13 0 13 19v333q0 20 -13 20l-36 -2v26h141q-6 -16 -6 -46v-49q40 105 117 105q38 0 60 -21.5t22 -56.5q0 -47 -42 -47q-15 0 -26 8t-11 23q0 11 4 23t4 21q0 20 -23 22q-31 0 -54 -29q-45 -59 -51 -157v-173q0 -19 13 -19l61 2v-26h-205zM146 493
q-13 0 -13 8q0 3 18 23l95 104q15 16 21 21q4 4 15 4q16 0 36.5 -10t20.5 -16t-10 -13l-163 -112q-12 -7 -20 -9z" />
    <glyph glyph-name="uni0156" unicode="&#x156;" horiz-adv-x="581" 
d="M50 0v29l39 -2q19 0 19 22v499q0 22 -22 21l-36 -2v30h225q111 0 161 -37.5t50 -121.5q0 -50 -33 -88t-89 -53q32 0 63 -21q73 -49 73 -154q0 -33 8 -62.5t21 -31.5q8 -2 14 -2q12 0 19 4v-30h-136q-13 27 -14 66q-2 34 -2 38v33q0 72 -47 110.5t-120 38.5h-42v-237
q0 -22 20 -22l49 2v-29h-220zM201 313h93q46 0 72 33t26 92q0 69 -28.5 100t-88.5 31h-62q-12 0 -12 -10v-246zM270 -213l-16 13q20 11 35 29t15 31q0 29 -28 29q-12 0 -21 10.5t-9 23.5q0 18 13 30.5t35 12.5q26 0 43 -18t17 -44q0 -37 -23.5 -69t-60.5 -48z" />
    <glyph glyph-name="uni0157" unicode="&#x157;" horiz-adv-x="383" 
d="M39 0v26l32 -2q13 0 13 19v333q0 20 -13 20l-36 -2v26h141q-6 -16 -6 -46v-49q40 105 117 105q38 0 60 -21.5t22 -56.5q0 -47 -42 -47q-15 0 -26 8t-11 23q0 11 4 23t4 21q0 20 -23 22q-31 0 -54 -29q-45 -59 -51 -157v-173q0 -19 13 -19l61 2v-26h-205zM102 -213l-16 13
q20 11 35 29t15 31q0 29 -28 29q-12 0 -21 10.5t-9 23.5q0 18 13 30.5t35 12.5q26 0 43 -18t17 -44q0 -37 -23.5 -69t-60.5 -48z" />
    <glyph glyph-name="Rcaron" unicode="&#x158;" horiz-adv-x="581" 
d="M50 0v29l39 -2q19 0 19 22v499q0 22 -22 21l-36 -2v30h225q111 0 161 -37.5t50 -121.5q0 -50 -33 -88t-89 -53q32 0 63 -21q73 -49 73 -154q0 -33 8 -62.5t21 -31.5q8 -2 14 -2q12 0 19 4v-30h-136q-13 27 -14 66q-2 34 -2 38v33q0 72 -47 110.5t-120 38.5h-42v-237
q0 -22 20 -22l49 2v-29h-220zM201 313h93q46 0 72 33t26 92q0 69 -28.5 100t-88.5 31h-62q-12 0 -12 -10v-246zM295 668q-4 0 -30 25l-24 24l-23 24q-23 23 -54 50q-7 5 -17 15q-8 8 -8 10q0 8 9 8q8 0 28 -12l119 -74l119 74q19 12 28 12t9 -8q0 -3 -7 -10q-8 -8 -18 -15
q-31 -27 -54 -50l-23 -24l-24 -24q-26 -25 -30 -25z" />
    <glyph glyph-name="rcaron" unicode="&#x159;" horiz-adv-x="383" 
d="M39 0v26l32 -2q13 0 13 19v333q0 20 -13 20l-36 -2v26h141q-6 -16 -6 -46v-49q40 105 117 105q38 0 60 -21.5t22 -56.5q0 -47 -42 -47q-15 0 -26 8t-11 23q0 11 4 23t4 21q0 20 -23 22q-31 0 -54 -29q-45 -59 -51 -157v-173q0 -19 13 -19l61 2v-26h-205zM207 501
q-4 0 -30 25l-24 24l-23 24q-23 23 -54 50q-7 5 -17 15q-8 8 -8 10q0 8 9 8q8 0 28 -12l119 -74l119 74q20 12 28 12q9 0 9 -8q0 -3 -7 -10q-8 -7 -18 -15q-31 -27 -54 -50l-23 -24l-24 -24q-26 -25 -30 -25z" />
    <glyph glyph-name="Sacute" unicode="&#x15a;" horiz-adv-x="494" 
d="M268 -10q-61 0 -103 13q-53 15 -79 15q-5 0 -12 -1t-13.5 -2.5t-8.5 -1.5q4 19 4 83q0 80 -8 107h25q23 -185 184 -185q50 0 80 33t30 87q0 76 -99 116l-102 41q-108 43 -110 146q0 44 21 83q46 83 164 83q54 0 129 -29q16 -6 27 -6q20 0 29 4q-3 -24 -3 -75q0 -34 1 -43
q2 -17 5 -24h-26q0 65 -42.5 105.5t-106.5 40.5q-52 0 -84 -29t-32 -79q0 -33 23 -59.5t63 -42.5l92 -37q76 -31 108.5 -68.5t32.5 -96.5q0 -52 -25 -92t-69 -63t-95 -23zM189 666q-13 0 -13 8q0 4 18 23l95 104q15 17 21 21q4 4 15 4q16 0 36.5 -10t20.5 -16t-10 -13
l-163 -112q-12 -9 -20 -9z" />
    <glyph glyph-name="sacute" unicode="&#x15b;" horiz-adv-x="411" 
d="M212 -10q-33 0 -112 22q-13 4 -27 4q-20 0 -29 -6l5 132l26 2q0 -54 42 -90.5t103 -36.5q40 0 62 20.5t22 55.5q0 28 -16 46t-54 29l-96 27q-86 26 -86 111q0 55 41.5 89.5t111.5 34.5q29 0 74 -13q32 -9 46 -9t28 8l-6 -114h-22q0 41 -32.5 71t-84.5 30q-38 0 -59.5 -20
t-21.5 -51q0 -49 62 -66l96 -27q50 -14 71.5 -41t21.5 -72q0 -64 -45 -100t-121 -36zM153 493q-13 0 -13 8q0 3 18 23l95 104q15 16 21 21q4 4 15 4q16 0 36.5 -10t20.5 -16t-10 -13l-163 -112q-12 -7 -20 -9z" />
    <glyph glyph-name="Scircumflex" unicode="&#x15c;" horiz-adv-x="494" 
d="M268 -10q-61 0 -103 13q-53 15 -79 15q-5 0 -12 -1t-13.5 -2.5t-8.5 -1.5q4 19 4 83q0 80 -8 107h25q23 -185 184 -185q50 0 80 33t30 87q0 76 -99 116l-102 41q-108 43 -110 146q0 44 21 83q46 83 164 83q54 0 129 -29q16 -6 27 -6q20 0 29 4q-3 -24 -3 -75q0 -34 1 -43
q2 -17 5 -24h-26q0 65 -42.5 105.5t-106.5 40.5q-52 0 -84 -29t-32 -79q0 -33 23 -59.5t63 -42.5l92 -37q76 -31 108.5 -68.5t32.5 -96.5q0 -52 -25 -92t-69 -63t-95 -23zM103 666q-9 0 -9 8q0 2 8 10q10 10 17 15q31 27 54 50l23 24l24 24q26 25 30 25t30 -25l24 -24
l23 -24q23 -23 54 -50q11 -7 18 -15q7 -7 7 -10q0 -8 -9 -8t-28 12l-119 74l-119 -74q-19 -12 -28 -12z" />
    <glyph glyph-name="scircumflex" unicode="&#x15d;" horiz-adv-x="411" 
d="M212 -10q-33 0 -112 22q-13 4 -27 4q-20 0 -29 -6l5 132l26 2q0 -54 42 -90.5t103 -36.5q40 0 62 20.5t22 55.5q0 28 -16 46t-54 29l-96 27q-86 26 -86 111q0 55 41.5 89.5t111.5 34.5q29 0 74 -13q32 -9 46 -9t28 8l-6 -114h-22q0 41 -32.5 71t-84.5 30q-38 0 -59.5 -20
t-21.5 -51q0 -49 62 -66l96 -27q50 -14 71.5 -41t21.5 -72q0 -64 -45 -100t-121 -36zM67 493q-9 0 -9 8q0 2 8 10q10 10 17 15q31 27 54 50l23 24l24 24q26 25 30 25t30 -25l24 -24l23 -24q23 -23 54 -50q11 -8 18 -15t7 -10q0 -8 -9 -8t-28 12l-119 74l-119 -74
q-20 -12 -28 -12z" />
    <glyph glyph-name="Scedilla" unicode="&#x15e;" horiz-adv-x="494" 
d="M268 -10q-61 0 -103 13q-53 15 -79 15q-5 0 -12 -1t-13.5 -2.5t-8.5 -1.5q4 19 4 83q0 80 -8 107h25q23 -185 184 -185q50 0 80 33t30 87q0 76 -99 116l-102 41q-108 43 -110 146q0 44 21 83q46 83 164 83q54 0 129 -29q16 -6 27 -6q20 0 29 4q-3 -24 -3 -75q0 -34 1 -43
q2 -17 5 -24h-26q0 65 -42.5 105.5t-106.5 40.5q-52 0 -84 -29t-32 -79q0 -33 23 -59.5t63 -42.5l92 -37q76 -31 108.5 -68.5t32.5 -96.5q0 -52 -25 -92t-69 -63t-95 -23zM226 -214q-44 0 -69 16l7 24q12 -13 35 -13t39.5 15.5t16.5 38.5q0 21 -34 39l-23 14q-11 8 -11 15
t6 13l41 52h33l-27 -43q-6 -10 -6 -19q0 -6 7 -9q6 -2 23 -7q30 -7 43 -16t13 -28q0 -43 -24.5 -67.5t-69.5 -24.5z" />
    <glyph glyph-name="scedilla" unicode="&#x15f;" horiz-adv-x="411" 
d="M212 -10q-33 0 -112 22q-13 4 -27 4q-20 0 -29 -6l5 132l26 2q0 -54 42 -90.5t103 -36.5q40 0 62 20.5t22 55.5q0 28 -16 46t-54 29l-96 27q-86 26 -86 111q0 55 41.5 89.5t111.5 34.5q29 0 74 -13q32 -9 46 -9t28 8l-6 -114h-22q0 41 -32.5 71t-84.5 30q-38 0 -59.5 -20
t-21.5 -51q0 -49 62 -66l96 -27q50 -14 71.5 -41t21.5 -72q0 -64 -45 -100t-121 -36zM179 -214q-44 0 -69 16l7 24q12 -13 35 -13t39.5 15.5t16.5 38.5q0 21 -34 39l-23 14q-11 8 -11 15t6 13l41 52h33l-27 -43q-6 -10 -6 -19q0 -6 7 -9q6 -2 23 -7q30 -7 43 -16t13 -28
q0 -43 -24.5 -67.5t-69.5 -24.5z" />
    <glyph glyph-name="Scaron" unicode="&#x160;" horiz-adv-x="494" 
d="M268 -10q-61 0 -103 13q-53 15 -79 15q-5 0 -12 -1t-13.5 -2.5t-8.5 -1.5q4 19 4 83q0 80 -8 107h25q23 -185 184 -185q50 0 80 33t30 87q0 76 -99 116l-102 41q-108 43 -110 146q0 44 21 83q46 83 164 83q54 0 129 -29q16 -6 27 -6q20 0 29 4q-3 -24 -3 -75q0 -34 1 -43
q2 -17 5 -24h-26q0 65 -42.5 105.5t-106.5 40.5q-52 0 -84 -29t-32 -79q0 -33 23 -59.5t63 -42.5l92 -37q76 -31 108.5 -68.5t32.5 -96.5q0 -52 -25 -92t-69 -63t-95 -23zM250 668q-4 0 -30 25l-24 24l-23 24q-23 23 -54 50q-7 5 -17 15q-8 8 -8 10q0 8 9 8q8 0 28 -12
l119 -74l119 74q19 12 28 12t9 -8q0 -3 -7 -10q-7 -8 -18 -15q-31 -27 -54 -50l-23 -24l-24 -24q-26 -25 -30 -25z" />
    <glyph glyph-name="scaron" unicode="&#x161;" horiz-adv-x="411" 
d="M212 -10q-33 0 -112 22q-13 4 -27 4q-20 0 -29 -6l5 132l26 2q0 -54 42 -90.5t103 -36.5q40 0 62 20.5t22 55.5q0 28 -16 46t-54 29l-96 27q-86 26 -86 111q0 55 41.5 89.5t111.5 34.5q29 0 74 -13q32 -9 46 -9t28 8l-6 -114h-22q0 41 -32.5 71t-84.5 30q-38 0 -59.5 -20
t-21.5 -51q0 -49 62 -66l96 -27q50 -14 71.5 -41t21.5 -72q0 -64 -45 -100t-121 -36zM214 501q-4 0 -30 25l-24 24l-23 24q-23 23 -54 50q-7 5 -17 15q-8 8 -8 10q0 8 9 8t28 -12l119 -74l119 74q19 12 28 12t9 -8q0 -3 -7 -10t-18 -15q-31 -27 -54 -50l-23 -24l-24 -24
q-26 -25 -30 -25z" />
    <glyph glyph-name="uni0162" unicode="&#x162;" horiz-adv-x="529" 
d="M145 0v29l54 -2q19 0 19 25v506q0 12 -12 12h-41q-66 0 -95 -30t-29 -96h-26v156q18 -2 40 -2h419q30 0 40 2v-156h-26q0 66 -29 96t-94 30h-42q-10 0 -12 -11v-510q0 -22 20 -22l53 2v-29h-239zM240 -214q-44 0 -69 16l7 24q12 -13 35 -13t39.5 15.5t16.5 38.5
q0 21 -34 39l-23 14q-11 8 -11 15t6 13l41 52h33l-27 -43q-6 -10 -6 -19q0 -6 7 -9q6 -2 23 -7q30 -7 43 -16t13 -28q0 -43 -24.5 -67.5t-69.5 -24.5z" />
    <glyph glyph-name="uni0163" unicode="&#x163;" horiz-adv-x="313" 
d="M179 -6q-51 0 -72.5 24t-21.5 78v299h-60v25q59 0 80.5 19t37.5 83h28v-102h110v-25h-110v-307q0 -38 9 -51.5t32 -13.5q16 0 31.5 11.5t20.5 28.5l21 -13q-20 -56 -106 -56zM130 -214q-44 0 -69 16l7 24q12 -13 35 -13t39.5 15.5t16.5 38.5q0 21 -34 39l-23 14
q-11 8 -11 15t6 13l41 52h33l-27 -43q-6 -10 -6 -19q0 -6 7 -9q6 -2 23 -7q30 -7 43 -16t13 -28q0 -43 -24.5 -67.5t-69.5 -24.5z" />
    <glyph glyph-name="Tcaron" unicode="&#x164;" horiz-adv-x="529" 
d="M145 0v29l54 -2q19 0 19 25v506q0 12 -12 12h-41q-66 0 -95 -30t-29 -96h-26v156q18 -2 40 -2h419q30 0 40 2v-156h-26q0 66 -29 96t-94 30h-42q-10 0 -12 -11v-510q0 -22 20 -22l53 2v-29h-239zM265 668q-4 0 -30 25l-24 24l-23 24q-23 23 -54 50q-7 5 -17 15
q-8 8 -8 10q0 8 9 8q8 0 28 -12l119 -74l119 74q20 12 28 12q9 0 9 -8q0 -3 -7 -10q-8 -8 -18 -15q-31 -27 -54 -50l-23 -24l-24 -24q-26 -25 -30 -25z" />
    <glyph glyph-name="tcaron" unicode="&#x165;" horiz-adv-x="313" 
d="M179 -6q-51 0 -72.5 24t-21.5 78v299h-60v25q59 0 80.5 19t37.5 83h28v-102h110v-25h-110v-307q0 -38 9 -51.5t32 -13.5q16 0 31.5 11.5t20.5 28.5l21 -13q-20 -56 -106 -56zM226 438l-16 13q17 12 28.5 29.5t11.5 30.5q0 19 -18 19q-12 0 -21 10.5t-9 23.5
q0 18 11.5 30.5t31.5 12.5q24 0 39.5 -18.5t15.5 -43.5q0 -33 -21 -62t-53 -45z" />
    <glyph glyph-name="Tbar" unicode="&#x166;" horiz-adv-x="529" 
d="M145 0v29l54 -2q19 0 19 25v506q0 12 -12 12h-41q-66 0 -95 -30t-29 -96h-26v156q18 -2 40 -2h419q30 0 40 2v-156h-26q0 66 -29 96t-94 30h-42q-10 0 -12 -11v-510q0 -22 20 -22l53 2v-29h-239zM89 283v35h366v-35h-366z" />
    <glyph glyph-name="tbar" unicode="&#x167;" horiz-adv-x="313" 
d="M179 -6q-51 0 -72.5 24t-21.5 78v299h-60v25q59 0 80.5 19t37.5 83h28v-102h110v-25h-110v-307q0 -38 9 -51.5t32 -13.5q16 0 31.5 11.5t20.5 28.5l21 -13q-20 -56 -106 -56zM15 212v35h248v-35h-248z" />
    <glyph glyph-name="Utilde" unicode="&#x168;" horiz-adv-x="651" 
d="M344 -10q-252 0 -252 212v346q0 9 -5.5 15.5t-13.5 5.5l-38 -2v30h219v-30l-49 2h-2q-18 0 -18 -20v-350q0 -84 46.5 -131t130.5 -47q74 0 122 50.5t48 126.5v350q0 10 -5 16t-13 5l-49 -2v30h161v-30l-39 2h-2q-18 0 -18 -20v-360q0 -84 -62.5 -141.5t-160.5 -57.5z
M443 675q-25 0 -88 22q-59 21 -81 21q-14 0 -23.5 -12t-9.5 -30h-20q0 37 18.5 64t45.5 27q25 0 88 -22q61 -21 81 -21q14 0 23.5 12t9.5 30h20q0 -37 -18.5 -64t-45.5 -27z" />
    <glyph glyph-name="utilde" unicode="&#x169;" horiz-adv-x="524" 
d="M195 -10q-67 0 -96.5 37t-29.5 121v228q0 20 -13 20l-36 -2v26h135v-272q0 -70 12.5 -97.5t48.5 -27.5q57 0 94 44t42 119l1 189q0 21 -12 21l-47 -2v26h146v-377q0 -19 13 -19l36 2v-26h-142q5 13 5 72v13q-44 -95 -157 -95zM326 529q-25 0 -88 22q-58 21 -81 21
q-14 0 -23.5 -12t-9.5 -30h-20q0 37 18.5 64t45.5 27q25 0 88 -22q62 -21 81 -21q14 0 23.5 12t9.5 30h20q0 -37 -18.5 -64t-45.5 -27z" />
    <glyph glyph-name="Umacron" unicode="&#x16a;" horiz-adv-x="651" 
d="M344 -10q-252 0 -252 212v346q0 9 -5.5 15.5t-13.5 5.5l-38 -2v30h219v-30l-49 2h-2q-18 0 -18 -20v-350q0 -84 46.5 -131t130.5 -47q74 0 122 50.5t48 126.5v350q0 10 -5 16t-13 5l-49 -2v30h161v-30l-39 2h-2q-18 0 -18 -20v-360q0 -84 -62.5 -141.5t-160.5 -57.5z
M237 706v40h239v-40h-239z" />
    <glyph glyph-name="umacron" unicode="&#x16b;" horiz-adv-x="524" 
d="M195 -10q-67 0 -96.5 37t-29.5 121v228q0 20 -13 20l-36 -2v26h135v-272q0 -70 12.5 -97.5t48.5 -27.5q57 0 94 44t42 119l1 189q0 21 -12 21l-47 -2v26h146v-377q0 -19 13 -19l36 2v-26h-142q5 13 5 72v13q-44 -95 -157 -95zM118 567v40h239v-40h-239z" />
    <glyph glyph-name="Ubreve" unicode="&#x16c;" horiz-adv-x="651" 
d="M344 -10q-252 0 -252 212v346q0 9 -5.5 15.5t-13.5 5.5l-38 -2v30h219v-30l-49 2h-2q-18 0 -18 -20v-350q0 -84 46.5 -131t130.5 -47q74 0 122 50.5t48 126.5v350q0 10 -5 16t-13 5l-49 -2v30h161v-30l-39 2h-2q-18 0 -18 -20v-360q0 -84 -62.5 -141.5t-160.5 -57.5z
M356 667q-58 0 -93 33t-42 91h28q8 -33 36.5 -53.5t70.5 -20.5q40 0 69.5 21t38.5 53h28q-7 -58 -42.5 -91t-93.5 -33z" />
    <glyph glyph-name="ubreve" unicode="&#x16d;" horiz-adv-x="524" 
d="M195 -10q-67 0 -96.5 37t-29.5 121v228q0 20 -13 20l-36 -2v26h135v-272q0 -70 12.5 -97.5t48.5 -27.5q57 0 94 44t42 119l1 189q0 21 -12 21l-47 -2v26h146v-377q0 -19 13 -19l36 2v-26h-142q5 13 5 72v13q-44 -95 -157 -95zM239 518q-58 0 -93 33t-42 91h28
q8 -33 36.5 -53.5t70.5 -20.5q40 0 69.5 21t38.5 53h28q-7 -58 -42.5 -91t-93.5 -33z" />
    <glyph glyph-name="Uring" unicode="&#x16e;" horiz-adv-x="651" 
d="M344 -10q-252 0 -252 212v346q0 9 -5.5 15.5t-13.5 5.5l-38 -2v30h219v-30l-49 2h-2q-18 0 -18 -20v-350q0 -84 46.5 -131t130.5 -47q74 0 122 50.5t48 126.5v350q0 10 -5 16t-13 5l-49 -2v30h161v-30l-39 2h-2q-18 0 -18 -20v-360q0 -84 -62.5 -141.5t-160.5 -57.5z
M356 666q-34 0 -58.5 24t-24.5 58t24 57.5t59 23.5t59.5 -23.5t24.5 -57.5t-24.5 -58t-59.5 -24zM356 702q19 0 30.5 12.5t11.5 33.5q0 20 -11.5 32.5t-30.5 12.5t-30 -12.5t-11 -32.5q0 -21 11 -33.5t30 -12.5z" />
    <glyph glyph-name="uring" unicode="&#x16f;" horiz-adv-x="524" 
d="M195 -10q-67 0 -96.5 37t-29.5 121v228q0 20 -13 20l-36 -2v26h135v-272q0 -70 12.5 -97.5t48.5 -27.5q57 0 94 44t42 119l1 189q0 21 -12 21l-47 -2v26h146v-377q0 -19 13 -19l36 2v-26h-142q5 13 5 72v13q-44 -95 -157 -95zM239 493q-34 0 -58.5 24t-24.5 58t24 57.5
t59 23.5t59.5 -23.5t24.5 -57.5t-24.5 -58t-59.5 -24zM239 529q19 0 30.5 12.5t11.5 33.5q0 20 -11.5 32.5t-30.5 12.5t-30 -12.5t-11 -32.5q0 -21 11 -33.5t30 -12.5z" />
    <glyph glyph-name="Uhungarumlaut" unicode="&#x170;" horiz-adv-x="651" 
d="M344 -10q-252 0 -252 212v346q0 9 -5.5 15.5t-13.5 5.5l-38 -2v30h219v-30l-49 2h-2q-18 0 -18 -20v-350q0 -84 46.5 -131t130.5 -47q74 0 122 50.5t48 126.5v350q0 10 -5 16t-13 5l-49 -2v30h161v-30l-39 2h-2q-18 0 -18 -20v-360q0 -84 -62.5 -141.5t-160.5 -57.5z
M418 666q-9 0 -9 8q0 3 3 9l17 28q61 99 63 106q6 9 13 9q12 0 43 -13q9 -5 9 -12q0 -5 -6 -12l-118 -117q-6 -6 -15 -6zM298 666q-9 0 -9 8q0 3 3 9l17 28q61 99 63 106q6 9 13 9q12 0 43 -13q9 -5 9 -12q0 -5 -6 -12l-16 -16t-43 -42.5t-59 -58.5q-6 -6 -15 -6z" />
    <glyph glyph-name="uhungarumlaut" unicode="&#x171;" horiz-adv-x="524" 
d="M195 -10q-67 0 -96.5 37t-29.5 121v228q0 20 -13 20l-36 -2v26h135v-272q0 -70 12.5 -97.5t48.5 -27.5q57 0 94 44t42 119l1 189q0 21 -12 21l-47 -2v26h146v-377q0 -19 13 -19l36 2v-26h-142q5 13 5 72v13q-44 -95 -157 -95zM303 493q-9 0 -9 8q0 3 3 9l17 28
q58 101 63 106q6 9 13 9q12 0 43 -13q9 -4 9 -12q0 -4 -6 -12l-118 -117q-6 -6 -15 -6zM183 493q-9 0 -9 8q0 3 3 9l17 28q58 101 63 106q6 9 13 9q12 0 43 -13q9 -4 9 -12q0 -4 -6 -12q-46 -46 -118 -117q-6 -6 -15 -6z" />
    <glyph glyph-name="Uogonek" unicode="&#x172;" horiz-adv-x="651" 
d="M344 -10q-252 0 -252 212v346q0 9 -5.5 15.5t-13.5 5.5l-38 -2v30h219v-30l-49 2h-2q-18 0 -18 -20v-350q0 -84 46.5 -131t130.5 -47q74 0 122 50.5t48 126.5v350q0 10 -5 16t-13 5l-49 -2v30h161v-30l-39 2h-2q-18 0 -18 -20v-360q0 -84 -62.5 -141.5t-160.5 -57.5z
M427 -159q-31 0 -52.5 19.5t-21.5 52.5q0 66 75 101h28q-51 -24 -51 -76q0 -25 15 -39.5t43 -14.5q35 0 70 29l12 -12q-51 -60 -118 -60z" />
    <glyph glyph-name="uogonek" unicode="&#x173;" horiz-adv-x="524" 
d="M195 -10q-67 0 -96.5 37t-29.5 121v228q0 20 -13 20l-36 -2v26h135v-272q0 -70 12.5 -97.5t48.5 -27.5q57 0 94 44t42 119l1 189q0 21 -12 21l-47 -2v26h146v-377q0 -19 13 -19l36 2v-26h-142q5 13 5 72v13q-44 -95 -157 -95zM406 -159q-31 0 -52.5 19.5t-21.5 52.5
q0 66 75 101h28q-51 -24 -51 -76q0 -25 15 -39.5t43 -14.5q35 0 70 29l12 -12q-51 -60 -118 -60z" />
    <glyph glyph-name="Wcircumflex" unicode="&#x174;" horiz-adv-x="884" 
d="M257 -10l-211 557q-7 22 -21 22l-30 -2v30h216v-30l-53 2q-13 0 -13 -11l3 -11l149 -392l143 442h61l183 -454l130 406l2 8q0 14 -13 12l-52 -2v30h153v-30l-30 2q-18 2 -25 -21l-181 -558h-16l-206 519l-170 -519h-19zM320 666q-9 0 -9 8q0 2 8 10q10 10 17 15
q31 27 54 50l23 24l24 24q26 25 30 25t30 -25l24 -24l23 -24q23 -23 54 -50q10 -7 18 -15q7 -7 7 -10q0 -8 -9 -8q-8 0 -28 12l-119 74l-119 -74q-19 -12 -28 -12z" />
    <glyph glyph-name="wcircumflex" unicode="&#x175;" horiz-adv-x="725" 
d="M191 -10l-141 393q-6 13 -17 13l-46 -2v26h213v-26l-44 2h-2q-9 0 -12.5 -6t-0.5 -14l94 -265l137 314h21l133 -308l95 262l2 8q0 10 -13 9l-53 -2v26h159v-26l-41 2q-15 0 -21 -17l-149 -389h-22l-134 312l-138 -312h-20zM218 493q-9 0 -9 8q0 2 8 10q10 10 17 15
q31 27 54 50l23 24l24 24q26 25 30 25t30 -25l24 -24l23 -24q23 -23 54 -50q10 -8 18 -15q7 -7 7 -10q0 -8 -9 -8q-8 0 -28 12l-119 74l-119 -74q-20 -12 -28 -12z" />
    <glyph glyph-name="Ycircumflex" unicode="&#x176;" horiz-adv-x="507" 
d="M152 0v29l49 -2q19 0 19 22v214l-173 287q-10 19 -24 19l-28 -2v30h221v-30l-53 2h-1q-11 0 -11 -10q0 -6 5 -14l137 -228l131 232q3 5 3 10q0 10 -10 10l-52 -2v30h152v-30l-30 2q-16 0 -28 -21l-146 -261v-239q0 -21 20 -21l48 2v-29h-229zM119 666q-9 0 -9 8q0 2 8 10
q10 10 17 15q31 27 54 50l23 24l24 24q26 25 30 25t30 -25l24 -24l23 -24q23 -23 54 -50q11 -7 18 -15q7 -7 7 -10q0 -8 -9 -8t-28 12l-119 74l-119 -74q-20 -12 -28 -12z" />
    <glyph glyph-name="ycircumflex" unicode="&#x177;" horiz-adv-x="485" 
d="M85 -239q-28 0 -46 13t-20 36q0 24 11 37.5t28 13.5q24 0 38 -24q8 -12 14 -16q6 -2 11 -2q28 0 46 46l58 139l-173 379q-6 13 -16 13l-49 -2v26h219v-26l-45 2q-7 0 -11 -5.5t-1 -11.5l122 -268l113 270q1 1 1 6q0 9 -11 9l-47 -2v26h155v-26l-43 2q-16 0 -25 -19
l-211 -509q-24 -59 -51 -83t-67 -24zM115 493q-9 0 -9 8q0 2 8 10q10 10 17 15q31 27 54 50l23 24l24 24q26 25 30 25t30 -25l24 -24l23 -24q23 -23 54 -50q11 -8 18 -15t7 -10q0 -8 -9 -8t-28 12l-119 74l-119 -74q-19 -12 -28 -12z" />
    <glyph glyph-name="Ydieresis" unicode="&#x178;" horiz-adv-x="507" 
d="M152 0v29l49 -2q19 0 19 22v214l-173 287q-10 19 -24 19l-28 -2v30h221v-30l-53 2h-1q-11 0 -11 -10q0 -6 5 -14l137 -228l131 232q3 5 3 10q0 10 -10 10l-52 -2v30h152v-30l-30 2q-16 0 -28 -21l-146 -261v-239q0 -21 20 -21l48 2v-29h-229zM367 696q-24 0 -39 13.5
t-15 34.5t15.5 35t38.5 14q22 0 38 -14t16 -35t-15 -34.5t-39 -13.5zM172 696q-24 0 -39 13.5t-15 34.5t15.5 35t38.5 14q22 0 38 -14t16 -35t-15 -34.5t-39 -13.5z" />
    <glyph glyph-name="Zacute" unicode="&#x179;" horiz-adv-x="512" 
d="M484 -4q-11 4 -113 4h-337v27l321 542h-152q-72 0 -106.5 -30.5t-34.5 -95.5h-27v157l51 -1q48 -2 58 -2h320v-24l-323 -546h174q69 0 109.5 37.5t40.5 102.5h27zM186 666q-13 0 -13 8q0 4 18 23l95 104q15 17 21 21q4 4 15 4q16 0 36.5 -10t20.5 -16t-10 -13l-163 -112
q-12 -9 -20 -9z" />
    <glyph glyph-name="zacute" unicode="&#x17a;" horiz-adv-x="441" 
d="M34 -2v20l249 377h-98q-50 0 -80.5 -30t-38.5 -85h-21l9 142q12 0 30 -1q17 -1 66 -1h238v-19l-246 -376h106q129 0 129 114h21v-139h-260l-84 -1q-6 -1 -20 -1zM164 493q-13 0 -13 8q0 3 18 23l95 104q15 16 21 21q4 4 15 4q16 0 36.5 -10t20.5 -16t-10 -13l-163 -112
q-12 -7 -20 -9z" />
    <glyph glyph-name="Zdotaccent" unicode="&#x17b;" horiz-adv-x="512" 
d="M484 -4q-11 4 -113 4h-337v27l321 542h-152q-72 0 -106.5 -30.5t-34.5 -95.5h-27v157l51 -1q48 -2 58 -2h320v-24l-323 -546h174q69 0 109.5 37.5t40.5 102.5h27zM247 696q-24 0 -39 13.5t-15 34.5t15.5 35t38.5 14q22 0 38 -14t16 -35t-15 -34.5t-39 -13.5z" />
    <glyph glyph-name="zdotaccent" unicode="&#x17c;" horiz-adv-x="441" 
d="M34 -2v20l249 377h-98q-50 0 -80.5 -30t-38.5 -85h-21l9 142q12 0 30 -1q17 -1 66 -1h238v-19l-246 -376h106q129 0 129 114h21v-139h-260l-84 -1q-6 -1 -20 -1zM225 547q-24 0 -39 13.5t-15 34.5t15.5 35t38.5 14q22 0 38 -14t16 -35t-15 -34.5t-39 -13.5z" />
    <glyph glyph-name="Zcaron" unicode="&#x17d;" horiz-adv-x="512" 
d="M484 -4q-11 4 -113 4h-337v27l321 542h-152q-72 0 -106.5 -30.5t-34.5 -95.5h-27v157l51 -1q48 -2 58 -2h320v-24l-323 -546h174q69 0 109.5 37.5t40.5 102.5h27zM247 668q-4 0 -30 25l-24 24l-23 24q-23 23 -54 50q-7 5 -17 15q-8 8 -8 10q0 8 9 8q8 0 28 -12l119 -74
l119 74q20 12 28 12q9 0 9 -8q0 -3 -7 -10q-8 -8 -18 -15q-31 -27 -54 -50l-23 -24l-24 -24q-26 -25 -30 -25z" />
    <glyph glyph-name="zcaron" unicode="&#x17e;" horiz-adv-x="441" 
d="M34 -2v20l249 377h-98q-50 0 -80.5 -30t-38.5 -85h-21l9 142q12 0 30 -1q17 -1 66 -1h238v-19l-246 -376h106q129 0 129 114h21v-139h-260l-84 -1q-6 -1 -20 -1zM225 501q-4 0 -30 25l-24 24l-23 24q-23 23 -54 50q-7 5 -17 15q-8 8 -8 10q0 8 9 8t28 -12l119 -74l119 74
q20 12 28 12q9 0 9 -8q0 -3 -7 -10q-8 -7 -18 -15q-31 -27 -54 -50l-23 -24l-24 -24q-26 -25 -30 -25z" />
    <glyph glyph-name="longs" unicode="&#x17f;" horiz-adv-x="296" 
d="M35 0v26l37 -2q13 0 13 19v352h-39v25h39v66q0 250 174 250q48 0 83 -30.5t35 -72.5q0 -22 -12.5 -35.5t-35.5 -13.5q-35 0 -35 29q0 9 4 20q5 13 5 24q0 23 -13.5 37.5t-37.5 14.5q-88 0 -88 -120q0 -29 3 -66q3 -52 3 -74l1 -406q0 -19 13 -19l66 2v-26h-215z" />
    <glyph glyph-name="uni018F" unicode="&#x18f;" horiz-adv-x="638" 
d="M311 -10q-116 0 -181 70t-68 195v40h430q0 137 -47 201t-146 64q-67 0 -116.5 -34t-72.5 -88l-32 24q27 66 93.5 105t146.5 39q275 0 275 -307q0 -152 -71.5 -230.5t-210.5 -78.5zM315 17q82 0 129 68t47 178h-302q-15 0 -21.5 -10t-6.5 -36q0 -200 154 -200z" />
    <glyph glyph-name="florin" unicode="&#x192;" horiz-adv-x="450" 
d="M-35 -188q-41 0 -69.5 19t-28.5 48q0 19 12 31.5t33 12.5q37 0 37 -28q0 -5 -3 -16t-3 -15q0 -25 32 -25q30 0 51 31q21 34 67 228l52 235h-97l27 31h77q27 120 72.5 181.5t127.5 61.5q46 0 77 -20t31 -53q0 -21 -12 -35t-35 -14q-36 0 -36 28q0 7 5 19q4 9 4 17
q0 13 -9 22t-26 9q-39 0 -62 -44q-24 -46 -49 -172h99v-15l-29 -16h-77l-51 -246q-16 -72 -43 -131t-73 -101.5t-101 -42.5z" />
    <glyph glyph-name="uni019D" unicode="&#x19d;" horiz-adv-x="662" 
d="M529 -6l-391 531l-34 23q0 9 -5.5 15.5t-14.5 5.5l-39 -2v30h155l325 -442v394q0 20 -17 20h-3l-49 -2v30h161v-30l-39 2h-2q-17 0 -17 -21v-554h-30zM37 -243q-44 0 -67.5 19t-23.5 48q0 20 13 32t34 12q35 0 35 -28q0 -6 -3 -16t-3 -15q1 -25 31 -25q57 0 53 96
q-2 58 -2 74v643h34v-706q0 -134 -101 -134z" />
    <glyph glyph-name="Ohorn" unicode="&#x1a0;" horiz-adv-x="670" 
d="M335 -10q-137 0 -213.5 81t-76.5 228q0 148 76 228t214 80t214 -80.5t76 -227.5t-76.5 -228t-213.5 -81zM335 17q98 0 143 66.5t45 215.5q0 148 -45 214.5t-143 66.5t-143 -66.5t-45 -214.5q0 -149 45 -215.5t143 -66.5zM495 543l-10 30q69 0 69 40q0 17 -21 24t-21 28
q0 20 13 32t33 12q23 0 37 -15t14 -38q0 -112 -114 -113z" />
    <glyph glyph-name="ohorn" unicode="&#x1a1;" horiz-adv-x="472" 
d="M233 -10q-95 0 -146.5 58t-51.5 163q0 103 51.5 161t149.5 58q97 0 149 -57t52 -157q-3 -226 -204 -226zM236 17q59 0 84.5 45t25.5 147q0 103 -25.5 148.5t-84.5 45.5t-84.5 -45.5t-25.5 -148.5q0 -102 25.5 -147t84.5 -45zM358 371l-10 27q64 0 64 40q0 17 -22 24
t-22 28q0 20 13 32t33 12q23 0 36.5 -14.5t13.5 -38.5q0 -109 -106 -110z" />
    <glyph glyph-name="Uhorn" unicode="&#x1af;" horiz-adv-x="681" 
d="M344 -10q-252 0 -252 212v346q0 9 -5.5 15.5t-13.5 5.5l-38 -2v30h219v-30l-49 2h-2q-18 0 -18 -20v-350q0 -84 46.5 -131t130.5 -47q74 0 122 50.5t48 126.5v350q0 10 -5 16t-13 5l-49 -2v30h102v-408q0 -84 -62.5 -141.5t-160.5 -57.5zM566 566l-10 31q92 0 92 39
q0 16 -21 24t-21 28t13 32t33 12q23 0 37 -15t14 -38q0 -111 -137 -113z" />
    <glyph glyph-name="uhorn" unicode="&#x1b0;" horiz-adv-x="524" 
d="M195 -10q-67 0 -96.5 37t-29.5 121v228q0 20 -13 20l-36 -2v26h135v-272q0 -70 12.5 -97.5t48.5 -27.5q57 0 94 44t42 119l1 189q0 21 -12 21l-47 -2v26h146v-377q0 -19 13 -19l36 2v-26h-142q5 13 5 72v13q-44 -95 -157 -95zM429 392l-10 27q64 0 64 40q0 17 -22 24
t-22 28q0 20 13 32t33 12q23 0 36.5 -14.5t13.5 -38.5q0 -109 -106 -110z" />
    <glyph glyph-name="uni01C4" unicode="&#x1c4;" horiz-adv-x="1135" 
d="M50 0v29l43 -2q15 0 15 22v499q0 21 -19 21l-39 -2v30h225q162 0 237.5 -70.5t75.5 -227.5q0 -299 -301 -299h-237zM213 28h45q84 0 134 27q49 26 71.5 84.5t22.5 158.5q0 101 -22 158q-22 59 -72 86t-134 27h-45q-12 0 -12 -13v-515q0 -13 12 -13zM1107 -4q-11 4 -113 4
h-337v27l321 542h-152q-72 0 -106.5 -30.5t-34.5 -95.5h-27v157l51 -1q48 -2 58 -2h320v-24l-323 -546h174q69 0 109.5 37.5t40.5 102.5h27zM870 668q-4 0 -30 25l-24 24l-23 24q-23 23 -54 50q-7 5 -17 15q-8 8 -8 10q0 8 9 8t28 -12l119 -74l119 74q19 12 28 12t9 -8
q0 -3 -7 -10q-7 -8 -18 -15q-31 -27 -54 -50l-23 -24l-24 -24q-26 -25 -30 -25z" />
    <glyph glyph-name="uni01C5" unicode="&#x1c5;" horiz-adv-x="1064" 
d="M50 0v29l43 -2q15 0 15 22v499q0 21 -19 21l-39 -2v30h225q162 0 237.5 -70.5t75.5 -227.5q0 -299 -301 -299h-237zM213 28h45q84 0 134 27q49 26 71.5 84.5t22.5 158.5q0 101 -22 158q-22 59 -72 86t-134 27h-45q-12 0 -12 -13v-515q0 -13 12 -13zM657 -2v20l249 377
h-98q-50 0 -80.5 -30t-38.5 -85h-21l9 142q12 0 30 -1q17 -1 66 -1h238v-19l-246 -376h106q129 0 129 114h21v-139h-260l-84 -1q-6 -1 -20 -1zM848 501q-4 0 -30 25l-24 24l-23 24q-23 23 -54 50q-7 5 -17 15q-8 8 -8 10q0 8 9 8t28 -12l119 -74l119 74q19 12 28 12t9 -8
q0 -3 -7 -10t-18 -15q-31 -27 -54 -50l-23 -24l-24 -24q-26 -25 -30 -25z" />
    <glyph glyph-name="uni01C6" unicode="&#x1c6;" horiz-adv-x="937" 
d="M225 -10q-101 0 -145.5 53t-44.5 166q0 221 189 221q45 0 75 -22.5t40 -59.5v339q0 20 -13 20l-46 -2v25h146v-687q0 -19 13 -19l37 2v-26h-144q2 10 2 16v22q0 15 1 20t1 9q-25 -77 -111 -77zM225 17q60 0 86 39.5t26 127.5v42q0 177 -113 177q-52 0 -74.5 -48
t-22.5 -146q0 -73 9 -114q8 -41 29 -59.5t60 -18.5zM530 -2v20l249 377h-98q-50 0 -80.5 -30t-38.5 -85h-21l9 142q12 0 30 -1q17 -1 66 -1h238v-19l-246 -376h106q129 0 129 114h21v-139h-260l-84 -1q-6 -1 -20 -1zM721 501q-4 0 -30 25l-24 24l-23 24q-23 23 -54 50
q-7 5 -17 15q-8 8 -8 10q0 8 9 8q8 0 28 -12l119 -74l119 74q19 12 28 12t9 -8q0 -3 -7 -10q-8 -7 -18 -15q-31 -27 -54 -50l-23 -24l-24 -24q-26 -25 -30 -25z" />
    <glyph glyph-name="uni01C7" unicode="&#x1c7;" horiz-adv-x="965" 
d="M492 -3q-18 3 -124 3h-318v30l43 -3q15 0 15 22v499q0 9 -5.5 15.5t-13.5 5.5l-39 -2v30h220v-30l-49 2h-2q-18 0 -18 -21v-507q0 -13 12 -13h113q69 0 104.5 36.5t35.5 106.5h26v-174zM695 -10q-31 0 -81 9q-32 6 -41 6h-8q-21 0 -27 -6v173h36q0 -64 26.5 -110
t78.5 -46q48 0 69 37t21 126v369q0 9 -5.5 15.5t-13.5 5.5l-69 -2v30h239v-30l-38 2h-2q-18 0 -18 -20v-370q0 -189 -167 -189z" />
    <glyph glyph-name="uni01C8" unicode="&#x1c8;" horiz-adv-x="765" 
d="M492 -3q-18 3 -124 3h-318v30l43 -3q15 0 15 22v499q0 9 -5.5 15.5t-13.5 5.5l-39 -2v30h220v-30l-49 2h-2q-18 0 -18 -21v-507q0 -13 12 -13h113q69 0 104.5 36.5t35.5 106.5h26v-174zM542 -243q-45 0 -73 19.5t-28 47.5q0 20 13 32t34 12q35 0 35 -28q0 -6 -3 -16
t-3 -15q0 -25 31 -25q58 0 53 83q-2 58 -2 74v435q0 20 -13 20l-41 -2v26h140v-424q0 -239 -143 -239zM637 548q-25 0 -39.5 12.5t-14.5 35.5q0 22 15 34.5t39 12.5t39.5 -13t15.5 -34q0 -23 -15 -35.5t-40 -12.5z" />
    <glyph glyph-name="uni01C9" unicode="&#x1c9;" horiz-adv-x="506" 
d="M35 0v26l37 -2q13 3 13 19v644q0 17 -12 21l-37 -2v25h135v-688q0 -19 13 -19l36 2v-26h-185zM283 -243q-45 0 -73 19.5t-28 47.5q0 20 13 32t34 12q35 0 35 -28q0 -6 -3 -16t-3 -15q0 -25 31 -25q58 0 53 83q-2 58 -2 74v435q0 20 -13 20l-41 -2v26h140v-424
q0 -239 -143 -239zM378 548q-25 0 -39.5 12.5t-14.5 35.5q0 22 15 34.5t39 12.5t39.5 -13t15.5 -34q0 -23 -15 -35.5t-40 -12.5z" />
    <glyph glyph-name="uni01CA" unicode="&#x1ca;" horiz-adv-x="1113" 
d="M529 -6l-391 531v-476q0 -22 19 -22l49 2v-29h-161v29l39 -2q20 0 20 22v499q0 9 -5.5 15.5t-14.5 5.5l-39 -2v30h155l325 -442v394q0 20 -17 20h-3l-49 -2v30h161v-30l-39 2h-2q-17 0 -17 -21v-554h-30zM843 -10q-31 0 -81 9q-32 6 -41 6h-8q-21 0 -27 -6v173h36
q0 -64 26.5 -110t78.5 -46q48 0 69 37t21 126v369q0 9 -5.5 15.5t-13.5 5.5l-69 -2v30h239v-30l-38 2h-2q-18 0 -18 -20v-370q0 -189 -167 -189z" />
    <glyph glyph-name="uni01CB" unicode="&#x1cb;" horiz-adv-x="913" 
d="M529 -6l-391 531v-476q0 -22 19 -22l49 2v-29h-161v29l39 -2q20 0 20 22v499q0 9 -5.5 15.5t-14.5 5.5l-39 -2v30h155l325 -442v394q0 20 -17 20h-3l-49 -2v30h161v-30l-39 2h-2q-17 0 -17 -21v-554h-30zM690 -243q-45 0 -73 19.5t-28 47.5q0 20 13 32t34 12q35 0 35 -28
q0 -6 -3 -16t-3 -15q0 -25 31 -25q58 0 53 83q-2 58 -2 74v435q0 20 -13 20l-41 -2v26h140v-424q0 -239 -143 -239zM785 548q-25 0 -39.5 12.5t-14.5 35.5q0 22 15 34.5t39 12.5t39.5 -13t15.5 -34q0 -23 -15 -35.5t-40 -12.5z" />
    <glyph glyph-name="uni01CC" unicode="&#x1cc;" horiz-adv-x="776" 
d="M35 0v26l37 -2q13 3 13 19v333q0 17 -13 20l-37 -2v26h141q-5 -17 -5 -35v-55q21 48 60 74t90 26q71 0 102.5 -33.5t31.5 -108.5v-245q0 -19 13 -19l37 2v-26h-195v26l46 -2q13 3 13 19v227q0 72 -13.5 100t-53.5 28q-57 0 -92.5 -48.5t-38.5 -130.5v-176q0 -19 13 -19
l46 2v-26h-195zM553 -243q-45 0 -73 19.5t-28 47.5q0 20 13 32t34 12q35 0 35 -28q0 -6 -3 -16t-3 -15q0 -25 31 -25q58 0 53 83q-2 58 -2 74v435q0 20 -13 20l-41 -2v26h140v-424q0 -239 -143 -239zM648 548q-25 0 -39.5 12.5t-14.5 35.5q0 22 15 34.5t39 12.5t39.5 -13
t15.5 -34q0 -23 -15 -35.5t-40 -12.5z" />
    <glyph glyph-name="uni01CD" unicode="&#x1cd;" horiz-adv-x="601" 
d="M-20 0v29l26 -2h4q20 0 33 19q16 23 30 58l209 503h26l211 -505q13 -35 29 -57q14 -18 35 -18h5l33 2v-29h-265v29l49 -2q30 -3 30 24q0 18 -10 39l-49 118h-233l-46 -112q-14 -33 -14 -50q0 -21 22 -20l48 3v-29h-173zM296 668q-4 0 -30 25l-24 24l-23 24q-23 23 -54 50
q-7 5 -17 15q-8 8 -8 10q0 8 9 8t28 -12l119 -74l119 74q19 12 28 12t9 -8q0 -3 -7 -10q-7 -8 -18 -15q-31 -27 -54 -50l-23 -24l-24 -24q-26 -25 -30 -25zM155 236h209l-105 252z" />
    <glyph glyph-name="uni01CE" unicode="&#x1ce;" horiz-adv-x="450" 
d="M155 -10q-128 0 -128 113q0 77 64.5 113.5t202.5 36.5v63q0 47 -22 67t-71 20q-76 0 -76 -42q0 -6 5 -18q4 -9 4 -20q0 -34 -39 -34q-21 0 -32.5 13t-11.5 34q0 42 44 68t118 26q167 0 167 -141v-246q0 -19 13 -19l37 2v-26h-142q4 17 4 37l2 39q-41 -86 -139 -86z
M185 26q44 0 75 39t34 97v64q-94 0 -135 -27t-41 -88q0 -45 16.5 -66t50.5 -19zM221 501q-4 0 -30 25l-24 24l-23 24q-23 23 -54 50q-7 5 -17 15q-8 8 -8 10q0 8 9 8q8 0 28 -12l119 -74l119 74q20 12 28 12q9 0 9 -8q0 -3 -7 -10q-8 -7 -18 -15q-31 -27 -54 -50l-23 -24
l-24 -24q-26 -25 -30 -25z" />
    <glyph glyph-name="uni01CF" unicode="&#x1cf;" horiz-adv-x="310" 
d="M50 0v29l39 -2q19 0 19 22v499q0 9 -5 15.5t-14 5.5l-39 -2v30h210v-30l-39 2h-2q-18 0 -18 -21v-499q0 -22 20 -22l39 2v-29h-210zM154 668q-4 0 -30 25l-24 24l-23 24q-23 23 -54 50q-7 5 -17 15q-8 8 -8 10q0 8 9 8t28 -12l119 -74l119 74q19 12 28 12t9 -8
q0 -3 -7 -10q-7 -8 -18 -15q-31 -27 -54 -50l-23 -24l-24 -24q-26 -25 -30 -25z" />
    <glyph glyph-name="uni01D0" unicode="&#x1d0;" horiz-adv-x="255" 
d="M35 0v26l37 -2q13 0 13 19v333q0 17 -12 20l-37 -2v26h135v-377q0 -19 13 -19l36 2v-26h-185zM127 501q-4 0 -30 25l-24 24l-23 24q-23 23 -54 50q-10 8 -18 15q-7 7 -7 10q0 8 9 8t28 -12l119 -74l119 74q19 12 28 12t9 -8q0 -3 -7 -10q-8 -7 -18 -15q-31 -27 -54 -50
l-23 -24l-24 -24q-26 -25 -30 -25z" />
    <glyph glyph-name="uni01D1" unicode="&#x1d1;" horiz-adv-x="670" 
d="M335 -10q-137 0 -213.5 81t-76.5 228q0 148 76 228t214 80t214 -80.5t76 -227.5t-76.5 -228t-213.5 -81zM335 17q98 0 143 66.5t45 215.5q0 148 -45 214.5t-143 66.5t-143 -66.5t-45 -214.5q0 -149 45 -215.5t143 -66.5zM335 668q-4 0 -30 25l-24 24l-23 24
q-23 23 -54 50q-7 5 -17 15q-8 8 -8 10q0 8 9 8q8 0 28 -12l119 -74l119 74q20 12 28 12q9 0 9 -8q0 -3 -7 -10q-8 -8 -18 -15q-31 -27 -54 -50l-23 -24l-24 -24q-26 -25 -30 -25z" />
    <glyph glyph-name="uni01D2" unicode="&#x1d2;" horiz-adv-x="472" 
d="M233 -10q-95 0 -146.5 58t-51.5 163q0 103 51.5 161t149.5 58q97 0 149 -57t52 -157q-3 -226 -204 -226zM236 17q59 0 84.5 45t25.5 147q0 103 -25.5 148.5t-84.5 45.5t-84.5 -45.5t-25.5 -148.5q0 -102 25.5 -147t84.5 -45zM236 501q-4 0 -30 25l-24 24l-23 24
q-23 23 -54 50q-7 5 -17 15q-8 8 -8 10q0 8 9 8t28 -12l119 -74l119 74q19 12 28 12t9 -8q0 -3 -7 -10t-18 -15q-31 -27 -54 -50l-23 -24l-24 -24q-26 -25 -30 -25z" />
    <glyph glyph-name="uni01D3" unicode="&#x1d3;" horiz-adv-x="651" 
d="M344 -10q-252 0 -252 212v346q0 9 -5.5 15.5t-13.5 5.5l-38 -2v30h219v-30l-49 2h-2q-18 0 -18 -20v-350q0 -84 46.5 -131t130.5 -47q74 0 122 50.5t48 126.5v350q0 10 -5 16t-13 5l-49 -2v30h161v-30l-39 2h-2q-18 0 -18 -20v-360q0 -84 -62.5 -141.5t-160.5 -57.5z
M356 668q-4 0 -30 25l-24 24l-23 24q-23 23 -54 50q-7 5 -17 15q-8 8 -8 10q0 8 9 8t28 -12l119 -74l119 74q20 12 28 12q9 0 9 -8q0 -3 -7 -10q-7 -8 -18 -15q-31 -27 -54 -50l-23 -24l-24 -24q-26 -25 -30 -25z" />
    <glyph glyph-name="uni01D4" unicode="&#x1d4;" horiz-adv-x="524" 
d="M195 -10q-67 0 -96.5 37t-29.5 121v228q0 20 -13 20l-36 -2v26h135v-272q0 -70 12.5 -97.5t48.5 -27.5q57 0 94 44t42 119l1 189q0 21 -12 21l-47 -2v26h146v-377q0 -19 13 -19l36 2v-26h-142q5 13 5 72v13q-44 -95 -157 -95zM239 501q-4 0 -30 25l-24 24l-23 24
q-23 23 -54 50q-7 5 -17 15q-8 8 -8 10q0 8 9 8q8 0 28 -12l119 -74l119 74q20 12 28 12q9 0 9 -8q0 -3 -7 -10q-8 -7 -18 -15q-31 -27 -54 -50l-23 -24l-24 -24q-26 -25 -30 -25z" />
    <glyph glyph-name="uni01D5" unicode="&#x1d5;" horiz-adv-x="651" 
d="M344 -10q-252 0 -252 212v346q0 9 -5.5 15.5t-13.5 5.5l-38 -2v30h219v-30l-49 2h-2q-18 0 -18 -20v-350q0 -84 46.5 -131t130.5 -47q74 0 122 50.5t48 126.5v350q0 10 -5 16t-13 5l-49 -2v30h161v-30l-39 2h-2q-18 0 -18 -20v-360q0 -84 -62.5 -141.5t-160.5 -57.5z
M457 696q-24 0 -39 13.5t-15 34.5t15.5 35t38.5 14q22 0 38 -14t16 -35t-15 -34.5t-39 -13.5zM262 696q-24 0 -39 13.5t-15 34.5t15.5 35t38.5 14q22 0 38 -14t16 -35t-15 -34.5t-39 -13.5zM231 851v40h259v-40h-259z" />
    <glyph glyph-name="uni01D6" unicode="&#x1d6;" horiz-adv-x="524" 
d="M195 -10q-67 0 -96.5 37t-29.5 121v228q0 20 -13 20l-36 -2v26h135v-272q0 -70 12.5 -97.5t48.5 -27.5q57 0 94 44t42 119l1 189q0 21 -12 21l-47 -2v26h146v-377q0 -19 13 -19l36 2v-26h-142q5 13 5 72v13q-44 -95 -157 -95zM336 547q-24 0 -39 13.5t-15 34.5t15.5 35
t38.5 14q22 0 38 -14t16 -35t-15 -34.5t-39 -13.5zM141 547q-24 0 -39 13.5t-15 34.5t15.5 35t38.5 14q22 0 38 -14t16 -35t-15 -34.5t-39 -13.5zM110 702v40h259v-40h-259z" />
    <glyph glyph-name="uni01D7" unicode="&#x1d7;" horiz-adv-x="651" 
d="M344 -10q-252 0 -252 212v346q0 9 -5.5 15.5t-13.5 5.5l-38 -2v30h219v-30l-49 2h-2q-18 0 -18 -20v-350q0 -84 46.5 -131t130.5 -47q74 0 122 50.5t48 126.5v350q0 10 -5 16t-13 5l-49 -2v30h161v-30l-39 2h-2q-18 0 -18 -20v-360q0 -84 -62.5 -141.5t-160.5 -57.5z
M353 818q-15 0 -15 7q0 4 17 23l64 70q5 6 19 20q4 3 14 3q15 0 33.5 -9t18.5 -15t-9 -12l-109 -72q-22 -15 -33 -15zM262 696q-24 0 -39 13.5t-15 34.5t15.5 35t38.5 14q22 0 38 -14t16 -35t-15 -34.5t-39 -13.5zM457 696q-24 0 -39 13.5t-15 34.5t15.5 35t38.5 14
q22 0 38 -14t16 -35t-15 -34.5t-39 -13.5z" />
    <glyph glyph-name="uni01D8" unicode="&#x1d8;" horiz-adv-x="524" 
d="M195 -10q-67 0 -96.5 37t-29.5 121v228q0 20 -13 20l-36 -2v26h135v-272q0 -70 12.5 -97.5t48.5 -27.5q57 0 94 44t42 119l1 189q0 21 -12 21l-47 -2v26h146v-377q0 -19 13 -19l36 2v-26h-142q5 13 5 72v13q-44 -95 -157 -95zM232 669q-15 0 -15 7q0 4 17 23l64 70
q4 5 19 20q4 3 14 3q15 0 33.5 -9t18.5 -15t-9 -12l-109 -72q-23 -15 -33 -15zM141 547q-24 0 -39 13.5t-15 34.5t15.5 35t38.5 14q22 0 38 -14t16 -35t-15 -34.5t-39 -13.5zM336 547q-24 0 -39 13.5t-15 34.5t15.5 35t38.5 14q22 0 38 -14t16 -35t-15 -34.5t-39 -13.5z" />
    <glyph glyph-name="uni01D9" unicode="&#x1d9;" horiz-adv-x="651" 
d="M344 -10q-252 0 -252 212v346q0 9 -5.5 15.5t-13.5 5.5l-38 -2v30h219v-30l-49 2h-2q-18 0 -18 -20v-350q0 -84 46.5 -131t130.5 -47q74 0 122 50.5t48 126.5v350q0 10 -5 16t-13 5l-49 -2v30h161v-30l-39 2h-2q-18 0 -18 -20v-360q0 -84 -62.5 -141.5t-160.5 -57.5z
M359 803q-1 0 -27 23l-22 22l-21 22q-13 14 -49 45q-11 10 -15 14q-7 6 -7 9q0 7 8 7t25 -11l108 -67l108 67q17 11 26 11q8 0 8 -7q0 -3 -7 -9q-4 -4 -16 -14q-32 -24 -49 -45l-21 -22l-22 -22q-25 -23 -27 -23zM262 696q-24 0 -39 13.5t-15 34.5t15.5 35t38.5 14
q22 0 38 -14t16 -35t-15 -34.5t-39 -13.5zM457 696q-24 0 -39 13.5t-15 34.5t15.5 35t38.5 14q22 0 38 -14t16 -35t-15 -34.5t-39 -13.5z" />
    <glyph glyph-name="uni01DA" unicode="&#x1da;" horiz-adv-x="524" 
d="M195 -10q-67 0 -96.5 37t-29.5 121v228q0 20 -13 20l-36 -2v26h135v-272q0 -70 12.5 -97.5t48.5 -27.5q57 0 94 44t42 119l1 189q0 21 -12 21l-47 -2v26h146v-377q0 -19 13 -19l36 2v-26h-142q5 13 5 72v13q-44 -95 -157 -95zM238 654q-1 0 -27 23l-22 22l-21 22
q-13 14 -49 45q-11 9 -15 14q-7 6 -7 9q0 7 8 7t25 -11l108 -67l108 67q17 11 26 11q8 0 8 -7q0 -3 -7 -9q-4 -4 -16 -14q-36 -31 -49 -45l-21 -22l-22 -22q-25 -23 -27 -23zM141 547q-24 0 -39 13.5t-15 34.5t15.5 35t38.5 14q22 0 38 -14t16 -35t-15 -34.5t-39 -13.5z
M336 547q-24 0 -39 13.5t-15 34.5t15.5 35t38.5 14q22 0 38 -14t16 -35t-15 -34.5t-39 -13.5z" />
    <glyph glyph-name="uni01DB" unicode="&#x1db;" horiz-adv-x="651" 
d="M344 -10q-252 0 -252 212v346q0 9 -5.5 15.5t-13.5 5.5l-38 -2v30h219v-30l-49 2h-2q-18 0 -18 -20v-350q0 -84 46.5 -131t130.5 -47q74 0 122 50.5t48 126.5v350q0 10 -5 16t-13 5l-49 -2v30h161v-30l-39 2h-2q-18 0 -18 -20v-360q0 -84 -62.5 -141.5t-160.5 -57.5z
M359 818q-11 0 -33 15l-109 72q-9 6 -9 12t18.5 15t33.5 9q10 0 14 -3q14 -14 19 -20l64 -70q17 -19 17 -23q0 -7 -15 -7zM255 696q-24 0 -39 13.5t-15 34.5t16 35t38 14q23 0 38.5 -14t15.5 -35t-15 -34.5t-39 -13.5zM450 696q-24 0 -39 13.5t-15 34.5t16 35t38 14
q23 0 38.5 -14t15.5 -35t-15 -34.5t-39 -13.5z" />
    <glyph glyph-name="uni01DC" unicode="&#x1dc;" horiz-adv-x="524" 
d="M195 -10q-67 0 -96.5 37t-29.5 121v228q0 20 -13 20l-36 -2v26h135v-272q0 -70 12.5 -97.5t48.5 -27.5q57 0 94 44t42 119l1 189q0 21 -12 21l-47 -2v26h146v-377q0 -19 13 -19l36 2v-26h-142q5 13 5 72v13q-44 -95 -157 -95zM246 669q-10 0 -33 15l-109 72q-9 6 -9 12
t18.5 15t33.5 9q9 0 14 -3q15 -15 19 -20l64 -70q17 -19 17 -23q0 -7 -15 -7zM142 547q-24 0 -39 13.5t-15 34.5t16 35t38 14q23 0 38.5 -14t15.5 -35t-15 -34.5t-39 -13.5zM337 547q-24 0 -39 13.5t-15 34.5t16 35t38 14q23 0 38.5 -14t15.5 -35t-15 -34.5t-39 -13.5z" />
    <glyph glyph-name="Gcaron" unicode="&#x1e6;" horiz-adv-x="646" 
d="M335 -10q-135 0 -212.5 78.5t-77.5 226.5q0 153 77 232.5t221 79.5q75 0 153 -29q41 -16 57 -14q-4 -17 -4 -69q0 -19 4 -62h-40q1 3 1 15q0 63 -44.5 98.5t-129.5 35.5q-89 0 -141 -74.5t-52 -212.5q2 -278 198 -278q46 0 73.5 9.5t54.5 36.5v160q0 11 -4.5 17t-14.5 5
l-59 -2v29h231v-29l-41 2q-19 0 -19 -21v-189q-3 1 -13 1q-21 0 -63 -16q-86 -30 -155 -30zM330 668q-4 0 -30 25l-24 24l-23 24q-23 23 -54 50q-7 5 -17 15q-8 8 -8 10q0 8 9 8q8 0 28 -12l119 -74l119 74q20 12 28 12q9 0 9 -8q0 -3 -7 -10q-7 -8 -18 -15q-31 -27 -54 -50
l-23 -24l-24 -24q-26 -25 -30 -25z" />
    <glyph glyph-name="gcaron" unicode="&#x1e7;" horiz-adv-x="460" 
d="M215 -245q-88 0 -135.5 34t-47.5 99q0 76 90 117q-74 14 -74 66q0 18 10 31.5t37 35.5l27 22q-65 44 -65 120q0 67 47.5 108.5t122.5 41.5q82 0 126.5 -40.5t44.5 -109.5q0 -66 -47 -107.5t-124 -41.5q-42 0 -78 15q-34 -21 -34 -44q0 -37 56 -37h133q76 0 112.5 -32.5
t36.5 -106.5q0 -77 -65.5 -124t-172.5 -47zM214 -219q82 0 127.5 37.5t45.5 100.5q0 81 -98 81h-100q-42 0 -75 -34t-33 -76q0 -50 34.5 -79.5t98.5 -29.5zM227 154q47 0 64.5 28t17.5 98q0 67 -18.5 95t-63.5 28q-46 0 -63.5 -26.5t-17.5 -96.5q0 -69 15.5 -97.5
t65.5 -28.5zM345 388l-37 29q31 -12 53 -3.5t22 34.5q0 11 -14 20q-15 9 -15 25q0 39 41 39q45 0 45 -51q0 -82 -95 -93zM227 501q-4 0 -30 25l-24 24l-23 24q-23 23 -54 50q-7 5 -17 15q-8 8 -8 10q0 8 9 8q8 0 28 -12l119 -74l119 74q19 12 28 12t9 -8q0 -3 -7 -10
q-8 -7 -18 -15q-31 -27 -54 -50l-23 -24l-24 -24q-26 -25 -30 -25z" />
    <glyph glyph-name="uni01EA" unicode="&#x1ea;" horiz-adv-x="670" 
d="M335 -10q-137 0 -213.5 81t-76.5 228q0 148 76 228t214 80t214 -80.5t76 -227.5t-76.5 -228t-213.5 -81zM335 17q98 0 143 66.5t45 215.5q0 148 -45 214.5t-143 66.5t-143 -66.5t-45 -214.5q0 -149 45 -215.5t143 -66.5zM437 -159q-31 0 -52.5 19.5t-21.5 52.5
q0 66 75 101h28q-51 -24 -51 -76q0 -25 15 -39.5t43 -14.5q35 0 70 29l12 -12q-51 -60 -118 -60z" />
    <glyph glyph-name="uni01EB" unicode="&#x1eb;" horiz-adv-x="472" 
d="M233 -10q-95 0 -146.5 58t-51.5 163q0 103 51.5 161t149.5 58q97 0 149 -57t52 -157q-3 -226 -204 -226zM236 17q59 0 84.5 45t25.5 147q0 103 -25.5 148.5t-84.5 45.5t-84.5 -45.5t-25.5 -148.5q0 -102 25.5 -147t84.5 -45zM314 -159q-31 0 -52.5 19.5t-21.5 52.5
q0 66 75 101h28q-51 -24 -51 -76q0 -25 15 -39.5t43 -14.5q35 0 70 29l12 -12q-51 -60 -118 -60z" />
    <glyph glyph-name="Aringacute" unicode="&#x1fa;" horiz-adv-x="601" 
d="M-20 0v29l26 -2h4q20 0 33 19q16 23 30 58l209 503h26l211 -505q13 -35 29 -57q14 -18 35 -18h5l33 2v-29h-265v29l49 -2q30 -3 30 24q0 18 -10 39l-49 118h-233l-46 -112q-14 -33 -14 -50q0 -21 22 -20l48 3v-29h-173zM296 666q-34 0 -58.5 24t-24.5 58t24 57.5t59 23.5
t59.5 -23.5t24.5 -57.5t-24.5 -58t-59.5 -24zM296 702q19 0 30.5 12.5t11.5 33.5q0 20 -11.5 32.5t-30.5 12.5t-30 -12.5t-11 -32.5q0 -21 11 -33.5t30 -12.5zM277 864q-15 0 -15 7q0 4 17 23l64 70q4 6 19 20q4 3 14 3q15 0 33.5 -9t18.5 -15t-9 -12l-109 -72
q-22 -15 -33 -15zM155 236h209l-105 252z" />
    <glyph glyph-name="aringacute" unicode="&#x1fb;" horiz-adv-x="450" 
d="M155 -10q-128 0 -128 113q0 77 64.5 113.5t202.5 36.5v63q0 47 -22 67t-71 20q-76 0 -76 -42q0 -6 5 -18q4 -9 4 -20q0 -34 -39 -34q-21 0 -32.5 13t-11.5 34q0 42 44 68t118 26q167 0 167 -141v-246q0 -19 13 -19l37 2v-26h-142q4 17 4 37l2 39q-41 -86 -139 -86z
M185 26q44 0 75 39t34 97v64q-94 0 -135 -27t-41 -88q0 -45 16.5 -66t50.5 -19zM221 493q-34 0 -58.5 24t-24.5 58t24 57.5t59 23.5t59.5 -23.5t24.5 -57.5t-24.5 -58t-59.5 -24zM221 529q19 0 30.5 12.5t11.5 33.5q0 20 -11.5 32.5t-30.5 12.5t-30 -12.5t-11 -32.5
q0 -21 11 -33.5t30 -12.5zM202 691q-15 0 -15 7q0 4 17 23l64 70q5 5 19 20q4 3 14 3q15 0 33.5 -9t18.5 -15t-9 -12l-109 -72q-23 -15 -33 -15z" />
    <glyph glyph-name="AEacute" unicode="&#x1fc;" horiz-adv-x="847" 
d="M803 -3q-36 3 -88 3h-345v30l57 -3q12 -1 18 7t4 18l-29 156h-246l-76 -128q-14 -26 -14 -38q0 -17 20 -15l51 3v-30h-175v30l31 -3q13 -1 26 11q10 11 34 48l279 457q2 4 2 8q0 7 -5 11.5t-12 4.5l-51 -2v32h465q16 0 34 2v-156h-26q0 65 -34.5 95.5t-107.5 30.5h-164
l45 -245h83q33 0 54.5 28.5t21.5 73.5h26v-231h-26q0 45 -21.5 73.5t-54.5 28.5h-79l48 -251q4 -19 21 -19h66q141 0 141 144h27v-174zM406 666q-13 0 -13 8q0 4 18 23l95 104q15 17 21 21q4 4 15 4q16 0 36.5 -10t20.5 -16t-10 -13l-163 -112q-12 -9 -20 -9zM190 236h224
l-52 279z" />
    <glyph glyph-name="aeacute" unicode="&#x1fd;" horiz-adv-x="710" 
d="M508 -10q-142 0 -190 97q-47 -92 -146 -92q-68 0 -106.5 26t-38.5 77q0 79 63 111.5t204 32.5v74q0 47 -22 67t-71 20q-76 0 -76 -42q0 -6 5 -18q4 -9 4 -20q0 -34 -39 -34q-21 0 -32.5 13t-11.5 34q0 42 44 68t118 26q99 0 139 -49q65 49 148 49q175 0 175 -213h-294
q0 -91 34.5 -142.5t98.5 -51.5q39 0 78.5 25t57.5 62l24 -18q-21 -47 -66.5 -74.5t-99.5 -27.5zM191 28q48 0 75.5 38.5t27.5 110.5v40q-91 0 -133.5 -30.5t-42.5 -93.5q0 -65 73 -65zM381 242h199q10 0 10 28q0 133 -89 133q-62 0 -91 -39.5t-29 -121.5zM292 493
q-13 0 -13 8q0 3 18 23l95 104q15 16 21 21q4 4 15 4q16 0 36.5 -10t20.5 -16t-10 -13l-163 -112q-12 -7 -20 -9z" />
    <glyph glyph-name="Oslashacute" unicode="&#x1fe;" horiz-adv-x="670" 
d="M335 -10q-137 0 -213.5 81t-76.5 228q0 148 76 228t214 80t214 -80.5t76 -227.5t-76.5 -228t-213.5 -81zM335 17q98 0 143 66.5t45 215.5q0 148 -45 214.5t-143 66.5t-143 -66.5t-45 -214.5q0 -149 45 -215.5t143 -66.5zM274 666q-13 0 -13 8q0 4 18 23l95 104
q15 17 21 21q4 4 15 4q16 0 36.5 -10t20.5 -16t-10 -13l-163 -112q-12 -9 -20 -9zM121 -100l-37 17l68 115l378 645l37 -20z" />
    <glyph glyph-name="oslashacute" unicode="&#x1ff;" horiz-adv-x="472" 
d="M233 -10q-95 0 -146.5 58t-51.5 163q0 103 51.5 161t149.5 58q97 0 149 -57t52 -157q-3 -226 -204 -226zM236 17q59 0 84.5 45t25.5 147q0 103 -25.5 148.5t-84.5 45.5t-84.5 -45.5t-25.5 -148.5q0 -102 25.5 -147t84.5 -45zM175 493q-13 0 -13 8q0 3 18 23l95 104
q15 16 21 21q4 4 15 4q16 0 36.5 -10t20.5 -16t-10 -13l-163 -112q-12 -7 -20 -9zM95 -85l-38 18l319 570l35 -20z" />
    <glyph glyph-name="uni0200" unicode="&#x200;" horiz-adv-x="601" 
d="M-20 0v29l26 -2h4q20 0 33 19q16 23 30 58l209 503h26l211 -505q13 -35 29 -57q14 -18 35 -18h5l33 2v-29h-265v29l49 -2q30 -3 30 24q0 18 -10 39l-49 118h-233l-46 -112q-14 -33 -14 -50q0 -21 22 -20l48 3v-29h-173zM364 666q-9 0 -15 6q-31 31 -59 58.5t-43 42.5
l-16 16q-6 7 -6 12q0 7 9 12q31 13 43 13q7 0 13 -9q2 -7 63 -106l17 -28q3 -6 3 -9q0 -8 -9 -8zM244 666q-9 0 -15 6l-118 117q-6 7 -6 12q0 7 9 12q31 13 43 13q7 0 13 -9q2 -7 63 -106l17 -28q3 -6 3 -9q0 -8 -9 -8zM155 236h209l-105 252z" />
    <glyph glyph-name="uni0201" unicode="&#x201;" horiz-adv-x="450" 
d="M155 -10q-128 0 -128 113q0 77 64.5 113.5t202.5 36.5v63q0 47 -22 67t-71 20q-76 0 -76 -42q0 -6 5 -18q4 -9 4 -20q0 -34 -39 -34q-21 0 -32.5 13t-11.5 34q0 42 44 68t118 26q167 0 167 -141v-246q0 -19 13 -19l37 2v-26h-142q4 17 4 37l2 39q-41 -86 -139 -86z
M185 26q44 0 75 39t34 97v64q-94 0 -135 -27t-41 -88q0 -45 16.5 -66t50.5 -19zM287 493q-9 0 -15 6q-72 71 -118 117q-6 8 -6 12q0 8 9 12q31 13 43 13q7 0 13 -9q5 -5 63 -106l17 -28q3 -6 3 -9q0 -8 -9 -8zM167 493q-9 0 -15 6l-118 117q-6 8 -6 12q0 8 9 12q31 13 43 13
q7 0 13 -9q5 -5 63 -106l17 -28q3 -6 3 -9q0 -8 -9 -8z" />
    <glyph glyph-name="uni0202" unicode="&#x202;" horiz-adv-x="601" 
d="M-20 0v29l26 -2h4q20 0 33 19q16 23 30 58l209 503h26l211 -505q13 -35 29 -57q14 -18 35 -18h5l33 2v-29h-265v29l49 -2q30 -3 30 24q0 18 -10 39l-49 118h-233l-46 -112q-14 -33 -14 -50q0 -21 22 -20l48 3v-29h-173zM161 666q7 58 42.5 91t93.5 33t93 -33t42 -91h-38
q-19 74 -97 74q-39 0 -64 -20.5t-34 -53.5h-38zM155 236h209l-105 252z" />
    <glyph glyph-name="uni0203" unicode="&#x203;" horiz-adv-x="450" 
d="M155 -10q-128 0 -128 113q0 77 64.5 113.5t202.5 36.5v63q0 47 -22 67t-71 20q-76 0 -76 -42q0 -6 5 -18q4 -9 4 -20q0 -34 -39 -34q-21 0 -32.5 13t-11.5 34q0 42 44 68t118 26q167 0 167 -141v-246q0 -19 13 -19l37 2v-26h-142q4 17 4 37l2 39q-41 -86 -139 -86z
M185 26q44 0 75 39t34 97v64q-94 0 -135 -27t-41 -88q0 -45 16.5 -66t50.5 -19zM86 518q7 58 42.5 91t93.5 33t93 -33t42 -91h-38q-19 74 -97 74q-39 0 -64 -20.5t-34 -53.5h-38z" />
    <glyph glyph-name="uni0204" unicode="&#x204;" horiz-adv-x="563" 
d="M519 -3q-23 3 -88 3h-381v30l40 -3q18 0 18 22v499q0 9 -5.5 15.5t-14.5 5.5l-38 -2v30h422q15 0 17 1v-155h-27q0 67 -33.5 96.5t-108.5 29.5h-107q-12 0 -12 -14v-230h94q34 0 55 27t21 74h27v-231h-27q0 44 -22.5 73t-53.5 29h-94v-256q0 -13 12 -13h140
q68 0 103.5 39t35.5 112h27v-182zM362 666q-9 0 -15 6q-31 31 -59 58.5t-43 42.5l-16 16q-6 7 -6 12q0 7 9 12q31 13 43 13q7 0 13 -9q2 -7 63 -106l17 -28q3 -6 3 -9q0 -8 -9 -8zM242 666q-9 0 -15 6l-118 117q-6 7 -6 12q0 7 9 12q31 13 43 13q7 0 13 -9q2 -7 63 -106
l17 -28q3 -6 3 -9q0 -8 -9 -8z" />
    <glyph glyph-name="uni0205" unicode="&#x205;" horiz-adv-x="449" 
d="M238 -10q-203 0 -203 219q0 109 51 165t150 56q79 0 127.5 -51t50.5 -138v-29h-288q0 -188 126 -189q48 0 83 24t52 63l23 -17q-20 -47 -67 -75t-105 -28zM127 237h182q20 0 20 33q0 69 -21.5 101t-71.5 32q-54 0 -81.5 -44.5t-27.5 -121.5zM303 493q-9 0 -15 6
q-72 71 -118 117q-6 8 -6 12q0 8 9 12q31 13 43 13q7 0 13 -9q5 -5 63 -106l17 -28q3 -6 3 -9q0 -8 -9 -8zM183 493q-9 0 -15 6l-118 117q-6 8 -6 12q0 8 9 12q31 13 43 13q7 0 13 -9q5 -5 63 -106l17 -28q3 -6 3 -9q0 -8 -9 -8z" />
    <glyph glyph-name="uni0206" unicode="&#x206;" horiz-adv-x="563" 
d="M519 -3q-23 3 -88 3h-381v30l40 -3q18 0 18 22v499q0 9 -5.5 15.5t-14.5 5.5l-38 -2v30h422q15 0 17 1v-155h-27q0 67 -33.5 96.5t-108.5 29.5h-107q-12 0 -12 -14v-230h94q34 0 55 27t21 74h27v-231h-27q0 44 -22.5 73t-53.5 29h-94v-256q0 -13 12 -13h140
q68 0 103.5 39t35.5 112h27v-182zM159 666q7 58 42.5 91t93.5 33t93 -33t42 -91h-38q-19 74 -97 74q-39 0 -64 -20.5t-34 -53.5h-38z" />
    <glyph glyph-name="uni0207" unicode="&#x207;" horiz-adv-x="449" 
d="M238 -10q-203 0 -203 219q0 109 51 165t150 56q79 0 127.5 -51t50.5 -138v-29h-288q0 -188 126 -189q48 0 83 24t52 63l23 -17q-20 -47 -67 -75t-105 -28zM127 237h182q20 0 20 33q0 69 -21.5 101t-71.5 32q-54 0 -81.5 -44.5t-27.5 -121.5zM102 518q7 58 42.5 91
t93.5 33t93 -33t42 -91h-38q-19 74 -97 74q-39 0 -64 -20.5t-34 -53.5h-38z" />
    <glyph glyph-name="uni0208" unicode="&#x208;" horiz-adv-x="310" 
d="M50 0v29l39 -2q19 0 19 22v499q0 9 -5 15.5t-14 5.5l-39 -2v30h210v-30l-39 2h-2q-18 0 -18 -21v-499q0 -22 20 -22l39 2v-29h-210zM222 666q-9 0 -15 6q-31 31 -59 58.5t-43 42.5l-16 16q-6 7 -6 12q0 7 9 12q31 13 43 13q7 0 13 -9q2 -7 63 -106l17 -28q3 -6 3 -9
q0 -8 -9 -8zM102 666q-9 0 -15 6l-118 117q-6 7 -6 12q0 7 9 12q31 13 43 13q7 0 13 -9q2 -7 63 -106l17 -28q3 -6 3 -9q0 -8 -9 -8z" />
    <glyph glyph-name="uni0209" unicode="&#x209;" horiz-adv-x="255" 
d="M35 0v26l37 -2q13 0 13 19v333q0 17 -12 20l-37 -2v26h135v-377q0 -19 13 -19l36 2v-26h-185zM193 493q-9 0 -15 6q-72 71 -118 117q-6 8 -6 12q0 8 9 12q31 13 43 13q7 0 13 -9q5 -5 63 -106l17 -28q3 -6 3 -9q0 -8 -9 -8zM73 493q-9 0 -15 6l-118 117q-6 8 -6 12
q0 8 9 12q31 13 43 13q7 0 13 -9q5 -5 63 -106l17 -28q3 -6 3 -9q0 -8 -9 -8z" />
    <glyph glyph-name="uni020A" unicode="&#x20a;" horiz-adv-x="310" 
d="M50 0v29l39 -2q19 0 19 22v499q0 9 -5 15.5t-14 5.5l-39 -2v30h210v-30l-39 2h-2q-18 0 -18 -21v-499q0 -22 20 -22l39 2v-29h-210zM19 666q7 58 42.5 91t93.5 33t93 -33t42 -91h-38q-19 74 -97 74q-39 0 -64 -20.5t-34 -53.5h-38z" />
    <glyph glyph-name="uni020B" unicode="&#x20b;" horiz-adv-x="255" 
d="M35 0v26l37 -2q13 0 13 19v333q0 17 -12 20l-37 -2v26h135v-377q0 -19 13 -19l36 2v-26h-185zM-8 518q7 58 42.5 91t93.5 33t93 -33t42 -91h-38q-19 74 -97 74q-39 0 -64 -20.5t-34 -53.5h-38z" />
    <glyph glyph-name="uni020C" unicode="&#x20c;" horiz-adv-x="670" 
d="M335 -10q-137 0 -213.5 81t-76.5 228q0 148 76 228t214 80t214 -80.5t76 -227.5t-76.5 -228t-213.5 -81zM335 17q98 0 143 66.5t45 215.5q0 148 -45 214.5t-143 66.5t-143 -66.5t-45 -214.5q0 -149 45 -215.5t143 -66.5zM403 666q-9 0 -15 6q-31 31 -59 58.5t-43 42.5
l-16 16q-6 7 -6 12q0 7 9 12q31 13 43 13q7 0 13 -9q2 -7 63 -106l17 -28q3 -6 3 -9q0 -8 -9 -8zM283 666q-9 0 -15 6l-118 117q-6 7 -6 12q0 7 9 12q31 13 43 13q7 0 13 -9q2 -7 63 -106l17 -28q3 -6 3 -9q0 -8 -9 -8z" />
    <glyph glyph-name="uni020D" unicode="&#x20d;" horiz-adv-x="472" 
d="M233 -10q-95 0 -146.5 58t-51.5 163q0 103 51.5 161t149.5 58q97 0 149 -57t52 -157q-3 -226 -204 -226zM236 17q59 0 84.5 45t25.5 147q0 103 -25.5 148.5t-84.5 45.5t-84.5 -45.5t-25.5 -148.5q0 -102 25.5 -147t84.5 -45zM302 493q-9 0 -15 6q-72 71 -118 117
q-6 8 -6 12q0 8 9 12q31 13 43 13q7 0 13 -9q5 -5 63 -106l17 -28q3 -6 3 -9q0 -8 -9 -8zM182 493q-9 0 -15 6l-118 117q-6 8 -6 12q0 8 9 12q31 13 43 13q7 0 13 -9q5 -5 63 -106l17 -28q3 -6 3 -9q0 -8 -9 -8z" />
    <glyph glyph-name="uni020E" unicode="&#x20e;" horiz-adv-x="670" 
d="M335 -10q-137 0 -213.5 81t-76.5 228q0 148 76 228t214 80t214 -80.5t76 -227.5t-76.5 -228t-213.5 -81zM335 17q98 0 143 66.5t45 215.5q0 148 -45 214.5t-143 66.5t-143 -66.5t-45 -214.5q0 -149 45 -215.5t143 -66.5zM200 666q7 58 42.5 91t93.5 33t93 -33t42 -91h-38
q-19 74 -97 74q-39 0 -64 -20.5t-34 -53.5h-38z" />
    <glyph glyph-name="uni020F" unicode="&#x20f;" horiz-adv-x="472" 
d="M233 -10q-95 0 -146.5 58t-51.5 163q0 103 51.5 161t149.5 58q97 0 149 -57t52 -157q-3 -226 -204 -226zM236 17q59 0 84.5 45t25.5 147q0 103 -25.5 148.5t-84.5 45.5t-84.5 -45.5t-25.5 -148.5q0 -102 25.5 -147t84.5 -45zM101 518q7 58 42.5 91t93.5 33t93 -33t42 -91
h-38q-19 74 -97 74q-39 0 -64 -20.5t-34 -53.5h-38z" />
    <glyph glyph-name="uni0210" unicode="&#x210;" horiz-adv-x="581" 
d="M50 0v29l39 -2q19 0 19 22v499q0 22 -22 21l-36 -2v30h225q111 0 161 -37.5t50 -121.5q0 -50 -33 -88t-89 -53q32 0 63 -21q73 -49 73 -154q0 -33 8 -62.5t21 -31.5q8 -2 14 -2q12 0 19 4v-30h-136q-13 27 -14 66q-2 34 -2 38v33q0 72 -47 110.5t-120 38.5h-42v-237
q0 -22 20 -22l49 2v-29h-220zM201 313h93q46 0 72 33t26 92q0 69 -28.5 100t-88.5 31h-62q-12 0 -12 -10v-246zM363 666q-9 0 -15 6q-31 31 -59 58.5t-43 42.5l-16 16q-6 7 -6 12q0 7 9 12q31 13 43 13q7 0 13 -9q2 -7 63 -106l17 -28q3 -6 3 -9q0 -8 -9 -8zM243 666
q-9 0 -15 6l-118 117q-6 7 -6 12q0 7 9 12q31 13 43 13q7 0 13 -9q2 -7 63 -106l17 -28q3 -6 3 -9q0 -8 -9 -8z" />
    <glyph glyph-name="uni0211" unicode="&#x211;" horiz-adv-x="383" 
d="M39 0v26l32 -2q13 0 13 19v333q0 20 -13 20l-36 -2v26h141q-6 -16 -6 -46v-49q40 105 117 105q38 0 60 -21.5t22 -56.5q0 -47 -42 -47q-15 0 -26 8t-11 23q0 11 4 23t4 21q0 20 -23 22q-31 0 -54 -29q-45 -59 -51 -157v-173q0 -19 13 -19l61 2v-26h-205zM273 493
q-9 0 -15 6q-72 71 -118 117q-6 8 -6 12q0 8 9 12q31 13 43 13q7 0 13 -9q5 -5 63 -106l17 -28q3 -6 3 -9q0 -8 -9 -8zM153 493q-9 0 -15 6l-118 117q-6 8 -6 12q0 8 9 12q31 13 43 13q7 0 13 -9q5 -5 63 -106l17 -28q3 -6 3 -9q0 -8 -9 -8z" />
    <glyph glyph-name="uni0212" unicode="&#x212;" horiz-adv-x="581" 
d="M50 0v29l39 -2q19 0 19 22v499q0 22 -22 21l-36 -2v30h225q111 0 161 -37.5t50 -121.5q0 -50 -33 -88t-89 -53q32 0 63 -21q73 -49 73 -154q0 -33 8 -62.5t21 -31.5q8 -2 14 -2q12 0 19 4v-30h-136q-13 27 -14 66q-2 34 -2 38v33q0 72 -47 110.5t-120 38.5h-42v-237
q0 -22 20 -22l49 2v-29h-220zM201 313h93q46 0 72 33t26 92q0 69 -28.5 100t-88.5 31h-62q-12 0 -12 -10v-246zM160 666q7 58 42.5 91t93.5 33t93 -33t42 -91h-38q-19 74 -97 74q-39 0 -64 -20.5t-34 -53.5h-38z" />
    <glyph glyph-name="uni0213" unicode="&#x213;" horiz-adv-x="383" 
d="M39 0v26l32 -2q13 0 13 19v333q0 20 -13 20l-36 -2v26h141q-6 -16 -6 -46v-49q40 105 117 105q38 0 60 -21.5t22 -56.5q0 -47 -42 -47q-15 0 -26 8t-11 23q0 11 4 23t4 21q0 20 -23 22q-31 0 -54 -29q-45 -59 -51 -157v-173q0 -19 13 -19l61 2v-26h-205zM72 518
q7 58 42.5 91t93.5 33t93 -33t42 -91h-38q-19 74 -97 74q-39 0 -64 -20.5t-34 -53.5h-38z" />
    <glyph glyph-name="uni0214" unicode="&#x214;" horiz-adv-x="651" 
d="M344 -10q-252 0 -252 212v346q0 9 -5.5 15.5t-13.5 5.5l-38 -2v30h219v-30l-49 2h-2q-18 0 -18 -20v-350q0 -84 46.5 -131t130.5 -47q74 0 122 50.5t48 126.5v350q0 10 -5 16t-13 5l-49 -2v30h161v-30l-39 2h-2q-18 0 -18 -20v-360q0 -84 -62.5 -141.5t-160.5 -57.5z
M424 666q-9 0 -15 6q-31 31 -59 58.5t-43 42.5l-16 16q-6 7 -6 12q0 7 9 12q31 13 43 13q7 0 13 -9q2 -7 63 -106l17 -28q3 -6 3 -9q0 -8 -9 -8zM304 666q-9 0 -15 6l-118 117q-6 7 -6 12q0 7 9 12q31 13 43 13q7 0 13 -9q2 -7 63 -106l17 -28q3 -6 3 -9q0 -8 -9 -8z" />
    <glyph glyph-name="uni0215" unicode="&#x215;" horiz-adv-x="524" 
d="M195 -10q-67 0 -96.5 37t-29.5 121v228q0 20 -13 20l-36 -2v26h135v-272q0 -70 12.5 -97.5t48.5 -27.5q57 0 94 44t42 119l1 189q0 21 -12 21l-47 -2v26h146v-377q0 -19 13 -19l36 2v-26h-142q5 13 5 72v13q-44 -95 -157 -95zM305 493q-9 0 -15 6q-72 71 -118 117
q-6 8 -6 12q0 8 9 12q31 13 43 13q7 0 13 -9q5 -5 63 -106l17 -28q3 -6 3 -9q0 -8 -9 -8zM185 493q-9 0 -15 6l-118 117q-6 8 -6 12q0 8 9 12q31 13 43 13q7 0 13 -9q5 -5 63 -106l17 -28q3 -6 3 -9q0 -8 -9 -8z" />
    <glyph glyph-name="uni0216" unicode="&#x216;" horiz-adv-x="651" 
d="M344 -10q-252 0 -252 212v346q0 9 -5.5 15.5t-13.5 5.5l-38 -2v30h219v-30l-49 2h-2q-18 0 -18 -20v-350q0 -84 46.5 -131t130.5 -47q74 0 122 50.5t48 126.5v350q0 10 -5 16t-13 5l-49 -2v30h161v-30l-39 2h-2q-18 0 -18 -20v-360q0 -84 -62.5 -141.5t-160.5 -57.5z
M221 666q7 58 42.5 91t93.5 33t93 -33t42 -91h-38q-19 74 -97 74q-39 0 -64 -20.5t-34 -53.5h-38z" />
    <glyph glyph-name="uni0217" unicode="&#x217;" horiz-adv-x="524" 
d="M195 -10q-67 0 -96.5 37t-29.5 121v228q0 20 -13 20l-36 -2v26h135v-272q0 -70 12.5 -97.5t48.5 -27.5q57 0 94 44t42 119l1 189q0 21 -12 21l-47 -2v26h146v-377q0 -19 13 -19l36 2v-26h-142q5 13 5 72v13q-44 -95 -157 -95zM104 518q7 58 42.5 91t93.5 33t93 -33
t42 -91h-38q-19 74 -97 74q-39 0 -64 -20.5t-34 -53.5h-38z" />
    <glyph glyph-name="uni0218" unicode="&#x218;" horiz-adv-x="494" 
d="M268 -10q-61 0 -103 13q-53 15 -79 15q-5 0 -12 -1t-13.5 -2.5t-8.5 -1.5q4 19 4 83q0 80 -8 107h25q23 -185 184 -185q50 0 80 33t30 87q0 76 -99 116l-102 41q-108 43 -110 146q0 44 21 83q46 83 164 83q54 0 129 -29q16 -6 27 -6q20 0 29 4q-3 -24 -3 -75q0 -34 1 -43
q2 -17 5 -24h-26q0 65 -42.5 105.5t-106.5 40.5q-52 0 -84 -29t-32 -79q0 -33 23 -59.5t63 -42.5l92 -37q76 -31 108.5 -68.5t32.5 -96.5q0 -52 -25 -92t-69 -63t-95 -23zM225 -213l-16 13q20 11 35 29t15 31q0 29 -28 29q-12 0 -21 10.5t-9 23.5q0 18 13 30.5t35 12.5
q26 0 43 -18t17 -44q0 -37 -23.5 -69t-60.5 -48z" />
    <glyph glyph-name="uni0219" unicode="&#x219;" horiz-adv-x="411" 
d="M212 -10q-33 0 -112 22q-13 4 -27 4q-20 0 -29 -6l5 132l26 2q0 -54 42 -90.5t103 -36.5q40 0 62 20.5t22 55.5q0 28 -16 46t-54 29l-96 27q-86 26 -86 111q0 55 41.5 89.5t111.5 34.5q29 0 74 -13q32 -9 46 -9t28 8l-6 -114h-22q0 41 -32.5 71t-84.5 30q-38 0 -59.5 -20
t-21.5 -51q0 -49 62 -66l96 -27q50 -14 71.5 -41t21.5 -72q0 -64 -45 -100t-121 -36zM178 -213l-16 13q20 11 35 29t15 31q0 29 -28 29q-12 0 -21 10.5t-9 23.5q0 18 13 30.5t35 12.5q26 0 43 -18t17 -44q0 -37 -23.5 -69t-60.5 -48z" />
    <glyph glyph-name="uni021A" unicode="&#x21a;" horiz-adv-x="529" 
d="M145 0v29l54 -2q19 0 19 25v506q0 12 -12 12h-41q-66 0 -95 -30t-29 -96h-26v156q18 -2 40 -2h419q30 0 40 2v-156h-26q0 66 -29 96t-94 30h-42q-10 0 -12 -11v-510q0 -22 20 -22l53 2v-29h-239zM239 -213l-16 13q20 11 35 29t15 31q0 29 -28 29q-12 0 -21 10.5t-9 23.5
q0 18 13 30.5t35 12.5q26 0 43 -18t17 -44q0 -37 -23.5 -69t-60.5 -48z" />
    <glyph glyph-name="uni021B" unicode="&#x21b;" horiz-adv-x="313" 
d="M179 -6q-51 0 -72.5 24t-21.5 78v299h-60v25q59 0 80.5 19t37.5 83h28v-102h110v-25h-110v-307q0 -38 9 -51.5t32 -13.5q16 0 31.5 11.5t20.5 28.5l21 -13q-20 -56 -106 -56zM129 -213l-16 13q20 11 35 29t15 31q0 29 -28 29q-12 0 -21 10.5t-9 23.5q0 18 13 30.5
t35 12.5q26 0 43 -18t17 -44q0 -37 -23.5 -69t-60.5 -48z" />
    <glyph glyph-name="uni022A" unicode="&#x22a;" horiz-adv-x="670" 
d="M335 -10q-137 0 -213.5 81t-76.5 228q0 148 76 228t214 80t214 -80.5t76 -227.5t-76.5 -228t-213.5 -81zM335 17q98 0 143 66.5t45 215.5q0 148 -45 214.5t-143 66.5t-143 -66.5t-45 -214.5q0 -149 45 -215.5t143 -66.5zM436 696q-24 0 -39 13.5t-15 34.5t15.5 35
t38.5 14q22 0 38 -14t16 -35t-15 -34.5t-39 -13.5zM241 696q-24 0 -39 13.5t-15 34.5t15.5 35t38.5 14q22 0 38 -14t16 -35t-15 -34.5t-39 -13.5zM210 851v40h259v-40h-259z" />
    <glyph glyph-name="uni022B" unicode="&#x22b;" horiz-adv-x="472" 
d="M233 -10q-95 0 -146.5 58t-51.5 163q0 103 51.5 161t149.5 58q97 0 149 -57t52 -157q-3 -226 -204 -226zM236 17q59 0 84.5 45t25.5 147q0 103 -25.5 148.5t-84.5 45.5t-84.5 -45.5t-25.5 -148.5q0 -102 25.5 -147t84.5 -45zM333 547q-24 0 -39 13.5t-15 34.5t15.5 35
t38.5 14q22 0 38 -14t16 -35t-15 -34.5t-39 -13.5zM138 547q-24 0 -39 13.5t-15 34.5t15.5 35t38.5 14q22 0 38 -14t16 -35t-15 -34.5t-39 -13.5zM107 702v40h259v-40h-259z" />
    <glyph glyph-name="uni022C" unicode="&#x22c;" horiz-adv-x="670" 
d="M335 -10q-137 0 -213.5 81t-76.5 228q0 148 76 228t214 80t214 -80.5t76 -227.5t-76.5 -228t-213.5 -81zM335 17q98 0 143 66.5t45 215.5q0 148 -45 214.5t-143 66.5t-143 -66.5t-45 -214.5q0 -149 45 -215.5t143 -66.5zM422 675q-25 0 -88 22q-58 21 -81 21
q-14 0 -23.5 -12t-9.5 -30h-20q0 37 18.5 64t45.5 27q25 0 88 -22q62 -21 81 -21q14 0 23.5 12t9.5 30h20q0 -37 -18.5 -64t-45.5 -27zM221 820v40h239v-40h-239z" />
    <glyph glyph-name="uni022D" unicode="&#x22d;" horiz-adv-x="472" 
d="M233 -10q-95 0 -146.5 58t-51.5 163q0 103 51.5 161t149.5 58q97 0 149 -57t52 -157q-3 -226 -204 -226zM236 17q59 0 84.5 45t25.5 147q0 103 -25.5 148.5t-84.5 45.5t-84.5 -45.5t-25.5 -148.5q0 -102 25.5 -147t84.5 -45zM323 529q-25 0 -88 22q-59 21 -81 21
q-14 0 -23.5 -12t-9.5 -30h-20q0 37 18.5 64t45.5 27q25 0 88 -22q61 -21 81 -21q14 0 23.5 12t9.5 30h20q0 -37 -18.5 -64t-45.5 -27zM122 674v40h239v-40h-239z" />
    <glyph glyph-name="uni0230" unicode="&#x230;" horiz-adv-x="670" 
d="M335 -10q-137 0 -213.5 81t-76.5 228q0 148 76 228t214 80t214 -80.5t76 -227.5t-76.5 -228t-213.5 -81zM335 17q98 0 143 66.5t45 215.5q0 148 -45 214.5t-143 66.5t-143 -66.5t-45 -214.5q0 -149 45 -215.5t143 -66.5zM335 696q-24 0 -39 13.5t-15 34.5t15.5 35
t38.5 14q22 0 38 -14t16 -35t-15 -34.5t-39 -13.5zM217 838v40h239v-40h-239z" />
    <glyph glyph-name="uni0231" unicode="&#x231;" horiz-adv-x="472" 
d="M233 -10q-95 0 -146.5 58t-51.5 163q0 103 51.5 161t149.5 58q97 0 149 -57t52 -157q-3 -226 -204 -226zM236 17q59 0 84.5 45t25.5 147q0 103 -25.5 148.5t-84.5 45.5t-84.5 -45.5t-25.5 -148.5q0 -102 25.5 -147t84.5 -45zM236 547q-24 0 -39 13.5t-15 34.5t15.5 35
t38.5 14q22 0 38 -14t16 -35t-15 -34.5t-39 -13.5zM118 689v40h239v-40h-239z" />
    <glyph glyph-name="uni0232" unicode="&#x232;" horiz-adv-x="507" 
d="M152 0v29l49 -2q19 0 19 22v214l-173 287q-10 19 -24 19l-28 -2v30h221v-30l-53 2h-1q-11 0 -11 -10q0 -6 5 -14l137 -228l131 232q3 5 3 10q0 10 -10 10l-52 -2v30h152v-30l-30 2q-16 0 -28 -21l-146 -261v-239q0 -21 20 -21l48 2v-29h-229zM147 706v40h239v-40h-239z
" />
    <glyph glyph-name="uni0233" unicode="&#x233;" horiz-adv-x="485" 
d="M85 -239q-28 0 -46 13t-20 36q0 24 11 37.5t28 13.5q24 0 38 -24q8 -12 14 -16q6 -2 11 -2q28 0 46 46l58 139l-173 379q-6 13 -16 13l-49 -2v26h219v-26l-45 2q-7 0 -11 -5.5t-1 -11.5l122 -268l113 270q1 1 1 6q0 9 -11 9l-47 -2v26h155v-26l-43 2q-16 0 -25 -19
l-211 -509q-24 -59 -51 -83t-67 -24zM141 567v40h239v-40h-239z" />
    <glyph glyph-name="uni0237" unicode="&#x237;" horiz-adv-x="251" 
d="M28 -243q-45 0 -73 19.5t-28 47.5q0 20 13 32t34 12q35 0 35 -28q0 -6 -3 -16t-3 -15q0 -25 31 -25q58 0 53 83q-2 58 -2 74v435q0 20 -13 20l-41 -2v26h140v-424q0 -239 -143 -239z" />
    <glyph glyph-name="uni0259" unicode="&#x259;" horiz-adv-x="449" 
d="M213 -10q-79 0 -127.5 51t-50.5 138v29h288q0 188 -126 189q-48 0 -83 -24t-52 -63l-23 17q20 47 67 75t105 28q203 0 203 -219q0 -109 -51 -165t-150 -56zM213 17q54 0 81.5 44.5t27.5 121.5h-182q-20 0 -20 -33q0 -69 21.5 -101t71.5 -32z" />
    <glyph glyph-name="uni0272" unicode="&#x272;" horiz-adv-x="525" 
d="M28 -243q-45 0 -73 19.5t-28 47.5q0 20 13 32t34 12q35 0 35 -28q0 -6 -3 -16t-3 -15q0 -25 31 -25q58 0 53 83q-2 58 -2 74v435q0 20 -13 20l-41 -2v26h140v-424q0 -239 -143 -239zM310 0v26l46 -2q13 3 13 19v227q0 72 -13.5 100t-53.5 28q-57 0 -92.5 -48.5
t-38.5 -130.5l-30 71l30 40q21 48 60 74t90 26q71 0 102.5 -33.5t31.5 -108.5v-245q0 -19 13 -19l37 2v-26h-195z" />
    <glyph glyph-name="uni02B9" unicode="&#x2b9;" horiz-adv-x="276" 
d="M83 508q-2 5 4 29l31 138q4 20 8 28q1 6 10 11q14 9 37.5 10.5t25.5 -4.5q3 -5 -3 -16l-85 -178q-6 -14 -13 -18q-10 -8 -15 0z" />
    <glyph glyph-name="uni02BA" unicode="&#x2ba;" horiz-adv-x="406" 
d="M213 508q-2 5 4 29l31 138q4 20 8 28q1 6 10 11q14 9 37.5 10.5t25.5 -4.5q3 -5 -3 -16l-85 -178q-6 -14 -13 -18q-10 -8 -15 0zM83 508q-2 5 4 29l31 138q4 20 8 28q1 6 10 11q14 9 37.5 10.5t25.5 -4.5q3 -5 -3 -16l-85 -178q-6 -14 -13 -18q-10 -8 -15 0z" />
    <glyph glyph-name="uni02BC" unicode="&#x2bc;" horiz-adv-x="250" 
d="M81 431l-16 9q23 21 40 49t17 46q0 24 -30 24q-26 0 -26 36q0 17 14.5 30t33.5 13q58 0 58 -68q0 -39 -26 -75.5t-65 -63.5z" />
    <glyph glyph-name="circumflex" unicode="&#x2c6;" horiz-adv-x="382" 
d="M44 493q-9 0 -9 8q0 2 8 10q10 10 17 15q31 27 54 50l23 24l24 24q26 25 30 25t30 -25l24 -24l23 -24q23 -23 54 -50q10 -8 18 -15q7 -7 7 -10q0 -8 -9 -8q-8 0 -28 12l-119 74l-119 -74q-19 -12 -28 -12z" />
    <glyph glyph-name="caron" unicode="&#x2c7;" horiz-adv-x="382" 
d="M191 501q-4 0 -30 25l-24 24l-23 24q-23 23 -54 50q-7 5 -17 15q-8 8 -8 10q0 8 9 8q8 0 28 -12l119 -74l119 74q20 12 28 12q9 0 9 -8q0 -3 -7 -10q-8 -7 -18 -15q-31 -27 -54 -50l-23 -24l-24 -24q-26 -25 -30 -25z" />
    <glyph glyph-name="uni02C9" unicode="&#x2c9;" horiz-adv-x="447" 
d="M104 567v40h239v-40h-239z" />
    <glyph glyph-name="breve" unicode="&#x2d8;" horiz-adv-x="341" 
d="M170 518q-58 0 -93 33t-42 91h28q8 -33 36.5 -53.5t70.5 -20.5q40 0 69.5 21t38.5 53h28q-7 -58 -42.5 -91t-93.5 -33z" />
    <glyph glyph-name="dotaccent" unicode="&#x2d9;" horiz-adv-x="178" 
d="M89 547q-24 0 -39 13.5t-15 34.5t15.5 35t38.5 14q22 0 38 -14t16 -35t-15 -34.5t-39 -13.5z" />
    <glyph glyph-name="ring" unicode="&#x2da;" horiz-adv-x="237" 
d="M118 493q-34 0 -58.5 24t-24.5 58t24 57.5t59 23.5t59.5 -23.5t24.5 -57.5t-24.5 -58t-59.5 -24zM118 529q19 0 30.5 12.5t11.5 33.5q0 20 -11.5 32.5t-30.5 12.5t-30 -12.5t-11 -32.5q0 -21 11 -33.5t30 -12.5z" />
    <glyph glyph-name="ogonek" unicode="&#x2db;" horiz-adv-x="242" 
d="M99 -159q-31 0 -52.5 19.5t-21.5 52.5q0 66 75 101h28q-51 -24 -51 -76q0 -25 15 -39.5t43 -14.5q35 0 70 29l12 -12q-51 -60 -118 -60z" />
    <glyph glyph-name="tilde" unicode="&#x2dc;" horiz-adv-x="356" 
d="M257 529q-25 0 -88 22q-59 21 -81 21q-14 0 -23.5 -12t-9.5 -30h-20q0 37 18.5 64t45.5 27q25 0 88 -22q61 -21 81 -21q14 0 23.5 12t9.5 30h20q0 -37 -18.5 -64t-45.5 -27z" />
    <glyph glyph-name="hungarumlaut" unicode="&#x2dd;" horiz-adv-x="338" 
d="M164 493q-9 0 -9 8q0 3 3 9l17 28q58 101 63 106q6 9 13 9q12 0 43 -13q9 -4 9 -12q0 -4 -6 -12l-118 -117q-6 -6 -15 -6zM44 493q-9 0 -9 8q0 3 3 9l17 28q58 101 63 106q6 9 13 9q12 0 43 -13q9 -4 9 -12q0 -4 -6 -12q-46 -46 -118 -117q-6 -6 -15 -6z" />
    <glyph glyph-name="gravecomb" unicode="&#x300;" 
d="M-48 493q-8 0 -20 9l-163 112q-10 7 -10 13t20.5 16t36.5 10q11 0 15 -4q6 -5 21 -21l95 -104q18 -20 18 -23q0 -8 -13 -8z" />
    <glyph glyph-name="acutecomb" unicode="&#x301;" 
d="M-228 493q-13 0 -13 8q0 3 18 23l95 104q10 11 20 21q5 4 16 4q16 0 36.5 -10t20.5 -16t-10 -13l-163 -112q-12 -7 -20 -9z" />
    <glyph glyph-name="uni0302" unicode="&#x302;" 
d="M-338 493q-9 0 -9 8q0 3 7 10q8 7 18 15q31 27 54 50l23 24l24 24q26 25 30 25t30 -25l24 -24l23 -24q23 -23 54 -50q7 -5 17 -15q8 -8 8 -10q0 -8 -9 -8q-8 0 -28 12l-119 74l-119 -74q-19 -12 -28 -12z" />
    <glyph glyph-name="tildecomb" unicode="&#x303;" 
d="M-99 529q-25 0 -88 22q-59 21 -81 21q-14 0 -23.5 -12t-9.5 -30h-20q0 37 18.5 64t45.5 27q25 0 88 -22q61 -21 81 -21q14 0 23.5 12t9.5 30h20q0 -37 -18.5 -64t-45.5 -27z" />
    <glyph glyph-name="uni0304" unicode="&#x304;" 
d="M-343 567v40h239v-40h-239z" />
    <glyph glyph-name="uni0306" unicode="&#x306;" 
d="M-171 518q-58 0 -93 33t-42 91h28q8 -33 36.5 -53.5t70.5 -20.5q40 0 69.5 21t38.5 53h28q-7 -58 -42.5 -91t-93.5 -33z" />
    <glyph glyph-name="uni0307" unicode="&#x307;" 
d="M-89 547q-24 0 -39 13.5t-15 34.5t15.5 35t38.5 14q22 0 38 -14t16 -35t-15 -34.5t-39 -13.5z" />
    <glyph glyph-name="uni0308" unicode="&#x308;" 
d="M-89 547q-24 0 -39 13.5t-15 34.5t15.5 35t38.5 14q22 0 38 -14t16 -35t-15 -34.5t-39 -13.5zM-284 547q-24 0 -39 13.5t-15 34.5t15.5 35t38.5 14q22 0 38 -14t16 -35t-15 -34.5t-39 -13.5z" />
    <glyph glyph-name="hookabovecomb" unicode="&#x309;" 
d="M-139 463q-9 36 -9 53q0 14 15 22q45 24 45 52q0 30 -37 30q-19 0 -36 -5l-3 27q27 11 63 11q35 0 56.5 -16.5t21.5 -43.5q0 -48 -57 -69q-18 -7 -25.5 -12t-7.5 -14v-35h-26z" />
    <glyph glyph-name="uni030A" unicode="&#x30a;" 
d="M-119 493q-34 0 -58.5 24t-24.5 58t24 57.5t59 23.5t59.5 -23.5t24.5 -57.5t-24.5 -58t-59.5 -24zM-119 529q19 0 30.5 12.5t11.5 33.5q0 20 -11.5 32.5t-30.5 12.5t-30 -12.5t-11 -32.5q0 -21 11 -33.5t30 -12.5z" />
    <glyph glyph-name="uni030B" unicode="&#x30b;" 
d="M-174 493q-9 0 -9 8q0 3 3 9l17 28q58 101 63 106q6 9 13 9q12 0 43 -13q9 -4 9 -12q0 -4 -6 -12l-118 -117q-6 -6 -15 -6zM-294 493q-9 0 -9 8q0 3 3 9l17 28q58 101 63 106q6 9 13 9q12 0 43 -13q9 -4 9 -12q0 -4 -6 -12q-46 -46 -118 -117q-6 -6 -15 -6z" />
    <glyph glyph-name="uni030C" unicode="&#x30c;" 
d="M-191 501q-4 0 -30 25l-24 24l-23 24q-23 23 -54 50q-10 8 -18 15q-7 7 -7 10q0 8 9 8q8 0 28 -12l119 -74l119 74q20 12 28 12q9 0 9 -8q0 -2 -8 -10q-10 -10 -17 -15q-31 -27 -54 -50l-23 -24l-24 -24q-26 -25 -30 -25z" />
    <glyph glyph-name="uni030F" unicode="&#x30f;" 
d="M-44 493q-9 0 -15 6q-72 71 -118 117q-6 8 -6 12q0 8 9 12q31 13 43 13q7 0 13 -9q5 -5 63 -106l17 -28q3 -6 3 -9q0 -8 -9 -8zM-164 493q-9 0 -15 6l-118 117q-6 8 -6 12q0 8 9 12q31 13 43 13q7 0 13 -9q5 -5 63 -106l17 -28q3 -6 3 -9q0 -8 -9 -8z" />
    <glyph glyph-name="uni0311" unicode="&#x311;" 
d="M-306 518q7 58 42.5 91t93.5 33t93 -33t42 -91h-38q-19 74 -97 74q-39 0 -64 -20.5t-34 -53.5h-38z" />
    <glyph glyph-name="uni0312" unicode="&#x312;" 
d="M-167 518q-26 0 -43 18t-17 44q0 37 23.5 69t60.5 48l16 -13q-20 -11 -35 -29t-15 -31q0 -29 28 -29q12 0 21 -10.5t9 -23.5q0 -18 -13 -30.5t-35 -12.5z" />
    <glyph glyph-name="uni0313" unicode="&#x313;" 
d="M-203 518l-16 13q20 11 35 29t15 31q0 29 -28 29q-12 0 -21 10.5t-9 23.5q0 18 13 30.5t35 12.5q26 0 43 -18.5t17 -43.5q0 -37 -23.5 -69t-60.5 -48z" />
    <glyph glyph-name="uni031B" unicode="&#x31b;" 
d="M-136 371l-10 27q64 0 64 40q0 17 -22 24t-22 28q0 20 13 32t33 12q23 0 36.5 -14.5t13.5 -38.5q0 -109 -106 -110z" />
    <glyph glyph-name="dotbelowcomb" unicode="&#x323;" 
d="M-171 -175q-24 0 -39 13.5t-15 34.5t15.5 35t38.5 14q22 0 38 -14t16 -35t-15 -34.5t-39 -13.5z" />
    <glyph glyph-name="uni0324" unicode="&#x324;" 
d="M-74 -175q-24 0 -39 13.5t-15 34.5t15.5 35t38.5 14q22 0 38 -14t16 -35t-15 -34.5t-39 -13.5zM-269 -175q-24 0 -39 13.5t-15 34.5t15.5 35t38.5 14q22 0 38 -14t16 -35t-15 -34.5t-39 -13.5z" />
    <glyph glyph-name="uni0326" unicode="&#x326;" 
d="M-104 -213l-16 13q20 11 35 29t15 31q0 29 -28 29q-12 0 -21 10.5t-9 23.5q0 18 13 30.5t35 12.5q26 0 43 -18t17 -44q0 -37 -23.5 -69t-60.5 -48z" />
    <glyph glyph-name="uni0327" unicode="&#x327;" 
d="M-129 -214q-44 0 -69 16l7 24q12 -13 35 -13t39.5 15.5t16.5 38.5q0 21 -34 39l-23 14q-11 8 -11 15t6 13l41 52h33l-27 -43q-6 -11 -6 -19q0 -6 7 -9q6 -2 23 -7q30 -7 43 -16t13 -28q0 -43 -24.5 -67.5t-69.5 -24.5z" />
    <glyph glyph-name="uni0328" unicode="&#x328;" 
d="M-143 -159q-31 0 -52.5 19.5t-21.5 52.5q0 66 75 101h28q-51 -24 -51 -76q0 -25 15 -39.5t43 -14.5q35 0 70 29l12 -12q-51 -60 -118 -60z" />
    <glyph glyph-name="uni032E" unicode="&#x32e;" 
d="M-171 -202q-58 0 -93 33t-42 91h38q19 -74 97 -74q39 0 64 20.5t34 53.5h38q-7 -58 -42.5 -91t-93.5 -33z" />
    <glyph glyph-name="uni0331" unicode="&#x331;" 
d="M-290 -150v40h239v-40h-239z" />
    <glyph glyph-name="uni0335" unicode="&#x335;" 
d="M-332 270v35h248v-35h-248z" />
    <glyph glyph-name="uni0336" unicode="&#x336;" 
d="M-450 269v35h366v-35h-366z" />
    <glyph glyph-name="uni0337" unicode="&#x337;" 
d="M-230 301v45l206 165v-46z" />
    <glyph glyph-name="uni0338" unicode="&#x338;" 
d="M-366 -85l-38 18l319 570l35 -20z" />
    <glyph glyph-name="uni0394" unicode="&#x394;" horiz-adv-x="601" 
d="M27 0l255 607h26l254 -607h-535zM67 28h384l-192 460z" />
    <glyph glyph-name="uni0394" unicode="&#x3b4;" horiz-adv-x="601" 
d="M27 0l255 607h26l254 -607h-535zM67 28h384l-192 460z" />
    <glyph glyph-name="uni03A9" unicode="&#x3a9;" horiz-adv-x="670" 
d="M48 -3q0 27 -20 142h31q5 -46 26.5 -65t65.5 -19h58q-57 61 -84 96q-64 81 -64 198q0 73 33 132t95 92.5t146 33.5q86 0 147 -34q62 -33 94.5 -91.5t32.5 -132.5q0 -66 -18 -114q-17 -46 -42 -79.5t-88 -100.5h58q44 0 65.5 19t26.5 65h31q-20 -115 -20 -142
q-10 3 -103 3h-121l-2 5q117 147 117 344q0 122 -42.5 176.5t-135.5 54.5t-135.5 -54.5t-42.5 -176.5q0 -197 117 -344l-2 -5h-121q-92 0 -103 -3z" />
    <glyph glyph-name="uni03A9" unicode="&#x3c9;" horiz-adv-x="670" 
d="M48 -3q0 27 -20 142h31q5 -46 26.5 -65t65.5 -19h58q-57 61 -84 96q-64 81 -64 198q0 73 33 132t95 92.5t146 33.5q86 0 147 -34q62 -33 94.5 -91.5t32.5 -132.5q0 -66 -18 -114q-17 -46 -42 -79.5t-88 -100.5h58q44 0 65.5 19t26.5 65h31q-20 -115 -20 -142
q-10 3 -103 3h-121l-2 5q117 147 117 344q0 122 -42.5 176.5t-135.5 54.5t-135.5 -54.5t-42.5 -176.5q0 -197 117 -344l-2 -5h-121q-92 0 -103 -3z" />
    <glyph glyph-name="uni03BC" unicode="&#x3bc;" horiz-adv-x="536" 
d="M20 -239v26l46 -1q12 2 15 19v572q0 19 -13 19l-36 -2v26h135v-272q0 -70 12.5 -97.5t48.5 -27.5q63 0 100 50.5t37 137.5v164q0 21 -12 21l-47 -2v26h146v-377q0 -19 13 -19l36 2v-26h-142q6 16 6 73v14q-18 -45 -55 -71t-86 -26q-34 0 -59 19v-204q0 -16 14 -19l46 1
v-26h-205z" />
    <glyph glyph-name="pi" unicode="&#x3c0;" horiz-adv-x="608" 
d="M84 -10q-22 0 -36 12t-14 35q0 21 10.5 34t27.5 13q6 0 24 -5q16 -6 26 -6q20 0 31 19t21 61q16 80 33 212h-21q-88 0 -128 -55l-18 12q51 108 160 108q68 0 195 -6q85 -4 118 -4q24 0 35 9t19 34l26 -5q-17 -53 -17 -86v-19q-16 2 -30 2h-80q-10 -123 -10 -229
q0 -50 8 -77q8 -26 31 -26q36 0 58 40l17 -13q-19 -31 -40.5 -43.5t-57.5 -12.5q-63 0 -82.5 31t-19.5 131q3 47 22 202l-152 6q-7 -77 -33 -220q-17 -73 -45 -113.5t-78 -40.5z" />
    <glyph glyph-name="uni1E24" unicode="&#x1e24;" horiz-adv-x="696" 
d="M50 0v29l39 -2q19 0 19 22v499q0 11 -4.5 16.5t-14.5 4.5l-39 -2v30h220v-30l-49 2h-2q-18 0 -18 -21v-226h294v226q0 11 -4.5 16.5t-14.5 4.5l-49 -2v30h219v-30l-39 2h-2q-17 0 -17 -21v-499q0 -22 19 -22l39 2v-29h-219v29l49 -2q19 0 19 22v245h-294v-245
q0 -22 20 -22l49 2v-29h-220zM349 -175q-24 0 -39 13.5t-15 34.5t15.5 35t38.5 14q22 0 38 -14t16 -35t-15 -34.5t-39 -13.5z" />
    <glyph glyph-name="uni1E25" unicode="&#x1e25;" horiz-adv-x="525" 
d="M35 0v26l37 -2q13 3 13 19v643q0 21 -13 21l-37 -2v25h136v-400q21 48 60 74t90 26q71 0 102.5 -33.5t31.5 -108.5v-245q0 -19 13 -19l37 2v-26h-195v26l46 -2q13 3 13 19v227q0 78 -14 104q-15 24 -53 24q-57 0 -92.5 -48.5t-38.5 -130.5v-176q0 -19 13 -19l46 2v-26
h-195zM272 -175q-24 0 -39 13.5t-15 34.5t15.5 35t38.5 14q22 0 38 -14t16 -35t-15 -34.5t-39 -13.5z" />
    <glyph glyph-name="uni1E62" unicode="&#x1e62;" horiz-adv-x="494" 
d="M268 -10q-61 0 -103 13q-53 15 -79 15q-5 0 -12 -1t-13.5 -2.5t-8.5 -1.5q4 19 4 83q0 80 -8 107h25q23 -185 184 -185q50 0 80 33t30 87q0 76 -99 116l-102 41q-108 43 -110 146q0 44 21 83q46 83 164 83q54 0 129 -29q16 -6 27 -6q20 0 29 4q-3 -24 -3 -75q0 -34 1 -43
q2 -17 5 -24h-26q0 65 -42.5 105.5t-106.5 40.5q-52 0 -84 -29t-32 -79q0 -33 23 -59.5t63 -42.5l92 -37q76 -31 108.5 -68.5t32.5 -96.5q0 -52 -25 -92t-69 -63t-95 -23zM252 -175q-24 0 -39 13.5t-15 34.5t15.5 35t38.5 14q22 0 38 -14t16 -35t-15 -34.5t-39 -13.5z" />
    <glyph glyph-name="uni1E6C" unicode="&#x1e6c;" horiz-adv-x="529" 
d="M145 0v29l54 -2q19 0 19 25v506q0 12 -12 12h-41q-66 0 -95 -30t-29 -96h-26v156q18 -2 40 -2h419q30 0 40 2v-156h-26q0 66 -29 96t-94 30h-42q-10 0 -12 -11v-510q0 -22 20 -22l53 2v-29h-239zM266 -175q-24 0 -39 13.5t-15 34.5t15.5 35t38.5 14q22 0 38 -14t16 -35
t-15 -34.5t-39 -13.5z" />
    <glyph glyph-name="uni1E6D" unicode="&#x1e6d;" horiz-adv-x="313" 
d="M179 -6q-51 0 -72.5 24t-21.5 78v299h-60v25q59 0 80.5 19t37.5 83h28v-102h110v-25h-110v-307q0 -38 9 -51.5t32 -13.5q16 0 31.5 11.5t20.5 28.5l21 -13q-20 -56 -106 -56zM156 -175q-24 0 -39 13.5t-15 34.5t15.5 35t38.5 14q22 0 38 -14t16 -35t-15 -34.5t-39 -13.5z
" />
    <glyph glyph-name="Wgrave" unicode="&#x1e80;" horiz-adv-x="884" 
d="M257 -10l-211 557q-7 22 -21 22l-30 -2v30h216v-30l-53 2q-13 0 -13 -11l3 -11l149 -392l143 442h61l183 -454l130 406l2 8q0 14 -13 12l-52 -2v30h153v-30l-30 2q-18 2 -25 -21l-181 -558h-16l-206 519l-170 -519h-19zM532 666q-8 0 -20 9l-163 112q-10 7 -10 13
t20.5 16t36.5 10q11 0 16 -4q10 -10 20 -21l95 -104q18 -19 18 -23q0 -8 -13 -8z" />
    <glyph glyph-name="wgrave" unicode="&#x1e81;" horiz-adv-x="725" 
d="M191 -10l-141 393q-6 13 -17 13l-46 -2v26h213v-26l-44 2h-2q-9 0 -12.5 -6t-0.5 -14l94 -265l137 314h21l133 -308l95 262l2 8q0 10 -13 9l-53 -2v26h159v-26l-41 2q-15 0 -21 -17l-149 -389h-22l-134 312l-138 -312h-20zM426 493q-8 0 -20 9l-163 112q-10 7 -10 13
t20.5 16t36.5 10q11 0 16 -4q10 -10 20 -21l95 -104q18 -20 18 -23q0 -8 -13 -8z" />
    <glyph glyph-name="Wacute" unicode="&#x1e82;" horiz-adv-x="884" 
d="M257 -10l-211 557q-7 22 -21 22l-30 -2v30h216v-30l-53 2q-13 0 -13 -11l3 -11l149 -392l143 442h61l183 -454l130 406l2 8q0 14 -13 12l-52 -2v30h153v-30l-30 2q-18 2 -25 -21l-181 -558h-16l-206 519l-170 -519h-19zM406 666q-13 0 -13 8q0 4 18 23l95 104
q15 17 21 21q4 4 15 4q16 0 36.5 -10t20.5 -16t-10 -13l-163 -112q-12 -9 -20 -9z" />
    <glyph glyph-name="wacute" unicode="&#x1e83;" horiz-adv-x="725" 
d="M191 -10l-141 393q-6 13 -17 13l-46 -2v26h213v-26l-44 2h-2q-9 0 -12.5 -6t-0.5 -14l94 -265l137 314h21l133 -308l95 262l2 8q0 10 -13 9l-53 -2v26h159v-26l-41 2q-15 0 -21 -17l-149 -389h-22l-134 312l-138 -312h-20zM304 493q-13 0 -13 8q0 3 18 23l95 104
q15 16 21 21q4 4 15 4q16 0 36.5 -10t20.5 -16t-10 -13l-163 -112q-12 -7 -20 -9z" />
    <glyph glyph-name="Wdieresis" unicode="&#x1e84;" horiz-adv-x="884" 
d="M257 -10l-211 557q-7 22 -21 22l-30 -2v30h216v-30l-53 2q-13 0 -13 -11l3 -11l149 -392l143 442h61l183 -454l130 406l2 8q0 14 -13 12l-52 -2v30h153v-30l-30 2q-18 2 -25 -21l-181 -558h-16l-206 519l-170 -519h-19zM568 696q-24 0 -39 13.5t-15 34.5t15.5 35t38.5 14
q22 0 38 -14t16 -35t-15 -34.5t-39 -13.5zM373 696q-24 0 -39 13.5t-15 34.5t15.5 35t38.5 14q22 0 38 -14t16 -35t-15 -34.5t-39 -13.5z" />
    <glyph glyph-name="wdieresis" unicode="&#x1e85;" horiz-adv-x="725" 
d="M191 -10l-141 393q-6 13 -17 13l-46 -2v26h213v-26l-44 2h-2q-9 0 -12.5 -6t-0.5 -14l94 -265l137 314h21l133 -308l95 262l2 8q0 10 -13 9l-53 -2v26h159v-26l-41 2q-15 0 -21 -17l-149 -389h-22l-134 312l-138 -312h-20zM462 547q-24 0 -39 13.5t-15 34.5t15.5 35
t38.5 14q22 0 38 -14t16 -35t-15 -34.5t-39 -13.5zM267 547q-24 0 -39 13.5t-15 34.5t15.5 35t38.5 14q22 0 38 -14t16 -35t-15 -34.5t-39 -13.5z" />
    <glyph glyph-name="uni1E9E" unicode="&#x1e9e;" horiz-adv-x="582" 
d="M50 0v30l40 -3q18 0 18 22v499q0 21 -17 21h-2l-39 -2v30h430l-2 -28h-265q-12 0 -12 -13v-556h-151zM378 -10q-71 0 -112 35t-41 90q0 50 49 50q22 0 34.5 -11t12.5 -28q0 -11 -5 -24q-5 -12 -5 -25q0 -31 11.5 -45.5t47.5 -14.5q93 0 93 162q0 68 -43 102t-150 38v21
h58q224 -3 224 -163q0 -76 -50 -131.5t-124 -55.5zM300 325l-30 15l210 257l24 -28z" />
    <glyph glyph-name="uni1EA0" unicode="&#x1ea0;" horiz-adv-x="601" 
d="M-20 0v29l26 -2h4q20 0 33 19q16 23 30 58l209 503h26l211 -505q13 -35 29 -57q14 -18 35 -18h5l33 2v-29h-265v29l49 -2q30 -3 30 24q0 18 -10 39l-49 118h-233l-46 -112q-14 -33 -14 -50q0 -21 22 -20l48 3v-29h-173zM274 -175q-24 0 -39 13.5t-15 34.5t15.5 35
t38.5 14q22 0 38 -14t16 -35t-15 -34.5t-39 -13.5zM155 236h209l-105 252z" />
    <glyph glyph-name="uni1EA1" unicode="&#x1ea1;" horiz-adv-x="450" 
d="M155 -10q-128 0 -128 113q0 77 64.5 113.5t202.5 36.5v63q0 47 -22 67t-71 20q-76 0 -76 -42q0 -6 5 -18q4 -9 4 -20q0 -34 -39 -34q-21 0 -32.5 13t-11.5 34q0 42 44 68t118 26q167 0 167 -141v-246q0 -19 13 -19l37 2v-26h-142q4 17 4 37l2 39q-41 -86 -139 -86z
M185 26q44 0 75 39t34 97v64q-94 0 -135 -27t-41 -88q0 -45 16.5 -66t50.5 -19zM209 -175q-24 0 -39 13.5t-15 34.5t15.5 35t38.5 14q22 0 38 -14t16 -35t-15 -34.5t-39 -13.5z" />
    <glyph glyph-name="uni1EA2" unicode="&#x1ea2;" horiz-adv-x="601" 
d="M-20 0v29l26 -2h4q20 0 33 19q16 23 30 58l209 503h26l211 -505q13 -35 29 -57q14 -18 35 -18h5l33 2v-29h-265v29l49 -2q30 -3 30 24q0 18 -10 39l-49 118h-233l-46 -112q-14 -33 -14 -50q0 -21 22 -20l48 3v-29h-173zM279 639q-9 36 -9 53q0 14 15 22q45 24 45 52
q0 30 -37 30q-19 0 -36 -5l-3 27q27 11 63 11q35 0 56.5 -16.5t21.5 -43.5q0 -26 -14 -41.5t-43 -27.5q-18 -7 -25.5 -12t-7.5 -14v-35h-26zM155 236h209l-105 252z" />
    <glyph glyph-name="uni1EA3" unicode="&#x1ea3;" horiz-adv-x="450" 
d="M155 -10q-128 0 -128 113q0 77 64.5 113.5t202.5 36.5v63q0 47 -22 67t-71 20q-76 0 -76 -42q0 -6 5 -18q4 -9 4 -20q0 -34 -39 -34q-21 0 -32.5 13t-11.5 34q0 42 44 68t118 26q167 0 167 -141v-246q0 -19 13 -19l37 2v-26h-142q4 17 4 37l2 39q-41 -86 -139 -86z
M185 26q44 0 75 39t34 97v64q-94 0 -135 -27t-41 -88q0 -45 16.5 -66t50.5 -19zM202 463q-9 36 -9 53q0 14 15 22q45 24 45 52q0 30 -37 30q-19 0 -36 -5l-3 27q27 11 63 11q35 0 56.5 -16.5t21.5 -43.5q0 -48 -57 -69q-18 -7 -25.5 -12t-7.5 -14v-35h-26z" />
    <glyph glyph-name="uni1EA4" unicode="&#x1ea4;" horiz-adv-x="601" 
d="M-20 0v29l26 -2h4q20 0 33 19q16 23 30 58l209 503h26l211 -505q13 -35 29 -57q14 -18 35 -18h5l33 2v-29h-265v29l49 -2q30 -3 30 24q0 18 -10 39l-49 118h-233l-46 -112q-14 -33 -14 -50q0 -21 22 -20l48 3v-29h-173zM149 666q-9 0 -9 8q0 2 8 10q10 10 17 15
q31 27 54 50l23 24l24 24q26 25 30 25t30 -25l24 -24l23 -24q23 -23 54 -50q11 -7 18 -15q7 -7 7 -10q0 -8 -9 -8t-28 12l-119 74l-119 -74q-20 -12 -28 -12zM272 859q-15 0 -15 7q0 4 17 23l64 70q4 5 19 20q5 3 14 3q15 0 33.5 -9t18.5 -15t-9 -12l-109 -72
q-23 -15 -33 -15zM155 236h209l-105 252z" />
    <glyph glyph-name="uni1EA5" unicode="&#x1ea5;" horiz-adv-x="450" 
d="M155 -10q-128 0 -128 113q0 77 64.5 113.5t202.5 36.5v63q0 47 -22 67t-71 20q-76 0 -76 -42q0 -6 5 -18q4 -9 4 -20q0 -34 -39 -34q-21 0 -32.5 13t-11.5 34q0 42 44 68t118 26q167 0 167 -141v-246q0 -19 13 -19l37 2v-26h-142q4 17 4 37l2 39q-41 -86 -139 -86z
M185 26q44 0 75 39t34 97v64q-94 0 -135 -27t-41 -88q0 -45 16.5 -66t50.5 -19zM74 493q-9 0 -9 8q0 2 8 10q10 10 17 15q31 27 54 50l23 24l24 24q26 25 30 25t30 -25l24 -24l23 -24q23 -23 54 -50q10 -8 18 -15q7 -7 7 -10q0 -8 -9 -8q-8 0 -28 12l-119 74l-119 -74
q-20 -12 -28 -12zM197 686q-15 0 -15 7q0 4 17 23l64 70q4 6 19 20q4 3 14 3q15 0 33.5 -9t18.5 -15t-9 -12l-109 -72q-22 -15 -33 -15z" />
    <glyph glyph-name="uni1EA6" unicode="&#x1ea6;" horiz-adv-x="601" 
d="M-20 0v29l26 -2h4q20 0 33 19q16 23 30 58l209 503h26l211 -505q13 -35 29 -57q14 -18 35 -18h5l33 2v-29h-265v29l49 -2q30 -3 30 24q0 18 -10 39l-49 118h-233l-46 -112q-14 -33 -14 -50q0 -21 22 -20l48 3v-29h-173zM149 666q-9 0 -9 8q0 2 8 10q10 10 17 15
q31 27 54 50l23 24l24 24q26 25 30 25t30 -25l24 -24l23 -24q23 -23 54 -50q11 -7 18 -15q7 -7 7 -10q0 -8 -9 -8t-28 12l-119 74l-119 -74q-20 -12 -28 -12zM320 859q-10 0 -33 15l-109 72q-9 6 -9 12t18.5 15t33.5 9q9 0 14 -3q14 -15 19 -20l64 -70q17 -19 17 -23
q0 -7 -15 -7zM155 236h209l-105 252z" />
    <glyph glyph-name="uni1EA7" unicode="&#x1ea7;" horiz-adv-x="450" 
d="M155 -10q-128 0 -128 113q0 77 64.5 113.5t202.5 36.5v63q0 47 -22 67t-71 20q-76 0 -76 -42q0 -6 5 -18q4 -9 4 -20q0 -34 -39 -34q-21 0 -32.5 13t-11.5 34q0 42 44 68t118 26q167 0 167 -141v-246q0 -19 13 -19l37 2v-26h-142q4 17 4 37l2 39q-41 -86 -139 -86z
M185 26q44 0 75 39t34 97v64q-94 0 -135 -27t-41 -88q0 -45 16.5 -66t50.5 -19zM74 493q-9 0 -9 8q0 2 8 10q10 10 17 15q31 27 54 50l23 24l24 24q26 25 30 25t30 -25l24 -24l23 -24q23 -23 54 -50q10 -8 18 -15q7 -7 7 -10q0 -8 -9 -8q-8 0 -28 12l-119 74l-119 -74
q-20 -12 -28 -12zM245 686q-11 0 -33 15l-109 72q-9 6 -9 12t18.5 15t33.5 9q10 0 14 -3q15 -14 19 -20l64 -70q17 -19 17 -23q0 -7 -15 -7z" />
    <glyph glyph-name="uni1EA8" unicode="&#x1ea8;" horiz-adv-x="601" 
d="M-20 0v29l26 -2h4q20 0 33 19q16 23 30 58l209 503h26l211 -505q13 -35 29 -57q14 -18 35 -18h5l33 2v-29h-265v29l49 -2q30 -3 30 24q0 18 -10 39l-49 118h-233l-46 -112q-14 -33 -14 -50q0 -21 22 -20l48 3v-29h-173zM149 666q-9 0 -9 8q0 2 8 10q10 10 17 15
q31 27 54 50l23 24l24 24q26 25 30 25t30 -25l24 -24l23 -24q23 -23 54 -50q11 -7 18 -15q7 -7 7 -10q0 -8 -9 -8t-28 12l-119 74l-119 -74q-20 -12 -28 -12zM281 846q-9 33 -9 48q0 12 14 18q45 20 45 47q0 31 -38 31q-19 0 -32 -6l-3 22q21 10 57 10q29 0 48.5 -15
t19.5 -41q0 -47 -47 -57q-27 -6 -27 -21q0 -17 1 -36h-29zM155 236h209l-105 252z" />
    <glyph glyph-name="uni1EA9" unicode="&#x1ea9;" horiz-adv-x="450" 
d="M155 -10q-128 0 -128 113q0 77 64.5 113.5t202.5 36.5v63q0 47 -22 67t-71 20q-76 0 -76 -42q0 -6 5 -18q4 -9 4 -20q0 -34 -39 -34q-21 0 -32.5 13t-11.5 34q0 42 44 68t118 26q167 0 167 -141v-246q0 -19 13 -19l37 2v-26h-142q4 17 4 37l2 39q-41 -86 -139 -86z
M185 26q44 0 75 39t34 97v64q-94 0 -135 -27t-41 -88q0 -45 16.5 -66t50.5 -19zM74 493q-9 0 -9 8q0 2 8 10q10 10 17 15q31 27 54 50l23 24l24 24q26 25 30 25t30 -25l24 -24l23 -24q23 -23 54 -50q10 -8 18 -15q7 -7 7 -10q0 -8 -9 -8q-8 0 -28 12l-119 74l-119 -74
q-20 -12 -28 -12zM206 673q-9 33 -9 48q0 12 14 18q45 19 45 47q0 31 -38 31q-18 0 -32 -6l-3 22q21 10 57 10q29 0 48.5 -15t19.5 -41q0 -47 -47 -57q-27 -6 -27 -21q0 -17 1 -36h-29z" />
    <glyph glyph-name="uni1EAA" unicode="&#x1eaa;" horiz-adv-x="601" 
d="M-20 0v29l26 -2h4q20 0 33 19q16 23 30 58l209 503h26l211 -505q13 -35 29 -57q14 -18 35 -18h5l33 2v-29h-265v29l49 -2q30 -3 30 24q0 18 -10 39l-49 118h-233l-46 -112q-14 -33 -14 -50q0 -21 22 -20l48 3v-29h-173zM149 666q-9 0 -9 8q0 2 8 10q10 10 17 15
q31 27 54 50l23 24l24 24q26 25 30 25t30 -25l24 -24l23 -24q23 -23 54 -50q11 -7 18 -15q7 -7 7 -10q0 -8 -9 -8t-28 12l-119 74l-119 -74q-20 -12 -28 -12zM381 851q-21 -1 -88 22q-59 21 -81 21q-14 0 -23.5 -12t-9.5 -30h-20q0 37 18.5 64t45.5 27q25 0 88 -22
q61 -21 81 -21q14 0 23.5 12t9.5 30h20q0 -37 -18.5 -63.5t-45.5 -27.5zM155 236h209l-105 252z" />
    <glyph glyph-name="uni1EAB" unicode="&#x1eab;" horiz-adv-x="450" 
d="M155 -10q-128 0 -128 113q0 77 64.5 113.5t202.5 36.5v63q0 47 -22 67t-71 20q-76 0 -76 -42q0 -6 5 -18q4 -9 4 -20q0 -34 -39 -34q-21 0 -32.5 13t-11.5 34q0 42 44 68t118 26q167 0 167 -141v-246q0 -19 13 -19l37 2v-26h-142q4 17 4 37l2 39q-41 -86 -139 -86z
M185 26q44 0 75 39t34 97v64q-94 0 -135 -27t-41 -88q0 -45 16.5 -66t50.5 -19zM74 493q-9 0 -9 8q0 2 8 10q10 10 17 15q31 27 54 50l23 24l24 24q26 25 30 25t30 -25l24 -24l23 -24q23 -23 54 -50q10 -8 18 -15q7 -7 7 -10q0 -8 -9 -8q-8 0 -28 12l-119 74l-119 -74
q-20 -12 -28 -12zM306 678q-21 -1 -88 22q-58 21 -81 21q-14 0 -23.5 -12t-9.5 -30h-20q0 37 18.5 64t45.5 27q25 0 88 -22q62 -21 81 -21q14 0 23.5 12t9.5 30h20q0 -37 -18.5 -63.5t-45.5 -27.5z" />
    <glyph glyph-name="uni1EAC" unicode="&#x1eac;" horiz-adv-x="601" 
d="M-20 0v29l26 -2h4q20 0 33 19q16 23 30 58l209 503h26l211 -505q13 -35 29 -57q14 -18 35 -18h5l33 2v-29h-265v29l49 -2q30 -3 30 24q0 18 -10 39l-49 118h-233l-46 -112q-14 -33 -14 -50q0 -21 22 -20l48 3v-29h-173zM149 666q-9 0 -9 8q0 2 8 10q10 10 17 15
q31 27 54 50l23 24l24 24q26 25 30 25t30 -25l24 -24l23 -24q23 -23 54 -50q11 -7 18 -15q7 -7 7 -10q0 -8 -9 -8t-28 12l-119 74l-119 -74q-20 -12 -28 -12zM274 -175q-24 0 -39 13.5t-15 34.5t15.5 35t38.5 14q22 0 38 -14t16 -35t-15 -34.5t-39 -13.5zM155 236h209
l-105 252z" />
    <glyph glyph-name="uni1EAD" unicode="&#x1ead;" horiz-adv-x="450" 
d="M155 -10q-128 0 -128 113q0 77 64.5 113.5t202.5 36.5v63q0 47 -22 67t-71 20q-76 0 -76 -42q0 -6 5 -18q4 -9 4 -20q0 -34 -39 -34q-21 0 -32.5 13t-11.5 34q0 42 44 68t118 26q167 0 167 -141v-246q0 -19 13 -19l37 2v-26h-142q4 17 4 37l2 39q-41 -86 -139 -86z
M185 26q44 0 75 39t34 97v64q-94 0 -135 -27t-41 -88q0 -45 16.5 -66t50.5 -19zM74 493q-9 0 -9 8q0 2 8 10q10 10 17 15q31 27 54 50l23 24l24 24q26 25 30 25t30 -25l24 -24l23 -24q23 -23 54 -50q10 -8 18 -15q7 -7 7 -10q0 -8 -9 -8q-8 0 -28 12l-119 74l-119 -74
q-20 -12 -28 -12zM209 -175q-24 0 -39 13.5t-15 34.5t15.5 35t38.5 14q22 0 38 -14t16 -35t-15 -34.5t-39 -13.5z" />
    <glyph glyph-name="uni1EAE" unicode="&#x1eae;" horiz-adv-x="601" 
d="M-20 0v29l26 -2h4q20 0 33 19q16 23 30 58l209 503h26l211 -505q13 -35 29 -57q14 -18 35 -18h5l33 2v-29h-265v29l49 -2q30 -3 30 24q0 18 -10 39l-49 118h-233l-46 -112q-14 -33 -14 -50q0 -21 22 -20l48 3v-29h-173zM296 666q-58 0 -93 33t-42 91h38q19 -74 97 -74
q39 0 64 20.5t34 53.5h38q-7 -58 -42.5 -91t-93.5 -33zM282 790q-15 0 -15 7q0 4 17 23l64 70q4 5 19 20q4 3 14 3q15 0 33.5 -9t18.5 -15t-9 -12l-109 -72q-23 -15 -33 -15zM155 236h209l-105 252z" />
    <glyph glyph-name="uni1EAF" unicode="&#x1eaf;" horiz-adv-x="450" 
d="M155 -10q-128 0 -128 113q0 77 64.5 113.5t202.5 36.5v63q0 47 -22 67t-71 20q-76 0 -76 -42q0 -6 5 -18q4 -9 4 -20q0 -34 -39 -34q-21 0 -32.5 13t-11.5 34q0 42 44 68t118 26q167 0 167 -141v-246q0 -19 13 -19l37 2v-26h-142q4 17 4 37l2 39q-41 -86 -139 -86z
M185 26q44 0 75 39t34 97v64q-94 0 -135 -27t-41 -88q0 -45 16.5 -66t50.5 -19zM221 518q-58 0 -93 33t-42 91h38q19 -74 97 -74q39 0 64 20.5t34 53.5h38q-7 -58 -42.5 -91t-93.5 -33zM207 642q-15 0 -15 7q0 4 17 23l64 70q4 6 19 20q4 3 14 3q15 0 33.5 -9t18.5 -15
t-9 -12l-109 -72q-22 -13 -33 -15z" />
    <glyph glyph-name="uni1EB0" unicode="&#x1eb0;" horiz-adv-x="601" 
d="M-20 0v29l26 -2h4q20 0 33 19q16 23 30 58l209 503h26l211 -505q13 -35 29 -57q14 -18 35 -18h5l33 2v-29h-265v29l49 -2q30 -3 30 24q0 18 -10 39l-49 118h-233l-46 -112q-14 -33 -14 -50q0 -21 22 -20l48 3v-29h-173zM296 666q-58 0 -93.5 33t-42.5 91h38
q9 -33 34 -53.5t64 -20.5q78 0 97 74h38q-7 -58 -42 -91t-93 -33zM310 790q-10 0 -33 15l-109 72q-9 6 -9 12t18.5 15t33.5 9q9 0 14 -3q14 -15 19 -20l64 -70q17 -19 17 -23q0 -7 -15 -7zM155 236h209l-105 252z" />
    <glyph glyph-name="uni1EB1" unicode="&#x1eb1;" horiz-adv-x="450" 
d="M155 -10q-128 0 -128 113q0 77 64.5 113.5t202.5 36.5v63q0 47 -22 67t-71 20q-76 0 -76 -42q0 -6 5 -18q4 -9 4 -20q0 -34 -39 -34q-21 0 -32.5 13t-11.5 34q0 42 44 68t118 26q167 0 167 -141v-246q0 -19 13 -19l37 2v-26h-142q4 17 4 37l2 39q-41 -86 -139 -86z
M185 26q44 0 75 39t34 97v64q-94 0 -135 -27t-41 -88q0 -45 16.5 -66t50.5 -19zM221 518q-58 0 -93.5 33t-42.5 91h38q9 -33 34 -53.5t64 -20.5q78 0 97 74h38q-7 -58 -42 -91t-93 -33zM235 642q-11 2 -33 15l-109 72q-9 6 -9 12t18.5 15t33.5 9q10 0 14 -3q14 -14 19 -20
l64 -70q17 -19 17 -23q0 -7 -15 -7z" />
    <glyph glyph-name="uni1EB2" unicode="&#x1eb2;" horiz-adv-x="601" 
d="M-20 0v29l26 -2h4q20 0 33 19q16 23 30 58l209 503h26l211 -505q13 -35 29 -57q14 -18 35 -18h5l33 2v-29h-265v29l49 -2q30 -3 30 24q0 18 -10 39l-49 118h-233l-46 -112q-14 -33 -14 -50q0 -21 22 -20l48 3v-29h-173zM296 666q-58 0 -93 33t-42 91h38q19 -74 97 -74
q39 0 64 20.5t34 53.5h38q-7 -58 -42.5 -91t-93.5 -33zM277 790q-9 33 -9 48q0 12 14 18q45 20 45 47q0 31 -38 31q-19 0 -32 -6l-3 22q21 10 57 10q29 0 48.5 -15t19.5 -41q0 -47 -47 -57q-27 -6 -27 -21q0 -17 1 -36h-29zM155 236h209l-105 252z" />
    <glyph glyph-name="uni1EB3" unicode="&#x1eb3;" horiz-adv-x="450" 
d="M155 -10q-128 0 -128 113q0 77 64.5 113.5t202.5 36.5v63q0 47 -22 67t-71 20q-76 0 -76 -42q0 -6 5 -18q4 -9 4 -20q0 -34 -39 -34q-21 0 -32.5 13t-11.5 34q0 42 44 68t118 26q167 0 167 -141v-246q0 -19 13 -19l37 2v-26h-142q4 17 4 37l2 39q-41 -86 -139 -86z
M185 26q44 0 75 39t34 97v64q-94 0 -135 -27t-41 -88q0 -45 16.5 -66t50.5 -19zM221 518q-58 0 -93 33t-42 91h38q19 -74 97 -74q39 0 64 20.5t34 53.5h38q-7 -58 -42.5 -91t-93.5 -33zM202 642q-9 33 -9 48q0 12 14 18q45 20 45 47q0 31 -38 31q-18 0 -32 -6l-3 22
q21 10 57 10q29 0 48.5 -15t19.5 -41q0 -47 -47 -57q-27 -6 -27 -21q0 -17 1 -36h-29z" />
    <glyph glyph-name="uni1EB4" unicode="&#x1eb4;" horiz-adv-x="601" 
d="M-20 0v29l26 -2h4q20 0 33 19q16 23 30 58l209 503h26l211 -505q13 -35 29 -57q14 -18 35 -18h5l33 2v-29h-265v29l49 -2q30 -3 30 24q0 18 -10 39l-49 118h-233l-46 -112q-14 -33 -14 -50q0 -21 22 -20l48 3v-29h-173zM296 666q-58 0 -93 33t-42 91h38q19 -74 97 -74
q39 0 64 20.5t34 53.5h38q-7 -58 -42.5 -91t-93.5 -33zM375 831q-21 -1 -88 22q-59 21 -81 21q-14 0 -23.5 -12t-9.5 -30h-20q0 37 18.5 64t45.5 27q25 0 88 -22q61 -21 81 -21q14 0 23.5 12t9.5 30h20q0 -37 -18.5 -63.5t-45.5 -27.5zM155 236h209l-105 252z" />
    <glyph glyph-name="uni1EB5" unicode="&#x1eb5;" horiz-adv-x="450" 
d="M155 -10q-128 0 -128 113q0 77 64.5 113.5t202.5 36.5v63q0 47 -22 67t-71 20q-76 0 -76 -42q0 -6 5 -18q4 -9 4 -20q0 -34 -39 -34q-21 0 -32.5 13t-11.5 34q0 42 44 68t118 26q167 0 167 -141v-246q0 -19 13 -19l37 2v-26h-142q4 17 4 37l2 39q-41 -86 -139 -86z
M185 26q44 0 75 39t34 97v64q-94 0 -135 -27t-41 -88q0 -45 16.5 -66t50.5 -19zM221 518q-58 0 -93 33t-42 91h38q19 -74 97 -74q39 0 64 20.5t34 53.5h38q-7 -58 -42.5 -91t-93.5 -33zM300 683q-25 0 -88 22q-58 21 -81 21q-14 0 -23.5 -12t-9.5 -30h-20q0 37 18.5 64
t45.5 27q25 0 88 -22q62 -21 81 -21q14 0 23.5 12t9.5 30h20q0 -37 -18.5 -64t-45.5 -27z" />
    <glyph glyph-name="uni1EB6" unicode="&#x1eb6;" horiz-adv-x="601" 
d="M-20 0v29l26 -2h4q20 0 33 19q16 23 30 58l209 503h26l211 -505q13 -35 29 -57q14 -18 35 -18h5l33 2v-29h-265v29l49 -2q30 -3 30 24q0 18 -10 39l-49 118h-233l-46 -112q-14 -33 -14 -50q0 -21 22 -20l48 3v-29h-173zM296 667q-58 0 -93 33t-42 91h28q8 -33 36.5 -53.5
t70.5 -20.5q40 0 69.5 21t38.5 53h28q-7 -58 -42.5 -91t-93.5 -33zM274 -175q-24 0 -39 13.5t-15 34.5t15.5 35t38.5 14q22 0 38 -14t16 -35t-15 -34.5t-39 -13.5zM155 236h209l-105 252z" />
    <glyph glyph-name="uni1EB7" unicode="&#x1eb7;" horiz-adv-x="450" 
d="M155 -10q-128 0 -128 113q0 77 64.5 113.5t202.5 36.5v63q0 47 -22 67t-71 20q-76 0 -76 -42q0 -6 5 -18q4 -9 4 -20q0 -34 -39 -34q-21 0 -32.5 13t-11.5 34q0 42 44 68t118 26q167 0 167 -141v-246q0 -19 13 -19l37 2v-26h-142q4 17 4 37l2 39q-41 -86 -139 -86z
M185 26q44 0 75 39t34 97v64q-94 0 -135 -27t-41 -88q0 -45 16.5 -66t50.5 -19zM221 518q-58 0 -93 33t-42 91h28q8 -33 36.5 -53.5t70.5 -20.5q40 0 69.5 21t38.5 53h28q-7 -58 -42.5 -91t-93.5 -33zM209 -175q-24 0 -39 13.5t-15 34.5t15.5 35t38.5 14q22 0 38 -14t16 -35
t-15 -34.5t-39 -13.5z" />
    <glyph glyph-name="uni1EB8" unicode="&#x1eb8;" horiz-adv-x="563" 
d="M519 -3q-23 3 -88 3h-381v30l40 -3q18 0 18 22v499q0 9 -5.5 15.5t-14.5 5.5l-38 -2v30h422q15 0 17 1v-155h-27q0 67 -33.5 96.5t-108.5 29.5h-107q-12 0 -12 -14v-230h94q34 0 55 27t21 74h27v-231h-27q0 44 -22.5 73t-53.5 29h-94v-256q0 -13 12 -13h140
q68 0 103.5 39t35.5 112h27v-182zM292 -175q-24 0 -39 13.5t-15 34.5t15.5 35t38.5 14q22 0 38 -14t16 -35t-15 -34.5t-39 -13.5z" />
    <glyph glyph-name="uni1EB9" unicode="&#x1eb9;" horiz-adv-x="449" 
d="M238 -10q-203 0 -203 219q0 109 51 165t150 56q79 0 127.5 -51t50.5 -138v-29h-288q0 -188 126 -189q48 0 83 24t52 63l23 -17q-20 -47 -67 -75t-105 -28zM127 237h182q20 0 20 33q0 69 -21.5 101t-71.5 32q-54 0 -81.5 -44.5t-27.5 -121.5zM232 -175q-24 0 -39 13.5
t-15 34.5t15.5 35t38.5 14q22 0 38 -14t16 -35t-15 -34.5t-39 -13.5z" />
    <glyph glyph-name="uni1EBA" unicode="&#x1eba;" horiz-adv-x="563" 
d="M519 -3q-23 3 -88 3h-381v30l40 -3q18 0 18 22v499q0 9 -5.5 15.5t-14.5 5.5l-38 -2v30h422q15 0 17 1v-155h-27q0 67 -33.5 96.5t-108.5 29.5h-107q-12 0 -12 -14v-230h94q34 0 55 27t21 74h27v-231h-27q0 44 -22.5 73t-53.5 29h-94v-256q0 -13 12 -13h140
q68 0 103.5 39t35.5 112h27v-182zM277 639q-9 36 -9 53q0 14 15 22q45 24 45 52q0 30 -37 30q-19 0 -36 -5l-3 27q27 11 63 11q35 0 56.5 -16.5t21.5 -43.5q0 -26 -14 -41.5t-43 -27.5q-18 -7 -25.5 -12t-7.5 -14v-35h-26z" />
    <glyph glyph-name="uni1EBB" unicode="&#x1ebb;" horiz-adv-x="449" 
d="M238 -10q-203 0 -203 219q0 109 51 165t150 56q79 0 127.5 -51t50.5 -138v-29h-288q0 -188 126 -189q48 0 83 24t52 63l23 -17q-20 -47 -67 -75t-105 -28zM127 237h182q20 0 20 33q0 69 -21.5 101t-71.5 32q-54 0 -81.5 -44.5t-27.5 -121.5zM218 463q-9 36 -9 53
q0 14 15 22q45 24 45 52q0 30 -37 30q-19 0 -36 -5l-3 27q27 11 63 11q35 0 56.5 -16.5t21.5 -43.5q0 -48 -57 -69q-18 -7 -25.5 -12t-7.5 -14v-35h-26z" />
    <glyph glyph-name="uni1EBC" unicode="&#x1ebc;" horiz-adv-x="563" 
d="M519 -3q-23 3 -88 3h-381v30l40 -3q18 0 18 22v499q0 9 -5.5 15.5t-14.5 5.5l-38 -2v30h422q15 0 17 1v-155h-27q0 67 -33.5 96.5t-108.5 29.5h-107q-12 0 -12 -14v-230h94q34 0 55 27t21 74h27v-231h-27q0 44 -22.5 73t-53.5 29h-94v-256q0 -13 12 -13h140
q68 0 103.5 39t35.5 112h27v-182zM381 675q-25 0 -88 22q-59 21 -81 21q-14 0 -23.5 -12t-9.5 -30h-20q0 37 18.5 64t45.5 27q25 0 88 -22q61 -21 81 -21q14 0 23.5 12t9.5 30h20q0 -37 -18.5 -64t-45.5 -27z" />
    <glyph glyph-name="uni1EBD" unicode="&#x1ebd;" horiz-adv-x="449" 
d="M238 -10q-203 0 -203 219q0 109 51 165t150 56q79 0 127.5 -51t50.5 -138v-29h-288q0 -188 126 -189q48 0 83 24t52 63l23 -17q-20 -47 -67 -75t-105 -28zM127 237h182q20 0 20 33q0 69 -21.5 101t-71.5 32q-54 0 -81.5 -44.5t-27.5 -121.5zM324 529q-25 0 -88 22
q-58 21 -81 21q-14 0 -23.5 -12t-9.5 -30h-20q0 37 18.5 64t45.5 27q25 0 88 -22q62 -21 81 -21q14 0 23.5 12t9.5 30h20q0 -37 -18.5 -64t-45.5 -27z" />
    <glyph glyph-name="uni1EBE" unicode="&#x1ebe;" horiz-adv-x="563" 
d="M519 -3q-23 3 -88 3h-381v30l40 -3q18 0 18 22v499q0 9 -5.5 15.5t-14.5 5.5l-38 -2v30h422q15 0 17 1v-155h-27q0 67 -33.5 96.5t-108.5 29.5h-107q-12 0 -12 -14v-230h94q34 0 55 27t21 74h27v-231h-27q0 44 -22.5 73t-53.5 29h-94v-256q0 -13 12 -13h140
q68 0 103.5 39t35.5 112h27v-182zM147 666q-9 0 -9 8q0 2 8 10q10 10 17 15q31 27 54 50l23 24l24 24q26 25 30 25t30 -25l24 -24l23 -24q23 -23 54 -50q11 -7 18 -15q7 -7 7 -10q0 -8 -9 -8q-8 0 -28 12l-119 74l-119 -74q-19 -12 -28 -12zM270 859q-15 0 -15 7q0 4 17 23
l64 70q5 5 19 20q4 3 14 3q15 0 33.5 -9t18.5 -15t-9 -12l-109 -72q-23 -15 -33 -15z" />
    </font>
</defs>
</svg>
